<svg fill="none" height="300" viewBox="0 0 18 22" width="300" xmlns="http://www.w3.org/2000/svg" version="1.1" xmlns:xlink="http://www.w3.org/1999/xlink" xmlns:svgjs="http://svgjs.dev/svgjs"><g transform="matrix(1,0,0,1,0,0)"><g clip-rule="evenodd" fill="#000" fill-rule="evenodd"><path d="m9 10c1.6569 0 3-1.34315 3-3s-1.3431-3-3-3c-1.65685 0-3 1.34315-3 3s1.34315 3 3 3zm0-2c.55228 0 1-.44772 1-1s-.44772-1-1-1-1 .44772-1 1 .44772 1 1 1z" fill="#ffffff" fill-opacity="1" data-original-color="#000000ff" stroke="none" stroke-opacity="1"/><path d="m10.4214 18.2758c2.0462-2.6175 5.5786-7.702 5.5786-11.60913 0-3.6819-3.134-6.66667-7-6.66667-3.86599 0-7 2.98477-7 6.66667 0 3.90713 3.53245 8.99163 5.5786 11.60913.73492.9401 2.10788.9401 2.8428 0zm1.8011-6.2791c1.0973-2.01058 1.7775-3.89338 1.7775-5.33003 0-2.4865-2.1455-4.66667-5-4.66667s-5 2.18017-5 4.66667c0 1.43665.68021 3.31945 1.77754 5.33003 1.01155 1.8534 2.25371 3.5954 3.22246 4.8488.96875-1.2534 2.2109-2.9954 3.2225-4.8488z" fill="#ffffff" fill-opacity="1" data-original-color="#000000ff" stroke="none" stroke-opacity="1"/><path d="m3.44832 16.9992c.29029-.129.61178-.2497.96091-.3594-.35369-.5654-.70664-1.1533-1.05009-1.7568-2.04845.7332-3.35914 1.8571-3.35914 3.117 0 2.2092 4.02944 4 9 4 4.9706 0 9-1.7908 9-4 0-1.2599-1.3107-2.3838-3.3591-3.117-.3435.6035-.6964 1.1914-1.0501 1.7568.3491.1097.6706.2304.9609.3594.6616.2941 1.0731.5924 1.2922.8226.078.0819.1195.1412.1409.1782-.0214.0371-.0629.0963-.1409.1782-.2191.2303-.6306.5286-1.2922.8226-1.3181.5859-3.2793.9992-5.5517.9992-2.27243 0-4.23357-.4133-5.55168-.9992-.66159-.294-1.07316-.5923-1.29227-.8226-.07793-.0819-.11946-.1411-.14089-.1782.02143-.037.06296-.0963.14089-.1782.21911-.2302.63068-.5285 1.29227-.8226zm12.55768.9542s-.0004.0034-.003.0102c.0013-.0068.003-.0102.003-.0102zm-14.01198 0s.00165.0034.00297.0102c-.00264-.0068-.00297-.0102-.00297-.0102zm0 .0932s.00033-.0033.00297-.0101c-.00132.0067-.00297.0101-.00297.0101zm14.00898-.0101c.0026.0068.003.0101.003.0101s-.0017-.0034-.003-.0101z" fill="#ffffff" fill-opacity="1" data-original-color="#000000ff" stroke="none" stroke-opacity="1"/></g></g></svg>