<svg width="48" height="48" viewBox="0 0 48 48" fill="none" xmlns="http://www.w3.org/2000/svg">
<path d="M41.9722 15.8067C42.2124 12.7927 41.235 9.80022 39.2393 7.50588C37.1005 5.04691 34.0041 3.63672 30.7444 3.63672C24.5314 3.63672 19.4767 8.69022 19.4767 14.9018C19.4767 21.1134 24.5314 26.1669 30.7444 26.1669C32.3965 26.1669 34.035 25.8014 35.5235 25.1057C36.6071 26.9756 38.629 28.237 40.9412 28.237C44.3921 28.237 47.1996 25.4296 47.1996 21.9786C47.1996 18.879 44.934 16.2999 41.9722 15.8067ZM30.088 21.2983V20.126C28.4253 19.8699 27.1621 18.6607 27.1621 17.2111C27.1621 16.8485 27.456 16.5546 27.8186 16.5546C28.1811 16.5546 28.475 16.8485 28.475 17.2111C28.475 18.1225 29.493 18.864 30.7444 18.864C31.9746 18.864 33.0139 18.107 33.0139 17.2111C33.0139 16.1062 32.322 15.8662 30.6232 15.5468C29.1626 15.2721 27.1621 14.8961 27.1621 12.5923C27.1621 11.1426 28.4253 9.93344 30.088 9.67731V8.50244C30.088 8.13991 30.3819 7.846 30.7444 7.846C31.1069 7.846 31.4008 8.13991 31.4008 8.50244V9.67731C33.0636 9.93344 34.3268 11.1426 34.3268 12.5923C34.3268 12.9548 34.0329 13.2487 33.6703 13.2487C33.3078 13.2487 33.0139 12.9548 33.0139 12.5923C33.0139 11.6963 31.9746 10.9394 30.7444 10.9394C29.493 10.9394 28.475 11.6808 28.475 12.5923C28.475 13.6972 29.1669 13.9372 30.8658 14.2566C32.3263 14.5312 34.3268 14.9073 34.3268 17.2111C34.3268 18.6607 33.0636 19.8699 31.4008 20.126V21.2982C31.4008 21.6607 31.1069 21.9546 30.7444 21.9546C30.3819 21.9546 30.088 21.6608 30.088 21.2983ZM40.9412 26.9241C38.2142 26.9241 35.9956 24.7056 35.9956 21.9786C35.9956 19.2516 38.2142 17.0331 40.9412 17.0331C43.6682 17.0331 45.8867 19.2516 45.8867 21.9786C45.8867 24.7056 43.6682 26.9241 40.9412 26.9241ZM44.1115 19.8468C44.3613 20.1094 44.3509 20.5248 44.0882 20.7747L40.5564 24.1337C40.4294 24.2544 40.2667 24.3146 40.1041 24.3146C39.9359 24.3146 39.7678 24.2503 39.6399 24.1223L37.7824 22.2648C37.5261 22.0084 37.5261 21.5928 37.7824 21.3364C38.0387 21.0801 38.4544 21.0801 38.7107 21.3364L40.1156 22.7414L43.1835 19.8235C43.4461 19.5737 43.8616 19.584 44.1115 19.8468ZM33.7234 28.0722H20.5897C20.6304 26.9765 20.6112 26.3432 20.5018 23.9109C20.3613 20.7249 18.0875 19.3278 16.4695 19.3278C16.4426 19.3278 16.4154 19.3282 16.3887 19.329C15.1837 19.3643 14.3531 20.1561 14.3691 21.2544C14.3964 23.1878 14.4042 23.6453 14.4075 23.8415C14.4092 23.9387 14.4113 24.1082 14.4138 24.3498L14.4327 26.1227C14.4355 26.4015 14.4098 26.7644 14.2716 26.9108C14.1663 27.0225 13.9337 27.0982 13.6391 27.194C12.7694 27.4771 11.4551 27.9047 10.3658 30.2105L10.3492 30.2459C10.2827 30.3879 10.2254 30.51 10.109 30.5964V30.1052C10.109 29.0356 9.29712 28.1653 8.29915 28.1653H2.70799C2.1904 28.1653 1.67093 28.4095 1.31843 28.8186C0.977836 29.214 0.831211 29.7053 0.905649 30.2034L2.81656 42.8463C2.98549 43.9488 3.71084 44.6896 4.62143 44.6896H8.29934C9.29731 44.6896 10.1092 43.8181 10.1092 42.7469V42.0784C10.6873 42.0902 11.0038 42.3752 11.5469 42.9121C12.2672 43.6241 13.2536 44.5992 15.4453 44.5992H25.3896C26.7992 44.5992 27.9461 43.4511 27.9461 42.04C27.9461 41.5216 27.7909 41.0389 27.5251 40.6353C28.5007 40.2743 29.1979 39.3356 29.1979 38.2371C29.1979 37.5499 28.9251 36.9256 28.4828 36.4653C29.0946 35.9977 29.4902 35.2614 29.4902 34.4342C29.4902 33.9819 29.3718 33.5569 29.1651 33.1878H33.7236C35.2014 33.1878 35.9745 31.901 35.9745 30.63C35.9745 29.3589 35.2014 28.0722 33.7236 28.0722H33.7234ZM6.15481 33.5599C6.15481 33.9225 5.8609 34.2164 5.49837 34.2164C5.13584 34.2164 4.84193 33.9225 4.84193 33.5599V31.2931C4.84193 30.9305 5.13584 30.6366 5.49837 30.6366C5.8609 30.6366 6.15481 30.9305 6.15481 31.2931V33.5599ZM25.3896 43.2862H21.3875C20.7003 43.2862 20.1412 42.7271 20.1412 42.0399C20.1412 41.3527 20.7003 40.7936 21.3875 40.7936C21.4349 40.7936 21.4811 40.7883 21.5256 40.7788C21.6156 40.7884 21.7069 40.7936 21.7994 40.7936H25.3897C26.0754 40.7936 26.6334 41.3527 26.6334 42.0399C26.6334 42.7271 26.0754 43.2862 25.3896 43.2862ZM26.6386 39.4807H21.7993C21.1122 39.4807 20.553 38.9228 20.553 38.237C20.553 37.5512 21.1122 36.9907 21.7993 36.9907C21.8327 36.9907 21.8653 36.9874 21.8974 36.9827C21.9616 36.9875 22.0262 36.9907 22.0917 36.9907H26.6386C27.3258 36.9907 27.8849 37.5498 27.8849 38.237C27.8849 38.9242 27.3258 39.4807 26.6386 39.4807ZM26.9309 35.6779H22.0917C21.4045 35.6779 20.8453 35.12 20.8453 34.4342C20.8453 33.7483 21.4045 33.1878 22.0917 33.1878H26.9309C27.6181 33.1878 28.1772 33.747 28.1772 34.4342C28.1772 35.1213 27.6181 35.6779 26.9309 35.6779ZM33.7234 31.8751H22.0917C20.6805 31.8751 19.5325 33.0231 19.5325 34.4342C19.5325 35.1207 19.8052 35.7443 20.2475 36.2041C19.6358 36.6722 19.2402 37.4091 19.2402 38.2371C19.2402 38.898 19.4924 39.501 19.9059 39.9553C19.2544 40.4196 18.8283 41.1808 18.8283 42.04C18.8283 42.4922 18.9467 42.9172 19.1534 43.2863H15.4453C13.7929 43.2863 13.1503 42.6511 12.4699 41.9784C11.9006 41.4156 11.2553 40.7795 10.1092 40.7657V31.9894C11.075 31.7917 11.3908 31.1177 11.5384 30.8023L11.553 30.7711C12.4001 28.9778 13.2742 28.6935 14.0454 28.4425C14.8106 28.1936 15.7629 27.8837 15.7455 26.1093L15.7266 24.3363C15.724 24.0903 15.7219 23.9179 15.7202 23.819C15.7169 23.6232 15.7091 23.1664 15.6819 21.2357C15.675 20.7626 16.0834 20.6513 16.4273 20.6412C17.51 20.61 19.0868 21.6207 19.1905 23.9693C19.319 26.8257 19.3183 27.1741 19.2543 28.5862C19.0815 32.2737 17.5023 33.7777 13.8031 33.7777C13.4406 33.7777 13.1467 34.0716 13.1467 34.4342C13.1467 34.7967 13.4406 35.0906 13.8031 35.0906C19.0914 35.0906 20.2524 32.0244 20.5129 29.3851H33.7236C34.4641 29.3851 34.6617 30.1677 34.6617 30.63C34.6617 31.0922 34.4642 31.875 33.7236 31.875L33.7234 31.8751Z" fill="white"/>
</svg>
