<svg width="64" height="64" viewBox="0 0 64 64" fill="none" xmlns="http://www.w3.org/2000/svg">
<path d="M39.5347 30.0978H47.6647C56.6878 29.9253 58.87 17.8065 50.6791 14.3961C42.6811 11.3309 36.0432 20.8717 41.5241 27.2863C40.8643 28.2201 40.1944 29.164 39.5347 30.0978ZM51.3795 20.4758C53.3384 20.5266 53.3384 23.399 51.3795 23.4497C49.4104 23.399 49.4104 20.5266 51.3795 20.4758ZM47.6748 20.4758C49.6337 20.5266 49.6337 23.399 47.6748 23.4497C45.7058 23.399 45.7058 20.5266 47.6748 20.4758ZM43.96 20.4758C45.9189 20.5266 45.9189 23.399 43.96 23.4497C42.0011 23.399 42.0011 20.5266 43.96 20.4758ZM16.6165 28.7987H26.7561C25.934 27.6314 25.1017 26.4642 24.2796 25.297C31.151 17.3091 22.7774 5.36285 12.851 9.20961C2.63014 13.4218 5.38073 28.616 16.6165 28.7987ZM21.2448 16.9336C23.5082 16.9945 23.5082 20.3033 21.2448 20.3642C18.9814 20.2932 18.9814 16.9945 21.2448 16.9336ZM16.6165 16.9336C18.8799 16.9945 18.8799 20.3033 16.6165 20.3642C14.3633 20.3033 14.3531 16.9843 16.6165 16.9336ZM11.9882 16.9336C14.2415 16.9945 14.2415 20.3033 11.9882 20.3642C9.72483 20.2932 9.72483 16.9945 11.9882 16.9336ZM45.5028 52.1736C45.5028 54.031 44.0006 55.5331 42.1432 55.5331H23.0921C21.2347 55.5331 19.7325 54.031 19.7325 52.1736V50.2451C19.7325 45.0687 23.5285 40.7043 28.5831 39.933C30.6942 41.9325 34.5512 41.9325 36.6522 39.933C41.7169 40.7043 45.5028 45.0687 45.5028 50.2451V52.1736ZM32.6126 28.4333C35.4849 28.4333 37.8194 30.7677 37.8194 33.6401C37.8803 38.0654 32.4096 40.4912 29.1819 37.5478C25.6092 34.4724 27.832 28.4028 32.6126 28.4333ZM20.1892 55.5433H9.71468C8.18206 55.5433 6.95394 54.305 6.95394 52.7826V51.189C6.95394 46.8855 10.1105 43.323 14.2313 42.7038C15.9568 44.3582 19.1438 44.3582 20.8693 42.7038C21.0418 42.7343 21.2042 42.7647 21.3666 42.8053C19.6006 44.886 18.6262 47.5047 18.6262 50.2553V52.1837C18.6465 53.5235 19.2453 54.7313 20.1892 55.5433ZM17.5604 33.2341C19.9253 33.2341 21.8437 35.1524 21.8437 37.5173C21.8944 41.1611 17.3981 43.1606 14.7388 40.7348C11.7954 38.2075 13.6223 33.2138 17.5604 33.2341ZM58.2712 51.189V52.7826C58.2712 54.3152 57.0329 55.5433 55.5003 55.5433H45.0359C45.9798 54.7313 46.5786 53.5235 46.5786 52.1837V50.2553C46.5786 47.5047 45.6043 44.8759 43.8382 42.7952C44.0006 42.7647 44.1731 42.7241 44.3355 42.7038C46.0711 44.3582 49.248 44.3582 50.9735 42.7038C55.1146 43.3331 58.2712 46.8855 58.2712 51.189ZM47.6647 33.2341C50.0296 33.2341 51.9479 35.1524 51.9479 37.5173C51.9986 41.1611 47.5023 43.1606 44.843 40.7348C41.9097 38.2075 43.7367 33.2138 47.6647 33.2341Z" fill="white"/>
</svg>
