<svg height="300" viewBox="0 0 512 512" width="300" xmlns="http://www.w3.org/2000/svg" version="1.1" xmlns:xlink="http://www.w3.org/1999/xlink" xmlns:svgjs="http://svgjs.dev/svgjs"><g transform="matrix(1,0,0,1,0,0)"><path d="m176 451.988281c-5.519531 0-10 4.480469-10 10 0 5.523438 4.480469 10 10 10s10-4.476562 10-10c0-5.519531-4.480469-10-10-10zm0 0" fill="#304ba6ff" data-original-color="#000000ff" stroke="none"/><path d="m499.359375 155.863281c-.046875-.035156-.097656-.066406-.144531-.101562l-83.214844-57.039063v-28.734375c0-5.519531-4.476562-10-10-10h-48.050781l-73.050781-50.796875c-17.285157-12.246094-40.511719-12.246094-57.726563-.050781l-73.132813 50.847656h-48.039062c-5.523438 0-10 4.480469-10 10v28.734375l-83.214844 57.039063c-.046875.03125-.097656.066406-.144531.101562-8.046875 5.726563-12.640625 15.007813-12.640625 24.464844v301.660156c0 16.230469 13.125 30 30 30h452c16.886719 0 30-13.78125 30-30v-301.660156c0-9.851563-4.917969-18.96875-12.640625-24.464844zm-7.359375 324.945313-166.800781-139.90625 166.800781-148.960938zm-472-288.867188 166.800781 148.960938-166.800781 139.90625zm181.875 162.421875 20.347656 18.171875c9.246094 8.46875 21.238282 13.128906 33.777344 13.128906s24.53125-4.660156 33.777344-13.128906l20.347656-18.171875 164.085938 137.625h-436.421876zm283.828125-183.613281-69.703125 62.25v-110.03125zm-247.042969-145.238281c10.371094-7.347657 24.308594-7.351563 34.75.046875l49.507813 34.429687h-133.84375zm157.339844 54.476562v170.871094l-119.589844 106.800781c-.035156.03125-.070312.0625-.105468.09375-11.574219 10.632813-29.035157 10.632813-40.609376 0-.035156-.03125-.066406-.0625-.101562-.09375l-119.59375-106.800781c0-39.320313 0-134.394531 0-170.871094zm-300 153.011719-69.703125-62.25 69.703125-47.78125zm0 0" fill="#304ba6ff" data-original-color="#000000ff" stroke="none"/><path d="m336 451.988281h-120c-5.523438 0-10 4.480469-10 10 0 5.523438 4.476562 10 10 10h120c5.523438 0 10-4.476562 10-10 0-5.519531-4.476562-10-10-10zm0 0" fill="#304ba6ff" data-original-color="#000000ff" stroke="none"/><path d="m256 299.988281c5.523438 0 10-4.476562 10-10 0-5.519531-4.476562-10-10-10-38.597656 0-70-31.398437-70-70 0-38.597656 31.402344-70 70-70s70 31.402344 70 70v20c0 5.515625-4.484375 10-10 10s-10-4.484375-10-10v-20c0-27.566406-22.429688-50-50-50s-50 22.433594-50 50c0 27.570313 22.429688 50 50 50 13.441406 0 25.648438-5.339843 34.644531-13.996093 5.320313 8.402343 14.695313 13.996093 25.355469 13.996093 16.542969 0 30-13.457031 30-30v-20c0-49.625-40.375-90-90-90s-90 40.375-90 90c0 49.628907 40.375 90 90 90zm0-60c-16.542969 0-30-13.457031-30-30 0-16.539062 13.457031-30 30-30s30 13.460938 30 30c0 16.542969-13.457031 30-30 30zm0 0" fill="#304ba6ff" data-original-color="#000000ff" stroke="none"/></g></svg>