<svg width="139" height="139" viewBox="0 0 139 139" fill="none" xmlns="http://www.w3.org/2000/svg">
<g clip-path="url(#clip0_149_669)">
<path d="M20.261 71.7617C20.2596 71.7604 20.2575 71.7583 20.2554 71.7563C19.8681 71.3801 19.8596 70.7611 20.2358 70.3739C20.2358 70.3739 20.6093 69.9895 21.3261 69.3244C21.7228 68.9567 22.348 68.9771 22.708 69.3774C23.0757 69.7742 23.0524 70.3924 22.655 70.7594C21.9958 71.3699 21.6473 71.7268 21.6371 71.7374C21.2636 72.1219 20.6488 72.1331 20.261 71.7617Z" fill="#304BA6"/>
<path d="M21.2781 70.7007C20.9099 70.3075 20.9311 69.6914 21.3244 69.3231C21.7247 68.9617 22.3476 68.9758 22.7098 69.3768C23.078 69.7701 23.0568 70.3862 22.6628 70.7538L22.656 70.7608C22.277 71.1156 21.6881 71.1069 21.3137 70.7484C21.2996 70.7349 21.2855 70.7213 21.2781 70.7007Z" fill="#304BA6"/>
<path d="M23.4999 68.8191C23.4716 68.792 23.4511 68.7724 23.4229 68.7453C23.2588 68.5476 23.1779 68.2941 23.1999 68.0307C23.2211 67.7667 23.3483 67.5364 23.5376 67.3655C24.3529 66.6838 25.0736 66.1009 25.7948 65.5457C25.8084 65.5316 25.8219 65.5175 25.8354 65.5033L25.8702 65.4825C26.2927 65.1828 26.8957 65.2728 27.2097 65.6818C27.5078 66.062 27.4854 66.5959 27.1535 66.9552C27.1197 66.9905 27.0788 67.0191 27.045 67.0544C26.2971 67.6247 25.5487 68.2351 24.8286 68.8456L24.8084 68.8668C24.421 69.1865 23.8594 69.1634 23.4999 68.8191ZM28.0986 65.233C28.0555 65.1917 28.0206 65.1447 27.9849 65.0971C27.7 64.7158 27.7439 64.1891 28.0686 63.8501C28.116 63.8006 28.1636 63.765 28.2045 63.7364C29.0558 63.1162 29.8539 62.5669 30.6243 62.0452C31.0602 61.7584 31.6784 61.8764 31.9784 62.3127C32.2357 62.6945 32.1982 63.2003 31.8803 63.5323C31.8262 63.5888 31.7717 63.6315 31.7173 63.6742C30.9263 64.2032 30.1289 64.7532 29.3448 65.316C28.9636 65.6009 28.4369 65.557 28.0986 65.233ZM32.9398 61.9875C32.8833 61.9333 32.8336 61.8722 32.7835 61.7972C32.5539 61.4147 32.6055 60.9225 32.9099 60.6046C32.9707 60.541 33.039 60.498 33.1072 60.455C33.94 59.9389 34.7869 59.4363 35.6409 58.9405C36.0989 58.6885 36.7106 58.8544 36.9772 59.3128C37.1859 59.6888 37.1337 60.1534 36.8361 60.4642C36.7684 60.5348 36.6937 60.5987 36.6116 60.642C35.7911 61.1156 34.9516 61.6118 34.1324 62.1138C33.757 62.3502 33.2648 62.2986 32.9398 61.9875ZM38.0104 59.1106C37.9327 59.0362 37.8678 58.9469 37.8182 58.8588C37.6233 58.4825 37.6825 58.0247 37.9805 57.7277C38.0414 57.6641 38.1161 57.6002 38.1914 57.564L38.2323 57.5354C38.239 57.5284 38.2596 57.521 38.2664 57.514L38.287 57.5066C39.1969 57.0372 40.0317 56.6179 40.8331 56.2478C40.8466 56.2336 40.8672 56.2263 40.874 56.2192L40.8885 56.2196C41.3404 56.0023 41.9607 56.2171 42.1776 56.6821C42.3524 57.0526 42.2787 57.4831 42.0077 57.7788C41.9197 57.8706 41.8237 57.9412 41.7079 57.9928C40.8657 58.3915 39.9964 58.8185 39.1345 59.2661C38.7653 59.4678 38.3071 59.3947 38.0104 59.1106ZM43.2692 56.617C43.1767 56.5284 43.1051 56.4192 43.0471 56.296C42.894 55.9326 42.9754 55.5096 43.2524 55.2331C43.3403 55.1413 43.4424 55.063 43.5727 55.0117C44.4638 54.6327 45.3896 54.2599 46.3082 53.9072C46.7954 53.7237 47.3829 53.9884 47.5667 54.4894C47.6987 54.8324 47.6237 55.2346 47.3599 55.5101C47.2651 55.609 47.1354 55.6879 46.9983 55.7462C46.1337 56.0693 45.2619 56.4126 44.3303 56.8071C43.9684 56.9615 43.5518 56.8876 43.2692 56.617ZM48.7237 54.5681C48.6114 54.4606 48.5183 54.3173 48.4728 54.1654C48.3547 53.8221 48.4434 53.4466 48.687 53.1923C48.7478 53.1287 48.8097 53.0796 48.884 53.0289L48.7596 53.0316L49.1376 52.9197C50.0649 52.6159 51.0064 52.3258 51.9278 52.0706C52.423 51.9354 52.9901 52.2482 53.1256 52.7572C53.2225 53.0802 53.1257 53.4344 52.896 53.6884C52.7743 53.8156 52.6172 53.9089 52.4454 53.9611C51.5378 54.2159 50.6173 54.4856 49.717 54.788L49.7031 54.7883C49.3605 54.9071 48.9851 54.8184 48.7237 54.5681ZM54.3283 53.0016C54.1948 52.8738 54.1005 52.7022 54.0551 52.5233C53.9788 52.1929 54.0752 51.8518 54.3052 51.6117C54.4408 51.4842 54.6053 51.3845 54.7905 51.3452C55.7335 51.1242 56.7047 50.9302 57.6839 50.7575C58.1938 50.6634 58.7274 51.0254 58.8214 51.5353C58.8836 51.8521 58.7799 52.1726 58.5634 52.3987C58.4143 52.5402 58.2366 52.6409 58.0298 52.6731C57.0998 52.8523 56.1563 53.0457 55.2269 53.2526C54.9025 53.3212 54.5678 53.2309 54.3283 53.0016ZM60.061 51.9775C59.8921 51.8158 59.7912 51.6243 59.7648 51.3959C59.7245 51.1 59.821 50.7997 60.0378 50.5875C60.1934 50.425 60.3849 50.324 60.6133 50.299C61.5722 50.1745 62.5455 50.0773 63.4985 50.0013L63.5744 49.9928C64.0857 49.9679 64.5581 50.3796 64.604 50.8974C64.6238 51.1737 64.5252 51.4449 64.3358 51.6427C64.1667 51.8193 63.9407 51.928 63.7059 51.9469C62.7668 52.0226 61.808 52.1202 60.8559 52.2376C60.5586 52.278 60.2736 52.1811 60.061 51.9775ZM65.8552 51.5268C65.6644 51.3442 65.5555 51.1044 65.5498 50.8417C65.5448 50.5796 65.6426 50.3347 65.8252 50.1439C66.0011 49.9603 66.2415 49.852 66.5036 49.8456C67.5199 49.8167 68.5091 49.816 69.4649 49.8375C69.9835 49.8602 70.4302 50.3285 70.4206 50.8475C70.4051 51.09 70.3134 51.3272 70.1511 51.4967C69.9549 51.7016 69.6942 51.8041 69.4174 51.7962C68.4623 51.7754 67.5007 51.7755 66.5604 51.7959C66.2976 51.8016 66.0466 51.7101 65.8552 51.5268ZM71.67 51.6783C71.4581 51.4753 71.3411 51.1873 71.3625 50.8963C71.3854 50.6745 71.4844 50.4579 71.64 50.2954C71.843 50.0835 72.1313 49.9804 72.4223 50.0017C73.4271 50.0837 74.4184 50.1799 75.3621 50.3116C75.8763 50.3842 76.2671 50.8938 76.2023 51.4141C76.1791 51.6221 76.0787 51.8104 75.9299 51.9658C75.7202 52.1848 75.4049 52.2891 75.1066 52.2472C74.2047 52.1284 73.2542 52.0307 72.2915 51.9484L72.2638 51.949C72.0352 51.9332 71.8325 51.8339 71.67 51.6783ZM77.4284 52.4528C77.1882 52.2228 77.0772 51.8863 77.1462 51.5597C77.1767 51.3722 77.2632 51.2112 77.3917 51.077C77.6214 50.823 77.9512 50.719 78.2846 50.781C79.243 50.9539 80.2161 51.168 81.1757 51.3963C81.6765 51.5238 82.0136 52.0768 81.8932 52.5844C81.8553 52.7513 81.7756 52.9052 81.6606 53.0253C81.4171 53.2796 81.0596 53.3842 80.7189 53.3016C79.794 53.0795 78.8627 52.8783 77.9249 52.698C77.7368 52.6668 77.5627 52.5814 77.4284 52.4528ZM83.0743 53.8102C82.8129 53.56 82.7148 53.1816 82.8109 52.8267C82.8561 52.6805 82.9361 52.5404 83.0443 52.4274C83.3014 52.1589 83.6797 52.0608 84.0279 52.1639C84.9539 52.4413 85.8806 52.7464 86.7867 53.0588C86.8012 53.0592 86.8214 53.065 86.843 53.0721L86.912 53.0976L86.9052 53.1047C87.3661 53.3022 87.6064 53.8574 87.4443 54.325C87.3987 54.4575 87.3252 54.5767 87.2305 54.6756C86.9599 54.9581 86.5607 55.0498 86.1914 54.9263C85.2984 54.6129 84.3856 54.3076 83.4737 54.0437C83.3281 53.9991 83.188 53.9192 83.0743 53.8102ZM88.5608 55.7328C88.2712 55.4555 88.179 55.0286 88.33 54.6587C88.383 54.5468 88.443 54.4418 88.5309 54.3499C88.8082 54.0603 89.2284 53.9751 89.6051 54.1191C90.4985 54.4872 91.4064 54.8826 92.3077 55.2989C92.7898 55.5167 93.0111 56.1214 92.793 56.5896C92.7468 56.6943 92.6865 56.7856 92.6189 56.8562C92.328 57.16 91.8734 57.2528 91.4962 57.0811C90.6164 56.672 89.7287 56.2824 88.8703 55.9343C88.751 55.8878 88.652 55.8201 88.5608 55.7328ZM93.8365 58.1712C93.5264 57.8742 93.4461 57.391 93.6454 57.0131C93.6851 56.9293 93.7389 56.8589 93.7998 56.7953C94.0971 56.4707 94.5797 56.3911 94.9646 56.5972C95.8389 57.0417 96.7071 57.521 97.5614 58.0006C98.0174 58.2612 98.1823 58.8795 97.9224 59.3348C97.8831 59.4055 97.8286 59.4752 97.7745 59.5317C97.4562 59.8499 96.9734 59.9157 96.5814 59.7028C95.8248 59.2626 95.068 58.8494 94.3342 58.4717L94.0614 58.3323C93.9843 58.2856 93.9064 58.2381 93.8365 58.1712ZM98.8857 61.0426C98.5536 60.7247 98.4872 60.2142 98.7285 59.8223C98.7688 59.7661 98.8084 59.7092 98.8489 59.6668C99.1736 59.3277 99.6912 59.2681 100.084 59.5093C100.905 60.0242 101.733 60.5735 102.548 61.1231C102.99 61.4248 103.107 62.038 102.805 62.4796C102.771 62.5288 102.738 62.5786 102.69 62.6136C102.365 62.9526 101.841 63.0055 101.447 62.7373C100.641 62.1951 99.8337 61.6661 99.0475 61.1706C98.9853 61.138 98.9358 61.0907 98.8857 61.0426ZM103.696 64.3219C103.343 63.9836 103.296 63.4243 103.578 63.0308C103.605 63.0026 103.639 62.9672 103.666 62.939C103.997 62.579 104.557 62.5323 104.95 62.8282C105.723 63.3925 106.511 63.998 107.285 64.6038C107.708 64.9406 107.783 65.5546 107.447 65.977C107.433 66.0049 107.406 66.0332 107.386 66.0544C107.034 66.4217 106.475 66.4546 106.074 66.1382C105.327 65.5456 104.561 64.9603 103.795 64.4028C103.759 64.3689 103.724 64.3489 103.696 64.3219ZM108.257 67.9171C107.882 67.5586 107.856 66.9781 108.186 66.5766C108.193 66.5696 108.206 66.5554 108.22 66.5413C108.578 66.1669 109.172 66.1264 109.567 66.4637C110.299 67.0836 111.047 67.7315 111.781 68.3942L111.802 68.4138C112.191 68.7866 112.217 69.3802 111.859 69.7685L111.838 69.7897C111.481 70.1786 110.865 70.1981 110.477 69.8537C109.73 69.1788 108.996 68.5438 108.306 67.9645C108.285 67.9442 108.271 67.9307 108.257 67.9171ZM112.623 71.8279L112.595 71.8008C112.206 71.4288 112.186 70.8135 112.558 70.425C112.741 70.2343 112.981 70.1253 113.243 70.1196C113.505 70.1133 113.75 70.2117 113.941 70.3812L113.969 70.4083C114.358 70.7803 114.371 71.4026 113.999 71.7912C113.816 71.9819 113.576 72.0902 113.314 72.0966C113.051 72.1022 112.807 72.0038 112.623 71.8279Z" fill="#304BA6"/>
<path d="M113.674 72.8507C113.672 72.8486 113.67 72.8459 113.667 72.8432C113.318 72.5021 112.971 72.1665 112.621 71.8338L112.619 71.8317C112.23 71.459 112.216 70.8416 112.587 70.451C112.959 70.0597 113.578 70.0442 113.97 70.4169C114.325 70.7557 114.68 71.0974 115.035 71.4453C115.421 71.8229 115.428 72.4419 115.05 72.8285C114.675 73.2116 114.062 73.2214 113.674 72.8507Z" fill="#304BA6"/>
<path d="M107.143 72.1599C106.917 71.9434 106.798 71.6208 106.855 71.2889C106.945 70.7564 107.451 70.3989 107.984 70.489L113.719 71.4647L112.586 65.6618C112.482 65.1321 112.827 64.6175 113.359 64.514C113.89 64.4105 114.403 64.7563 114.506 65.2868L116.182 73.8685L107.657 72.4185C107.455 72.3835 107.28 72.2911 107.143 72.1599Z" fill="#304BA6"/>
</g>
<defs>
<clipPath id="clip0_149_669">
<rect width="97.8078" height="97.8078" fill="white" transform="translate(67.6484) rotate(43.7592)"/>
</clipPath>
</defs>
</svg>
