<svg width="44" height="44" viewBox="0 0 44 44" fill="none" xmlns="http://www.w3.org/2000/svg">
<path d="M27.4156 18.5612H10.2969V13.35C10.2667 11.3111 10.9756 9.33016 12.2924 7.77324C13.6092 6.21632 15.445 5.1886 17.4606 4.87996C19.618 4.59386 21.801 5.17175 23.5342 6.48776C25.2674 7.80378 26.4105 9.75131 26.7144 11.9062C26.7671 12.2316 26.9349 12.5272 27.1873 12.7392C27.4397 12.9512 27.7598 13.0655 28.0894 13.0612C28.2873 13.0632 28.4834 13.0223 28.6641 12.9415C28.8449 12.8607 29.006 12.7418 29.1366 12.593C29.2672 12.4442 29.364 12.2689 29.4206 12.0792C29.4772 11.8894 29.4921 11.6897 29.4644 11.4937C29.0684 8.74564 27.6479 6.24896 25.4878 4.50459C23.3278 2.76023 20.588 1.89721 17.8181 2.08871C14.9883 2.335 12.3565 3.64286 10.4512 5.74961C8.54598 7.85636 7.5084 10.606 7.54687 13.4462V18.9462C6.34113 19.381 5.29845 20.1764 4.56045 21.2243C3.82246 22.2723 3.42493 23.522 3.42188 24.8037V37.1237C3.43981 38.7616 4.09935 40.327 5.25883 41.4839C6.41831 42.6409 7.98525 43.2969 9.62313 43.3112H27.4156C29.063 43.3113 30.644 42.6616 31.8153 41.5032C32.9866 40.3447 33.6538 38.771 33.6719 37.1237V24.8862C33.681 24.0589 33.5259 23.2379 33.2155 22.4709C32.9052 21.7039 32.4458 21.0061 31.8639 20.4179C31.2821 19.8296 30.5893 19.3626 29.8258 19.0439C29.0622 18.7252 28.243 18.5612 27.4156 18.5612ZM18.5469 28.1862C19.0908 28.1862 19.6225 28.3475 20.0747 28.6497C20.5269 28.9518 20.8794 29.3813 21.0875 29.8838C21.2957 30.3863 21.3501 30.9393 21.244 31.4727C21.1379 32.0062 20.876 32.4962 20.4914 32.8808C20.1068 33.2654 19.6168 33.5273 19.0834 33.6334C18.5499 33.7395 17.997 33.685 17.4945 33.4769C16.992 33.2687 16.5625 32.9163 16.2603 32.464C15.9582 32.0118 15.7969 31.4801 15.7969 30.9362C15.7969 30.2069 16.0866 29.5074 16.6023 28.9917C17.1181 28.4759 17.8175 28.1862 18.5469 28.1862Z" fill="#304BA6"/>
<path d="M35.3373 14.5582L38.0873 14.022C38.2679 13.9868 38.4397 13.9164 38.5931 13.8147C38.7464 13.7131 38.8782 13.5822 38.981 13.4297C39.0838 13.2771 39.1555 13.1058 39.1921 12.9255C39.2287 12.7452 39.2294 12.5594 39.1942 12.3789C39.159 12.1983 39.0885 12.0264 38.9869 11.8731C38.8853 11.7197 38.7544 11.5879 38.6018 11.4851C38.4493 11.3823 38.2779 11.3106 38.0976 11.2741C37.9173 11.2375 37.7316 11.2368 37.551 11.272L34.801 11.8082C34.6228 11.8428 34.4532 11.9122 34.302 12.0126C34.1508 12.113 34.0209 12.2424 33.9199 12.3932C33.8189 12.544 33.7488 12.7134 33.7136 12.8915C33.6784 13.0695 33.6788 13.2528 33.7148 13.4307C33.7445 13.6127 33.8105 13.7867 33.9088 13.9426C34.0071 14.0985 34.1358 14.2331 34.2872 14.3382C34.4385 14.4434 34.6095 14.5171 34.7899 14.5549C34.9703 14.5927 35.1564 14.5938 35.3373 14.5582Z" fill="#304BA6"/>
<path d="M34.0446 9.95278L36.3546 8.46778C36.5167 8.37528 36.6584 8.25072 36.7708 8.10169C36.8833 7.95267 36.9642 7.78231 37.0087 7.60099C37.0532 7.41967 37.0603 7.23119 37.0295 7.04704C36.9988 6.8629 36.9309 6.68694 36.8299 6.5299C36.729 6.37285 36.5971 6.23801 36.4423 6.1336C36.2875 6.02918 36.1131 5.95738 35.9297 5.92256C35.7463 5.88774 35.5577 5.89064 35.3754 5.93108C35.1932 5.97152 35.0211 6.04866 34.8696 6.15778L32.5596 7.64278C32.2739 7.84857 32.0781 8.15611 32.0124 8.50201C31.9467 8.84791 32.0163 9.20582 32.2067 9.50198C32.3971 9.79814 32.6938 10.01 33.0357 10.0939C33.3777 10.1777 33.7388 10.1272 34.0446 9.95278Z" fill="#304BA6"/>
<path d="M38.0733 17.1046L35.3233 16.6233C34.9661 16.559 34.598 16.6386 34.2992 16.8447C34.0004 17.0507 33.7952 17.3666 33.7283 17.7233C33.6967 17.9012 33.7003 18.0835 33.7392 18.26C33.778 18.4364 33.8512 18.6035 33.9547 18.7516C34.0581 18.8997 34.1897 19.026 34.342 19.1233C34.4943 19.2205 34.6642 19.2868 34.8421 19.3183L37.5921 19.8133C37.771 19.847 37.9547 19.8448 38.1328 19.8069C38.3108 19.769 38.4795 19.6962 38.6292 19.5926C38.7788 19.489 38.9064 19.3567 39.0045 19.2034C39.1027 19.0501 39.1694 18.8788 39.2008 18.6996C39.2324 18.5207 39.2282 18.3374 39.1885 18.1602C39.1488 17.9829 39.0744 17.8154 38.9695 17.6671C38.8647 17.5188 38.7315 17.3927 38.5777 17.2961C38.4239 17.1996 38.2525 17.1345 38.0733 17.1046Z" fill="#304BA6"/>
</svg>
