<svg width="48" height="48" viewBox="0 0 48 48" fill="none" xmlns="http://www.w3.org/2000/svg">
<path d="M43.5 36C42.6709 36 42 35.3284 42 34.5V6H13.5C12.6716 6 12 5.32837 12 4.5C12 3.67163 12.6716 3 13.5 3H43.5C44.3291 3 45 3.67163 45 4.5V34.5C45 35.3284 44.3291 36 43.5 36Z" fill="white"/>
<path d="M39 40.5C38.1709 40.5 37.5 39.8284 37.5 39V10.5H9C8.17163 10.5 7.5 9.82837 7.5 9C7.5 8.17163 8.17163 7.5 9 7.5H39C39.8291 7.5 40.5 8.17163 40.5 9V39C40.5 39.8284 39.8291 40.5 39 40.5Z" fill="white"/>
<path d="M34.5 12H26.5605L23.4976 15.063C22.6187 15.9419 21.5317 16.6135 20.3533 17.0061C20.0966 17.0917 19.863 17.2177 19.6224 17.3318C20.5204 19.1663 21 21.208 21 23.25C21 23.6646 20.6646 24 20.25 24C19.8354 24 19.5 23.6646 19.5 23.25C19.5 21.485 19.0904 19.722 18.3335 18.1262C17.6077 18.7089 16.998 19.4312 16.5696 20.2881L16.4209 20.5854C16.2891 20.8484 16.0247 21 15.7493 21C15.6365 21 15.5222 20.9744 15.4146 20.9209C15.0439 20.7356 14.8938 20.2852 15.0791 19.9146L15.2278 19.6172C16.188 17.696 17.8403 16.2627 19.8794 15.583C20.8381 15.2637 21.7222 14.7173 22.437 14.0024L24.4395 12H9V16.0459C9 17.9344 8.44894 19.7613 7.4165 21.3409C9.2742 23.159 11.5464 24.5583 14.012 25.3806L14.4866 25.5381C14.8799 25.6692 15.0923 26.094 14.9619 26.4866C14.8572 26.8015 14.5642 27 14.25 27C14.1716 27 14.0918 26.9875 14.0134 26.9619L13.5381 26.8037C10.9937 25.9554 8.65054 24.5292 6.69058 22.6989C6.24518 23.7224 6 24.8234 6 25.9541V27.75C6 28.1646 5.66455 28.5 5.25 28.5C4.83545 28.5 4.5 28.1646 4.5 27.75V25.9541C4.5 24.0366 5.0625 22.1799 6.12598 20.584C7.02466 19.2356 7.5 17.666 7.5 16.0459V12H4.5C3.67163 12 3 12.6716 3 13.5V43.5C3 44.3284 3.67163 45 4.5 45H13.9395L11.7803 42.8408C10.9666 42.0271 10.5 40.9006 10.5 39.75C10.5 38.9941 10.1938 38.2544 9.65918 37.7197L7.71973 35.7803C7.42676 35.4873 7.42676 35.0127 7.71973 34.7197C8.0127 34.4268 8.4873 34.4268 8.78027 34.7197L9.72418 35.6636C11.1931 33.947 12 31.7907 12 29.5071V29.25C12 28.8354 12.3354 28.5 12.75 28.5C13.1646 28.5 13.5 28.8354 13.5 29.25V29.5071C13.5 32.1944 12.5327 34.7279 10.7785 36.731C11.5518 37.5391 12 38.6305 12 39.75C12 40.5059 12.3062 41.2456 12.8408 41.7803L16.0605 45H19.6648L20.581 41.3364C20.7897 40.5 20.5407 39.6013 19.9313 38.9919C19.8765 38.9371 19.8304 38.8742 19.7768 38.8182C19.7588 38.8033 19.7366 38.7971 19.7197 38.7803C19.6891 38.7496 19.675 38.7106 19.6507 38.6764C18.5918 37.5316 17.7657 36.169 17.2733 34.6912L16.5387 32.4873C16.4076 32.094 16.62 31.6692 17.0126 31.5388C17.4074 31.4055 17.83 31.6194 17.9611 32.0127L18.6957 34.2166C19.0492 35.2766 19.5959 36.272 20.2936 37.1459L20.5986 36.8408C22.1082 35.3313 24.115 34.5 26.25 34.5C26.6646 34.5 27 34.8354 27 35.25C27 35.6646 26.6646 36 26.25 36C24.5156 36 22.8853 36.6753 21.6592 37.9014L21.2685 38.292C22.0237 39.2486 22.3346 40.5041 22.0363 41.6997L21.2104 45H31.2892L30.6167 42.3083C30.186 40.5886 30.6987 38.7407 31.9526 37.4875C32.6279 36.8115 33 35.9128 33 34.9578V32.25C33 31.8354 33.3354 31.5 33.75 31.5C34.1646 31.5 34.5 31.8354 34.5 32.25V34.9578C34.5 36.3135 33.9727 37.5886 33.0132 38.5481C32.1299 39.4314 31.7695 40.7329 32.0728 41.9443L32.836 45H34.5C35.3291 45 36 44.3284 36 43.5V13.5C36 12.6716 35.3291 12 34.5 12ZM27 21.1289C27 22.6978 26.3892 24.1721 25.2803 25.2803C24.4666 26.094 24 27.2205 24 28.3711V30.75C24 31.1646 23.6646 31.5 23.25 31.5C22.8354 31.5 22.5 31.1646 22.5 30.75V28.3711C22.5 26.8257 23.127 25.3125 24.2197 24.2197C25.0459 23.3943 25.5 22.2971 25.5 21.1289V18.75C25.5 18.3354 25.8354 18 26.25 18C26.6646 18 27 18.3354 27 18.75V21.1289ZM34.4209 28.0854C34.2891 28.3484 34.0239 28.5 33.75 28.5C33.6372 28.5 33.5229 28.4744 33.4146 28.4209L32.3115 27.8694C31.6935 27.5604 31.1086 27.1973 30.5469 26.8022C29.8134 28.426 29.825 30.3156 30.6251 31.9146C30.8097 32.2852 30.6603 32.7356 30.2897 32.9209C30.1827 32.9744 30.067 33 29.9542 33C29.6803 33 29.4152 32.8484 29.2833 32.5854C28.2389 30.4973 28.2389 28.0027 29.2833 25.9146C29.3016 25.8779 29.3328 25.8541 29.356 25.822C29.1473 25.637 28.9177 25.4783 28.7197 25.2803C28.4268 24.9873 28.4268 24.5127 28.7197 24.2197C29.0127 23.9268 29.4873 23.9268 29.7803 24.2197C30.7192 25.158 31.7959 25.9343 32.9824 26.5276L34.0854 27.0791C34.4561 27.2644 34.6055 27.7148 34.4209 28.0854Z" fill="white"/>
</svg>
