<svg width="48" height="48" viewBox="0 0 48 48" fill="none" xmlns="http://www.w3.org/2000/svg">
<g clip-path="url(#clip0_149_559)">
<path d="M14.9364 42.9881V45.8691H4.99703C4.39141 45.8691 3.89453 45.375 3.89453 44.7684V40.8562C3.89453 37.9809 5.81828 35.5331 8.44141 34.7362L11.0561 39.2644C11.1358 39.405 11.2736 39.4847 11.4358 39.4847C11.5952 39.4847 11.733 39.405 11.8155 39.2644L14.4302 34.7362C15.7352 35.1319 16.8695 35.94 17.6777 37.0059C16.0023 38.4628 14.9364 40.6069 14.9364 42.9881ZM39.5608 34.7372L36.9461 39.2653C36.8664 39.4059 36.7286 39.4856 36.5664 39.4856C36.407 39.4856 36.2692 39.4059 36.1867 39.2653L33.572 34.7372C32.267 35.1328 31.1327 35.9409 30.3245 37.0069C32.0017 38.4628 33.0667 40.6078 33.0667 42.9891V45.87H43.0061C43.6117 45.87 44.1086 45.3759 44.1086 44.7694V40.8572C44.1077 37.9819 42.1839 35.5341 39.5608 34.7372ZM32.298 28.0716C32.298 30.4209 34.217 32.3391 36.5655 32.3391C38.9177 32.3391 40.833 30.42 40.833 28.0716C40.833 25.7194 38.9167 23.8041 36.5655 23.8041C34.2161 23.8041 32.298 25.7203 32.298 28.0716ZM11.4367 32.34C13.7861 32.34 15.7042 30.4209 15.7042 28.0725C15.7042 25.7203 13.7852 23.805 11.4367 23.805C9.08453 23.805 7.16922 25.7213 7.16922 28.0725C7.16828 30.4209 9.08453 32.34 11.4367 32.34ZM26.9964 36.8681L24.3817 41.3991C24.302 41.5369 24.1642 41.6166 24.002 41.6166C23.8398 41.6166 23.702 41.5369 23.6223 41.3991L21.0077 36.8681C18.3845 37.6678 16.4636 40.1156 16.4636 42.9881V46.9003C16.4636 47.5059 16.9577 48.0028 17.5642 48.0028H30.4427C31.0483 48.0028 31.5433 47.5059 31.5433 46.9003V42.9881C31.5405 40.1156 29.6186 37.6678 26.9964 36.8681ZM24.0011 25.935C21.6517 25.935 19.7336 27.8541 19.7336 30.2025C19.7336 32.5547 21.6527 34.47 24.0011 34.47C26.3533 34.47 28.2686 32.5537 28.2686 30.2025C28.2686 27.8541 26.3533 25.935 24.0011 25.935ZM15.9358 13.8009L19.7092 16.53C19.9933 16.7372 20.1048 17.0878 19.9961 17.4206L18.5505 21.8456C18.4417 22.1803 18.5561 22.5281 18.8373 22.7362C19.1214 22.9406 19.488 22.9406 19.773 22.7334L23.5333 19.9913C23.8173 19.7841 24.1839 19.7841 24.4689 19.9913L28.2292 22.7334C28.5133 22.9406 28.8798 22.9406 29.1648 22.7362C29.4489 22.5291 29.5605 22.1812 29.4517 21.8456L28.0061 17.4206C27.8973 17.0888 28.0117 16.7372 28.2958 16.53L32.0664 13.8009C32.3505 13.5966 32.462 13.2478 32.3561 12.9131C32.2473 12.5813 31.9492 12.3656 31.5986 12.3656L26.943 12.3731C26.5923 12.3731 26.2942 12.1575 26.1855 11.8228L24.7558 7.39312C24.6498 7.06125 24.3517 6.84281 24.0011 6.84281C23.6505 6.84281 23.3523 7.06031 23.2464 7.39312L21.8167 11.8237C21.708 12.1584 21.4098 12.3741 21.0592 12.3741L16.4036 12.3666C16.053 12.3666 15.7548 12.5822 15.6461 12.9141C15.5392 13.2487 15.6536 13.5966 15.9358 13.8009ZM24.0011 4.545C24.4211 4.545 24.7642 4.20188 24.7642 3.78188V0.763125C24.7642 0.343125 24.4211 0 24.0011 0C23.5811 0 23.238 0.343125 23.238 0.763125V3.78188C23.238 4.20188 23.5811 4.545 24.0011 4.545ZM29.1648 5.92406C29.5286 6.13406 29.9936 6.00938 30.2017 5.64469L31.7111 3.03C31.9211 2.66812 31.7936 2.20312 31.4317 1.99594C31.068 1.78594 30.6048 1.91062 30.3948 2.27531L28.8855 4.88719C28.6783 5.25187 28.803 5.71688 29.1648 5.92406ZM33.9798 9.9825L36.5917 8.47312C36.9555 8.26312 37.0811 7.80094 36.873 7.43625C36.663 7.07531 36.198 6.94687 35.8361 7.15687L33.2214 8.66625C32.8577 8.87344 32.732 9.33844 32.942 9.70312C33.1511 10.065 33.6161 10.1925 33.9798 9.9825ZM17.8014 5.64844C18.0114 6.01219 18.4764 6.135 18.8402 5.925C19.202 5.715 19.3267 5.25 19.1167 4.88625L17.6073 2.27437C17.3973 1.91062 16.9323 1.785 16.5686 1.99781C16.2048 2.20781 16.082 2.67281 16.292 3.03469L17.8014 5.64844ZM11.4095 8.47312L14.0214 9.9825C14.3852 10.1925 14.8502 10.065 15.0583 9.70312C15.2683 9.33937 15.1436 8.87437 14.7789 8.66625L12.1642 7.15687C11.8023 6.94687 11.3373 7.07438 11.1273 7.43625C10.9211 7.80094 11.0458 8.26312 11.4095 8.47312Z" fill="white"/>
</g>
<defs>
<clipPath id="clip0_149_559">
<rect width="48" height="48" fill="white"/>
</clipPath>
</defs>
</svg>
