<svg width="32" height="32" viewBox="0 0 32 32" fill="none" xmlns="http://www.w3.org/2000/svg">
<path d="M7.9987 2.05589C8.46536 3.08256 8.77203 4.18922 8.9187 5.33589C8.21203 4.16256 7.09203 3.25589 5.74536 2.82922C6.41203 3.93589 6.8787 5.16256 7.14536 6.45589C5.9987 7.50922 5.33203 8.98922 5.33203 10.6692C5.33203 13.8026 7.89203 16.3626 11.052 16.3626C11.5054 16.3626 11.9454 16.3092 12.3587 16.2159C12.1187 20.9626 9.8387 25.1892 6.38536 28.0026C7.22536 28.4959 8.21203 28.7759 9.25203 28.7759C11.2387 28.7759 12.9987 27.7759 13.9987 26.2292C13.9987 27.1759 13.732 28.0559 13.332 28.8292L13.372 28.8292C16.1454 28.8292 18.4654 26.8559 18.9854 24.2426C19.215 25.0816 19.2469 25.9624 19.0787 26.8159C20.2153 26.4537 21.2099 25.7445 21.9226 24.7879C22.6353 23.8312 23.0303 22.6753 23.052 21.4826C24.6526 23.5044 25.5178 26.0106 25.5054 28.5892C25.5054 29.0426 25.4787 29.4959 25.4254 29.9492C27.052 27.4159 27.9987 24.4026 27.9987 21.1759C27.9987 10.6692 19.2787 4.89588 11.7187 4.89589C11.4654 4.89589 11.2254 4.89589 10.972 4.90922C10.172 3.78922 9.1587 2.82922 7.9987 2.05589Z" fill="#464036"/>
</svg>
