<svg width="14" height="8" viewBox="0 0 14 8" fill="none" xmlns="http://www.w3.org/2000/svg">
<g clip-path="url(#clip0_149_491)">
<path d="M10.9375 4.375H3.0625C2.8175 4.375 2.625 4.1825 2.625 3.9375C2.625 3.6925 2.8175 3.5 3.0625 3.5H10.9375C11.1825 3.5 11.375 3.6925 11.375 3.9375C11.375 4.1825 11.1825 4.375 10.9375 4.375Z" fill="white"/>
<path d="M8.75 7.43938C8.69262 7.44007 8.63573 7.42876 8.58299 7.40615C8.53024 7.38355 8.48282 7.35016 8.44375 7.30813C8.26875 7.13313 8.26875 6.86188 8.44375 6.68687L11.2 3.93062L8.44375 1.17437C8.26875 0.999375 8.26875 0.728125 8.44375 0.553125C8.61875 0.378125 8.89 0.378125 9.065 0.553125L12.1275 3.61563C12.3025 3.79063 12.3025 4.06188 12.1275 4.23688L9.065 7.29938C8.9775 7.38688 8.86375 7.43062 8.75875 7.43062L8.75 7.43938Z" fill="white"/>
</g>
<defs>
<clipPath id="clip0_149_491">
<rect width="14" height="7.875" fill="white"/>
</clipPath>
</defs>
</svg>
