<svg width="1918" height="1890" viewBox="0 0 1918 1890" fill="none" xmlns="http://www.w3.org/2000/svg">
<g opacity="0.15">
<line x1="69.5" y1="2.18557e-08" x2="69.5" y2="981" stroke="url(#paint0_linear_149_200)"/>
<line x1="139.5" y1="2.18557e-08" x2="139.5" y2="981" stroke="url(#paint1_linear_149_200)"/>
<line x1="209.5" y1="2.18557e-08" x2="209.5" y2="981" stroke="url(#paint2_linear_149_200)"/>
<line x1="279.5" y1="2.18557e-08" x2="279.5" y2="981" stroke="url(#paint3_linear_149_200)"/>
<line x1="349.5" y1="2.18557e-08" x2="349.5" y2="981" stroke="url(#paint4_linear_149_200)"/>
<line x1="419.5" y1="2.18557e-08" x2="419.5" y2="981" stroke="url(#paint5_linear_149_200)"/>
<line x1="489.5" y1="2.18557e-08" x2="489.5" y2="981" stroke="url(#paint6_linear_149_200)"/>
<line x1="559.5" y1="2.18557e-08" x2="559.5" y2="981" stroke="url(#paint7_linear_149_200)"/>
<line x1="629.5" y1="2.18557e-08" x2="629.5" y2="981" stroke="url(#paint8_linear_149_200)"/>
<line x1="699.5" y1="2.18557e-08" x2="699.5" y2="981" stroke="url(#paint9_linear_149_200)"/>
<line x1="769.5" y1="2.18557e-08" x2="769.5" y2="981" stroke="url(#paint10_linear_149_200)"/>
<line x1="839.5" y1="2.18557e-08" x2="839.5" y2="981" stroke="url(#paint11_linear_149_200)"/>
<line x1="909.5" y1="2.18557e-08" x2="909.5" y2="981" stroke="url(#paint12_linear_149_200)"/>
<line x1="979.5" y1="2.18557e-08" x2="979.5" y2="981" stroke="url(#paint13_linear_149_200)"/>
<line x1="1049.5" y1="2.18557e-08" x2="1049.5" y2="981" stroke="url(#paint14_linear_149_200)"/>
<line x1="1119.5" y1="2.18557e-08" x2="1119.5" y2="981" stroke="url(#paint15_linear_149_200)"/>
<line x1="1189.5" y1="2.18557e-08" x2="1189.5" y2="981" stroke="url(#paint16_linear_149_200)"/>
<line x1="1259.5" y1="2.18557e-08" x2="1259.5" y2="981" stroke="url(#paint17_linear_149_200)"/>
<line x1="1329.5" y1="2.18557e-08" x2="1329.5" y2="981" stroke="url(#paint18_linear_149_200)"/>
<line x1="1399.5" y1="2.18557e-08" x2="1399.5" y2="981" stroke="url(#paint19_linear_149_200)"/>
<line x1="1469.5" y1="2.18557e-08" x2="1469.5" y2="981" stroke="url(#paint20_linear_149_200)"/>
<line x1="1539.5" y1="2.18557e-08" x2="1539.5" y2="981" stroke="url(#paint21_linear_149_200)"/>
<line x1="1609.5" y1="2.18557e-08" x2="1609.5" y2="981" stroke="url(#paint22_linear_149_200)"/>
<line x1="1679.5" y1="2.18557e-08" x2="1679.5" y2="981" stroke="url(#paint23_linear_149_200)"/>
<line x1="1749.5" y1="2.18557e-08" x2="1749.5" y2="981" stroke="url(#paint24_linear_149_200)"/>
<line x1="1819.5" y1="2.18557e-08" x2="1819.5" y2="981" stroke="url(#paint25_linear_149_200)"/>
<line x1="1889.5" y1="2.18557e-08" x2="1889.5" y2="981" stroke="url(#paint26_linear_149_200)"/>
<line x1="1918" y1="69.5002" x2="-4.37115e-08" y2="69.5001" stroke="url(#paint27_linear_149_200)"/>
<line x1="1918" y1="139.5" x2="-4.37115e-08" y2="139.5" stroke="url(#paint28_linear_149_200)"/>
<line x1="1918" y1="209.5" x2="-4.37115e-08" y2="209.5" stroke="url(#paint29_linear_149_200)"/>
<line x1="1918" y1="279.5" x2="-4.37115e-08" y2="279.5" stroke="url(#paint30_linear_149_200)"/>
<line x1="1918" y1="349.5" x2="-4.37115e-08" y2="349.5" stroke="url(#paint31_linear_149_200)"/>
<line x1="1918" y1="419.5" x2="-4.37115e-08" y2="419.5" stroke="url(#paint32_linear_149_200)"/>
<line x1="1918" y1="489.5" x2="-4.37115e-08" y2="489.5" stroke="url(#paint33_linear_149_200)"/>
<line x1="1918" y1="559.5" x2="-4.37115e-08" y2="559.5" stroke="url(#paint34_linear_149_200)"/>
<line x1="1918" y1="629.5" x2="-4.37115e-08" y2="629.5" stroke="url(#paint35_linear_149_200)"/>
<line x1="1918" y1="699.5" x2="-4.37115e-08" y2="699.5" stroke="url(#paint36_linear_149_200)"/>
<line x1="1918" y1="769.5" x2="-4.37115e-08" y2="769.5" stroke="url(#paint37_linear_149_200)"/>
<line x1="1918" y1="839.5" x2="-4.37115e-08" y2="839.5" stroke="url(#paint38_linear_149_200)"/>
<line x1="1918" y1="909.5" x2="-4.37115e-08" y2="909.5" stroke="url(#paint39_linear_149_200)"/>
</g>
<g opacity="0.15">
<line x1="69.5" y1="909" x2="69.5" y2="1890" stroke="url(#paint40_linear_149_200)"/>
<line x1="139.5" y1="909" x2="139.5" y2="1890" stroke="url(#paint41_linear_149_200)"/>
<line x1="209.5" y1="909" x2="209.5" y2="1890" stroke="url(#paint42_linear_149_200)"/>
<line x1="279.5" y1="909" x2="279.5" y2="1890" stroke="url(#paint43_linear_149_200)"/>
<line x1="349.5" y1="909" x2="349.5" y2="1890" stroke="url(#paint44_linear_149_200)"/>
<line x1="419.5" y1="909" x2="419.5" y2="1890" stroke="url(#paint45_linear_149_200)"/>
<line x1="489.5" y1="909" x2="489.5" y2="1890" stroke="url(#paint46_linear_149_200)"/>
<line x1="559.5" y1="909" x2="559.5" y2="1890" stroke="url(#paint47_linear_149_200)"/>
<line x1="629.5" y1="909" x2="629.5" y2="1890" stroke="url(#paint48_linear_149_200)"/>
<line x1="699.5" y1="909" x2="699.5" y2="1890" stroke="url(#paint49_linear_149_200)"/>
<line x1="769.5" y1="909" x2="769.5" y2="1890" stroke="url(#paint50_linear_149_200)"/>
<line x1="839.5" y1="909" x2="839.5" y2="1890" stroke="url(#paint51_linear_149_200)"/>
<line x1="909.5" y1="909" x2="909.5" y2="1890" stroke="url(#paint52_linear_149_200)"/>
<line x1="979.5" y1="909" x2="979.5" y2="1890" stroke="url(#paint53_linear_149_200)"/>
<line x1="1049.5" y1="909" x2="1049.5" y2="1890" stroke="url(#paint54_linear_149_200)"/>
<line x1="1119.5" y1="909" x2="1119.5" y2="1890" stroke="url(#paint55_linear_149_200)"/>
<line x1="1189.5" y1="909" x2="1189.5" y2="1890" stroke="url(#paint56_linear_149_200)"/>
<line x1="1259.5" y1="909" x2="1259.5" y2="1890" stroke="url(#paint57_linear_149_200)"/>
<line x1="1329.5" y1="909" x2="1329.5" y2="1890" stroke="url(#paint58_linear_149_200)"/>
<line x1="1399.5" y1="909" x2="1399.5" y2="1890" stroke="url(#paint59_linear_149_200)"/>
<line x1="1469.5" y1="909" x2="1469.5" y2="1890" stroke="url(#paint60_linear_149_200)"/>
<line x1="1539.5" y1="909" x2="1539.5" y2="1890" stroke="url(#paint61_linear_149_200)"/>
<line x1="1609.5" y1="909" x2="1609.5" y2="1890" stroke="url(#paint62_linear_149_200)"/>
<line x1="1679.5" y1="909" x2="1679.5" y2="1890" stroke="url(#paint63_linear_149_200)"/>
<line x1="1749.5" y1="909" x2="1749.5" y2="1890" stroke="url(#paint64_linear_149_200)"/>
<line x1="1819.5" y1="909" x2="1819.5" y2="1890" stroke="url(#paint65_linear_149_200)"/>
<line x1="1889.5" y1="909" x2="1889.5" y2="1890" stroke="url(#paint66_linear_149_200)"/>
<line x1="1918" y1="978.5" x2="-4.37115e-08" y2="978.5" stroke="url(#paint67_linear_149_200)"/>
<line x1="1918" y1="1048.5" x2="-4.37115e-08" y2="1048.5" stroke="url(#paint68_linear_149_200)"/>
<line x1="1918" y1="1118.5" x2="-4.37115e-08" y2="1118.5" stroke="url(#paint69_linear_149_200)"/>
<line x1="1918" y1="1188.5" x2="-4.37115e-08" y2="1188.5" stroke="url(#paint70_linear_149_200)"/>
<line x1="1918" y1="1258.5" x2="-4.37115e-08" y2="1258.5" stroke="url(#paint71_linear_149_200)"/>
<line x1="1918" y1="1328.5" x2="-4.37115e-08" y2="1328.5" stroke="url(#paint72_linear_149_200)"/>
<line x1="1918" y1="1398.5" x2="-4.37115e-08" y2="1398.5" stroke="url(#paint73_linear_149_200)"/>
<line x1="1918" y1="1468.5" x2="-4.37115e-08" y2="1468.5" stroke="url(#paint74_linear_149_200)"/>
<line x1="1918" y1="1538.5" x2="-4.37115e-08" y2="1538.5" stroke="url(#paint75_linear_149_200)"/>
<line x1="1918" y1="1608.5" x2="-4.37115e-08" y2="1608.5" stroke="url(#paint76_linear_149_200)"/>
<line x1="1918" y1="1678.5" x2="-4.37115e-08" y2="1678.5" stroke="url(#paint77_linear_149_200)"/>
<line x1="1918" y1="1748.5" x2="-4.37115e-08" y2="1748.5" stroke="url(#paint78_linear_149_200)"/>
<line x1="1918" y1="1818.5" x2="-4.37115e-08" y2="1818.5" stroke="url(#paint79_linear_149_200)"/>
</g>
<defs>
<linearGradient id="paint0_linear_149_200" x1="68.5" y1="-2.18557e-08" x2="68.5" y2="981" gradientUnits="userSpaceOnUse">
<stop stop-color="white"/>
<stop offset="0.502099" stop-color="#B2B2B2"/>
<stop offset="1" stop-color="white"/>
</linearGradient>
<linearGradient id="paint1_linear_149_200" x1="138.5" y1="-2.18557e-08" x2="138.5" y2="981" gradientUnits="userSpaceOnUse">
<stop stop-color="white"/>
<stop offset="0.502099" stop-color="#B2B2B2"/>
<stop offset="1" stop-color="white"/>
</linearGradient>
<linearGradient id="paint2_linear_149_200" x1="208.5" y1="-2.18557e-08" x2="208.5" y2="981" gradientUnits="userSpaceOnUse">
<stop stop-color="white"/>
<stop offset="0.502099" stop-color="#B2B2B2"/>
<stop offset="1" stop-color="white"/>
</linearGradient>
<linearGradient id="paint3_linear_149_200" x1="278.5" y1="-2.18557e-08" x2="278.5" y2="981" gradientUnits="userSpaceOnUse">
<stop stop-color="white"/>
<stop offset="0.502099" stop-color="#B2B2B2"/>
<stop offset="1" stop-color="white"/>
</linearGradient>
<linearGradient id="paint4_linear_149_200" x1="348.5" y1="-2.18557e-08" x2="348.5" y2="981" gradientUnits="userSpaceOnUse">
<stop stop-color="white"/>
<stop offset="0.502099" stop-color="#B2B2B2"/>
<stop offset="1" stop-color="white"/>
</linearGradient>
<linearGradient id="paint5_linear_149_200" x1="418.5" y1="-2.18557e-08" x2="418.5" y2="981" gradientUnits="userSpaceOnUse">
<stop stop-color="white"/>
<stop offset="0.502099" stop-color="#B2B2B2"/>
<stop offset="1" stop-color="white"/>
</linearGradient>
<linearGradient id="paint6_linear_149_200" x1="488.5" y1="-2.18557e-08" x2="488.5" y2="981" gradientUnits="userSpaceOnUse">
<stop stop-color="white"/>
<stop offset="0.502099" stop-color="#B2B2B2"/>
<stop offset="1" stop-color="white"/>
</linearGradient>
<linearGradient id="paint7_linear_149_200" x1="558.5" y1="-2.18557e-08" x2="558.5" y2="981" gradientUnits="userSpaceOnUse">
<stop stop-color="white"/>
<stop offset="0.502099" stop-color="#B2B2B2"/>
<stop offset="1" stop-color="white"/>
</linearGradient>
<linearGradient id="paint8_linear_149_200" x1="628.5" y1="-2.18557e-08" x2="628.5" y2="981" gradientUnits="userSpaceOnUse">
<stop stop-color="white"/>
<stop offset="0.502099" stop-color="#B2B2B2"/>
<stop offset="1" stop-color="white"/>
</linearGradient>
<linearGradient id="paint9_linear_149_200" x1="698.5" y1="-2.18557e-08" x2="698.5" y2="981" gradientUnits="userSpaceOnUse">
<stop stop-color="white"/>
<stop offset="0.502099" stop-color="#B2B2B2"/>
<stop offset="1" stop-color="white"/>
</linearGradient>
<linearGradient id="paint10_linear_149_200" x1="768.5" y1="-2.18557e-08" x2="768.5" y2="981" gradientUnits="userSpaceOnUse">
<stop stop-color="white"/>
<stop offset="0.502099" stop-color="#B2B2B2"/>
<stop offset="1" stop-color="white"/>
</linearGradient>
<linearGradient id="paint11_linear_149_200" x1="838.5" y1="-2.18557e-08" x2="838.5" y2="981" gradientUnits="userSpaceOnUse">
<stop stop-color="white"/>
<stop offset="0.502099" stop-color="#B2B2B2"/>
<stop offset="1" stop-color="white"/>
</linearGradient>
<linearGradient id="paint12_linear_149_200" x1="908.5" y1="-2.18557e-08" x2="908.5" y2="981" gradientUnits="userSpaceOnUse">
<stop stop-color="white"/>
<stop offset="0.502099" stop-color="#B2B2B2"/>
<stop offset="1" stop-color="white"/>
</linearGradient>
<linearGradient id="paint13_linear_149_200" x1="978.5" y1="-2.18557e-08" x2="978.5" y2="981" gradientUnits="userSpaceOnUse">
<stop stop-color="white"/>
<stop offset="0.502099" stop-color="#B2B2B2"/>
<stop offset="1" stop-color="white"/>
</linearGradient>
<linearGradient id="paint14_linear_149_200" x1="1048.5" y1="-2.18557e-08" x2="1048.5" y2="981" gradientUnits="userSpaceOnUse">
<stop stop-color="white"/>
<stop offset="0.502099" stop-color="#B2B2B2"/>
<stop offset="1" stop-color="white"/>
</linearGradient>
<linearGradient id="paint15_linear_149_200" x1="1118.5" y1="-2.18557e-08" x2="1118.5" y2="981" gradientUnits="userSpaceOnUse">
<stop stop-color="white"/>
<stop offset="0.502099" stop-color="#B2B2B2"/>
<stop offset="1" stop-color="white"/>
</linearGradient>
<linearGradient id="paint16_linear_149_200" x1="1188.5" y1="-2.18557e-08" x2="1188.5" y2="981" gradientUnits="userSpaceOnUse">
<stop stop-color="white"/>
<stop offset="0.502099" stop-color="#B2B2B2"/>
<stop offset="1" stop-color="white"/>
</linearGradient>
<linearGradient id="paint17_linear_149_200" x1="1258.5" y1="-2.18557e-08" x2="1258.5" y2="981" gradientUnits="userSpaceOnUse">
<stop stop-color="white"/>
<stop offset="0.502099" stop-color="#B2B2B2"/>
<stop offset="1" stop-color="white"/>
</linearGradient>
<linearGradient id="paint18_linear_149_200" x1="1328.5" y1="-2.18557e-08" x2="1328.5" y2="981" gradientUnits="userSpaceOnUse">
<stop stop-color="white"/>
<stop offset="0.502099" stop-color="#B2B2B2"/>
<stop offset="1" stop-color="white"/>
</linearGradient>
<linearGradient id="paint19_linear_149_200" x1="1398.5" y1="-2.18557e-08" x2="1398.5" y2="981" gradientUnits="userSpaceOnUse">
<stop stop-color="white"/>
<stop offset="0.502099" stop-color="#B2B2B2"/>
<stop offset="1" stop-color="white"/>
</linearGradient>
<linearGradient id="paint20_linear_149_200" x1="1468.5" y1="-2.18557e-08" x2="1468.5" y2="981" gradientUnits="userSpaceOnUse">
<stop stop-color="white"/>
<stop offset="0.502099" stop-color="#B2B2B2"/>
<stop offset="1" stop-color="white"/>
</linearGradient>
<linearGradient id="paint21_linear_149_200" x1="1538.5" y1="-2.18557e-08" x2="1538.5" y2="981" gradientUnits="userSpaceOnUse">
<stop stop-color="white"/>
<stop offset="0.502099" stop-color="#B2B2B2"/>
<stop offset="1" stop-color="white"/>
</linearGradient>
<linearGradient id="paint22_linear_149_200" x1="1608.5" y1="-2.18557e-08" x2="1608.5" y2="981" gradientUnits="userSpaceOnUse">
<stop stop-color="white"/>
<stop offset="0.502099" stop-color="#B2B2B2"/>
<stop offset="1" stop-color="white"/>
</linearGradient>
<linearGradient id="paint23_linear_149_200" x1="1678.5" y1="-2.18557e-08" x2="1678.5" y2="981" gradientUnits="userSpaceOnUse">
<stop stop-color="white"/>
<stop offset="0.502099" stop-color="#B2B2B2"/>
<stop offset="1" stop-color="white"/>
</linearGradient>
<linearGradient id="paint24_linear_149_200" x1="1748.5" y1="-2.18557e-08" x2="1748.5" y2="981" gradientUnits="userSpaceOnUse">
<stop stop-color="white"/>
<stop offset="0.502099" stop-color="#B2B2B2"/>
<stop offset="1" stop-color="white"/>
</linearGradient>
<linearGradient id="paint25_linear_149_200" x1="1818.5" y1="-2.18557e-08" x2="1818.5" y2="981" gradientUnits="userSpaceOnUse">
<stop stop-color="white"/>
<stop offset="0.502099" stop-color="#B2B2B2"/>
<stop offset="1" stop-color="white"/>
</linearGradient>
<linearGradient id="paint26_linear_149_200" x1="1888.5" y1="-2.18557e-08" x2="1888.5" y2="981" gradientUnits="userSpaceOnUse">
<stop stop-color="white"/>
<stop offset="0.502099" stop-color="#B2B2B2"/>
<stop offset="1" stop-color="white"/>
</linearGradient>
<linearGradient id="paint27_linear_149_200" x1="1918" y1="68.5002" x2="4.37115e-08" y2="68.5001" gradientUnits="userSpaceOnUse">
<stop stop-color="white"/>
<stop offset="0.502099" stop-color="#B2B2B2"/>
<stop offset="1" stop-color="white"/>
</linearGradient>
<linearGradient id="paint28_linear_149_200" x1="1918" y1="138.5" x2="4.37115e-08" y2="138.5" gradientUnits="userSpaceOnUse">
<stop stop-color="white"/>
<stop offset="0.502099" stop-color="#B2B2B2"/>
<stop offset="1" stop-color="white"/>
</linearGradient>
<linearGradient id="paint29_linear_149_200" x1="1918" y1="208.5" x2="4.37115e-08" y2="208.5" gradientUnits="userSpaceOnUse">
<stop stop-color="white"/>
<stop offset="0.502099" stop-color="#B2B2B2"/>
<stop offset="1" stop-color="white"/>
</linearGradient>
<linearGradient id="paint30_linear_149_200" x1="1918" y1="278.5" x2="4.37115e-08" y2="278.5" gradientUnits="userSpaceOnUse">
<stop stop-color="white"/>
<stop offset="0.502099" stop-color="#B2B2B2"/>
<stop offset="1" stop-color="white"/>
</linearGradient>
<linearGradient id="paint31_linear_149_200" x1="1918" y1="348.5" x2="4.37115e-08" y2="348.5" gradientUnits="userSpaceOnUse">
<stop stop-color="white"/>
<stop offset="0.502099" stop-color="#B2B2B2"/>
<stop offset="1" stop-color="white"/>
</linearGradient>
<linearGradient id="paint32_linear_149_200" x1="1918" y1="418.5" x2="4.37115e-08" y2="418.5" gradientUnits="userSpaceOnUse">
<stop stop-color="white"/>
<stop offset="0.502099" stop-color="#B2B2B2"/>
<stop offset="1" stop-color="white"/>
</linearGradient>
<linearGradient id="paint33_linear_149_200" x1="1918" y1="488.5" x2="4.37115e-08" y2="488.5" gradientUnits="userSpaceOnUse">
<stop stop-color="white"/>
<stop offset="0.502099" stop-color="#B2B2B2"/>
<stop offset="1" stop-color="white"/>
</linearGradient>
<linearGradient id="paint34_linear_149_200" x1="1918" y1="558.5" x2="4.37115e-08" y2="558.5" gradientUnits="userSpaceOnUse">
<stop stop-color="white"/>
<stop offset="0.502099" stop-color="#B2B2B2"/>
<stop offset="1" stop-color="white"/>
</linearGradient>
<linearGradient id="paint35_linear_149_200" x1="1918" y1="628.5" x2="4.37115e-08" y2="628.5" gradientUnits="userSpaceOnUse">
<stop stop-color="white"/>
<stop offset="0.502099" stop-color="#B2B2B2"/>
<stop offset="1" stop-color="white"/>
</linearGradient>
<linearGradient id="paint36_linear_149_200" x1="1918" y1="698.5" x2="4.37115e-08" y2="698.5" gradientUnits="userSpaceOnUse">
<stop stop-color="white"/>
<stop offset="0.502099" stop-color="#B2B2B2"/>
<stop offset="1" stop-color="white"/>
</linearGradient>
<linearGradient id="paint37_linear_149_200" x1="1918" y1="768.5" x2="4.37115e-08" y2="768.5" gradientUnits="userSpaceOnUse">
<stop stop-color="white"/>
<stop offset="0.502099" stop-color="#B2B2B2"/>
<stop offset="1" stop-color="white"/>
</linearGradient>
<linearGradient id="paint38_linear_149_200" x1="1918" y1="838.5" x2="4.37115e-08" y2="838.5" gradientUnits="userSpaceOnUse">
<stop stop-color="white"/>
<stop offset="0.502099" stop-color="#B2B2B2"/>
<stop offset="1" stop-color="white"/>
</linearGradient>
<linearGradient id="paint39_linear_149_200" x1="1918" y1="908.5" x2="4.37115e-08" y2="908.5" gradientUnits="userSpaceOnUse">
<stop stop-color="white"/>
<stop offset="0.502099" stop-color="#B2B2B2"/>
<stop offset="1" stop-color="white"/>
</linearGradient>
<linearGradient id="paint40_linear_149_200" x1="68.5" y1="909" x2="68.5" y2="1890" gradientUnits="userSpaceOnUse">
<stop stop-color="white"/>
<stop offset="0.502099" stop-color="#B2B2B2"/>
<stop offset="1" stop-color="white"/>
</linearGradient>
<linearGradient id="paint41_linear_149_200" x1="138.5" y1="909" x2="138.5" y2="1890" gradientUnits="userSpaceOnUse">
<stop stop-color="white"/>
<stop offset="0.502099" stop-color="#B2B2B2"/>
<stop offset="1" stop-color="white"/>
</linearGradient>
<linearGradient id="paint42_linear_149_200" x1="208.5" y1="909" x2="208.5" y2="1890" gradientUnits="userSpaceOnUse">
<stop stop-color="white"/>
<stop offset="0.502099" stop-color="#B2B2B2"/>
<stop offset="1" stop-color="white"/>
</linearGradient>
<linearGradient id="paint43_linear_149_200" x1="278.5" y1="909" x2="278.5" y2="1890" gradientUnits="userSpaceOnUse">
<stop stop-color="white"/>
<stop offset="0.502099" stop-color="#B2B2B2"/>
<stop offset="1" stop-color="white"/>
</linearGradient>
<linearGradient id="paint44_linear_149_200" x1="348.5" y1="909" x2="348.5" y2="1890" gradientUnits="userSpaceOnUse">
<stop stop-color="white"/>
<stop offset="0.502099" stop-color="#B2B2B2"/>
<stop offset="1" stop-color="white"/>
</linearGradient>
<linearGradient id="paint45_linear_149_200" x1="418.5" y1="909" x2="418.5" y2="1890" gradientUnits="userSpaceOnUse">
<stop stop-color="white"/>
<stop offset="0.502099" stop-color="#B2B2B2"/>
<stop offset="1" stop-color="white"/>
</linearGradient>
<linearGradient id="paint46_linear_149_200" x1="488.5" y1="909" x2="488.5" y2="1890" gradientUnits="userSpaceOnUse">
<stop stop-color="white"/>
<stop offset="0.502099" stop-color="#B2B2B2"/>
<stop offset="1" stop-color="white"/>
</linearGradient>
<linearGradient id="paint47_linear_149_200" x1="558.5" y1="909" x2="558.5" y2="1890" gradientUnits="userSpaceOnUse">
<stop stop-color="white"/>
<stop offset="0.502099" stop-color="#B2B2B2"/>
<stop offset="1" stop-color="white"/>
</linearGradient>
<linearGradient id="paint48_linear_149_200" x1="628.5" y1="909" x2="628.5" y2="1890" gradientUnits="userSpaceOnUse">
<stop stop-color="white"/>
<stop offset="0.502099" stop-color="#B2B2B2"/>
<stop offset="1" stop-color="white"/>
</linearGradient>
<linearGradient id="paint49_linear_149_200" x1="698.5" y1="909" x2="698.5" y2="1890" gradientUnits="userSpaceOnUse">
<stop stop-color="white"/>
<stop offset="0.502099" stop-color="#B2B2B2"/>
<stop offset="1" stop-color="white"/>
</linearGradient>
<linearGradient id="paint50_linear_149_200" x1="768.5" y1="909" x2="768.5" y2="1890" gradientUnits="userSpaceOnUse">
<stop stop-color="white"/>
<stop offset="0.502099" stop-color="#B2B2B2"/>
<stop offset="1" stop-color="white"/>
</linearGradient>
<linearGradient id="paint51_linear_149_200" x1="838.5" y1="909" x2="838.5" y2="1890" gradientUnits="userSpaceOnUse">
<stop stop-color="white"/>
<stop offset="0.502099" stop-color="#B2B2B2"/>
<stop offset="1" stop-color="white"/>
</linearGradient>
<linearGradient id="paint52_linear_149_200" x1="908.5" y1="909" x2="908.5" y2="1890" gradientUnits="userSpaceOnUse">
<stop stop-color="white"/>
<stop offset="0.502099" stop-color="#B2B2B2"/>
<stop offset="1" stop-color="white"/>
</linearGradient>
<linearGradient id="paint53_linear_149_200" x1="978.5" y1="909" x2="978.5" y2="1890" gradientUnits="userSpaceOnUse">
<stop stop-color="white"/>
<stop offset="0.502099" stop-color="#B2B2B2"/>
<stop offset="1" stop-color="white"/>
</linearGradient>
<linearGradient id="paint54_linear_149_200" x1="1048.5" y1="909" x2="1048.5" y2="1890" gradientUnits="userSpaceOnUse">
<stop stop-color="white"/>
<stop offset="0.502099" stop-color="#B2B2B2"/>
<stop offset="1" stop-color="white"/>
</linearGradient>
<linearGradient id="paint55_linear_149_200" x1="1118.5" y1="909" x2="1118.5" y2="1890" gradientUnits="userSpaceOnUse">
<stop stop-color="white"/>
<stop offset="0.502099" stop-color="#B2B2B2"/>
<stop offset="1" stop-color="white"/>
</linearGradient>
<linearGradient id="paint56_linear_149_200" x1="1188.5" y1="909" x2="1188.5" y2="1890" gradientUnits="userSpaceOnUse">
<stop stop-color="white"/>
<stop offset="0.502099" stop-color="#B2B2B2"/>
<stop offset="1" stop-color="white"/>
</linearGradient>
<linearGradient id="paint57_linear_149_200" x1="1258.5" y1="909" x2="1258.5" y2="1890" gradientUnits="userSpaceOnUse">
<stop stop-color="white"/>
<stop offset="0.502099" stop-color="#B2B2B2"/>
<stop offset="1" stop-color="white"/>
</linearGradient>
<linearGradient id="paint58_linear_149_200" x1="1328.5" y1="909" x2="1328.5" y2="1890" gradientUnits="userSpaceOnUse">
<stop stop-color="white"/>
<stop offset="0.502099" stop-color="#B2B2B2"/>
<stop offset="1" stop-color="white"/>
</linearGradient>
<linearGradient id="paint59_linear_149_200" x1="1398.5" y1="909" x2="1398.5" y2="1890" gradientUnits="userSpaceOnUse">
<stop stop-color="white"/>
<stop offset="0.502099" stop-color="#B2B2B2"/>
<stop offset="1" stop-color="white"/>
</linearGradient>
<linearGradient id="paint60_linear_149_200" x1="1468.5" y1="909" x2="1468.5" y2="1890" gradientUnits="userSpaceOnUse">
<stop stop-color="white"/>
<stop offset="0.502099" stop-color="#B2B2B2"/>
<stop offset="1" stop-color="white"/>
</linearGradient>
<linearGradient id="paint61_linear_149_200" x1="1538.5" y1="909" x2="1538.5" y2="1890" gradientUnits="userSpaceOnUse">
<stop stop-color="white"/>
<stop offset="0.502099" stop-color="#B2B2B2"/>
<stop offset="1" stop-color="white"/>
</linearGradient>
<linearGradient id="paint62_linear_149_200" x1="1608.5" y1="909" x2="1608.5" y2="1890" gradientUnits="userSpaceOnUse">
<stop stop-color="white"/>
<stop offset="0.502099" stop-color="#B2B2B2"/>
<stop offset="1" stop-color="white"/>
</linearGradient>
<linearGradient id="paint63_linear_149_200" x1="1678.5" y1="909" x2="1678.5" y2="1890" gradientUnits="userSpaceOnUse">
<stop stop-color="white"/>
<stop offset="0.502099" stop-color="#B2B2B2"/>
<stop offset="1" stop-color="white"/>
</linearGradient>
<linearGradient id="paint64_linear_149_200" x1="1748.5" y1="909" x2="1748.5" y2="1890" gradientUnits="userSpaceOnUse">
<stop stop-color="white"/>
<stop offset="0.502099" stop-color="#B2B2B2"/>
<stop offset="1" stop-color="white"/>
</linearGradient>
<linearGradient id="paint65_linear_149_200" x1="1818.5" y1="909" x2="1818.5" y2="1890" gradientUnits="userSpaceOnUse">
<stop stop-color="white"/>
<stop offset="0.502099" stop-color="#B2B2B2"/>
<stop offset="1" stop-color="white"/>
</linearGradient>
<linearGradient id="paint66_linear_149_200" x1="1888.5" y1="909" x2="1888.5" y2="1890" gradientUnits="userSpaceOnUse">
<stop stop-color="white"/>
<stop offset="0.502099" stop-color="#B2B2B2"/>
<stop offset="1" stop-color="white"/>
</linearGradient>
<linearGradient id="paint67_linear_149_200" x1="1918" y1="977.5" x2="4.37115e-08" y2="977.5" gradientUnits="userSpaceOnUse">
<stop stop-color="white"/>
<stop offset="0.502099" stop-color="#B2B2B2"/>
<stop offset="1" stop-color="white"/>
</linearGradient>
<linearGradient id="paint68_linear_149_200" x1="1918" y1="1047.5" x2="4.37115e-08" y2="1047.5" gradientUnits="userSpaceOnUse">
<stop stop-color="white"/>
<stop offset="0.502099" stop-color="#B2B2B2"/>
<stop offset="1" stop-color="white"/>
</linearGradient>
<linearGradient id="paint69_linear_149_200" x1="1918" y1="1117.5" x2="4.37115e-08" y2="1117.5" gradientUnits="userSpaceOnUse">
<stop stop-color="white"/>
<stop offset="0.502099" stop-color="#B2B2B2"/>
<stop offset="1" stop-color="white"/>
</linearGradient>
<linearGradient id="paint70_linear_149_200" x1="1918" y1="1187.5" x2="4.37115e-08" y2="1187.5" gradientUnits="userSpaceOnUse">
<stop stop-color="white"/>
<stop offset="0.502099" stop-color="#B2B2B2"/>
<stop offset="1" stop-color="white"/>
</linearGradient>
<linearGradient id="paint71_linear_149_200" x1="1918" y1="1257.5" x2="4.37115e-08" y2="1257.5" gradientUnits="userSpaceOnUse">
<stop stop-color="white"/>
<stop offset="0.502099" stop-color="#B2B2B2"/>
<stop offset="1" stop-color="white"/>
</linearGradient>
<linearGradient id="paint72_linear_149_200" x1="1918" y1="1327.5" x2="4.37115e-08" y2="1327.5" gradientUnits="userSpaceOnUse">
<stop stop-color="white"/>
<stop offset="0.502099" stop-color="#B2B2B2"/>
<stop offset="1" stop-color="white"/>
</linearGradient>
<linearGradient id="paint73_linear_149_200" x1="1918" y1="1397.5" x2="4.37115e-08" y2="1397.5" gradientUnits="userSpaceOnUse">
<stop stop-color="white"/>
<stop offset="0.502099" stop-color="#B2B2B2"/>
<stop offset="1" stop-color="white"/>
</linearGradient>
<linearGradient id="paint74_linear_149_200" x1="1918" y1="1467.5" x2="4.37115e-08" y2="1467.5" gradientUnits="userSpaceOnUse">
<stop stop-color="white"/>
<stop offset="0.502099" stop-color="#B2B2B2"/>
<stop offset="1" stop-color="white"/>
</linearGradient>
<linearGradient id="paint75_linear_149_200" x1="1918" y1="1537.5" x2="4.37115e-08" y2="1537.5" gradientUnits="userSpaceOnUse">
<stop stop-color="white"/>
<stop offset="0.502099" stop-color="#B2B2B2"/>
<stop offset="1" stop-color="white"/>
</linearGradient>
<linearGradient id="paint76_linear_149_200" x1="1918" y1="1607.5" x2="4.37115e-08" y2="1607.5" gradientUnits="userSpaceOnUse">
<stop stop-color="white"/>
<stop offset="0.502099" stop-color="#B2B2B2"/>
<stop offset="1" stop-color="white"/>
</linearGradient>
<linearGradient id="paint77_linear_149_200" x1="1918" y1="1677.5" x2="4.37115e-08" y2="1677.5" gradientUnits="userSpaceOnUse">
<stop stop-color="white"/>
<stop offset="0.502099" stop-color="#B2B2B2"/>
<stop offset="1" stop-color="white"/>
</linearGradient>
<linearGradient id="paint78_linear_149_200" x1="1918" y1="1747.5" x2="4.37115e-08" y2="1747.5" gradientUnits="userSpaceOnUse">
<stop stop-color="white"/>
<stop offset="0.502099" stop-color="#B2B2B2"/>
<stop offset="1" stop-color="white"/>
</linearGradient>
<linearGradient id="paint79_linear_149_200" x1="1918" y1="1817.5" x2="4.37115e-08" y2="1817.5" gradientUnits="userSpaceOnUse">
<stop stop-color="white"/>
<stop offset="0.502099" stop-color="#B2B2B2"/>
<stop offset="1" stop-color="white"/>
</linearGradient>
</defs>
</svg>
