<svg width="64" height="64" viewBox="0 0 64 64" fill="none" xmlns="http://www.w3.org/2000/svg">
<path d="M51.7594 6.77051C48.2444 6.77051 45.3779 9.63697 45.3779 13.1625C45.3779 14.6271 45.8801 15.9767 46.7065 17.0542L39.1742 24.461C37.469 22.8499 35.1779 21.856 32.6462 21.856C30.6062 21.856 28.7127 22.5151 27.1539 23.6136L23.9318 20.0776C24.4025 19.3557 24.685 18.4874 24.685 17.5564C24.685 14.9933 22.6136 12.9219 20.0505 12.9219C17.4979 12.9219 15.4265 14.9933 15.4265 17.5564C15.4265 20.109 17.4979 22.1804 20.0505 22.1804C20.9188 22.1804 21.7244 21.9293 22.4148 21.5108L25.5951 24.9945C24.0678 26.6788 23.1262 28.9176 23.1262 31.3656C23.1262 32.5687 23.3564 33.709 23.7644 34.7656L16.7238 40.645C15.6044 39.2536 13.8887 38.3644 11.9638 38.3644C8.59514 38.3748 5.84375 41.1157 5.84375 44.4948C5.84375 47.8634 8.59514 50.6044 11.9638 50.6044C15.3428 50.6044 18.0838 47.8634 18.0838 44.4948C18.0838 43.8044 17.9582 43.1348 17.749 42.5176L24.7478 36.68C26.4634 39.2222 29.3613 40.896 32.6462 40.896C34.8327 40.896 36.8413 40.1533 38.4524 38.9084L43.5158 44.1705C42.3336 45.5514 41.6118 47.3508 41.6118 49.3071C41.6118 53.6696 45.1687 57.216 49.5311 57.216C53.8936 57.216 57.4505 53.6696 57.4505 49.3071C57.4505 44.9447 53.8936 41.3877 49.5311 41.3877C47.8782 41.3877 46.3508 41.9004 45.0745 42.7687L39.9588 37.4647C41.3293 35.8117 42.1662 33.688 42.1662 31.376C42.1662 29.4093 41.5699 27.5785 40.5342 26.0511L48.2339 18.4874C49.2487 19.157 50.4518 19.5545 51.7594 19.5545C55.285 19.5545 58.1514 16.688 58.1514 13.1625C58.1514 9.63697 55.285 6.77051 51.7594 6.77051ZM32.6462 37.5588C29.2358 37.5588 26.4634 34.7865 26.4634 31.376C26.4634 27.9656 29.2358 25.1933 32.6462 25.1933C36.0567 25.1933 38.829 27.9656 38.829 31.376C38.829 34.7865 36.0567 37.5588 32.6462 37.5588Z" fill="white"/>
</svg>
