<svg id="Layer_1" height="300" viewBox="0 0 512 512" width="300" xmlns="http://www.w3.org/2000/svg" version="1.1" xmlns:xlink="http://www.w3.org/1999/xlink" xmlns:svgjs="http://svgjs.dev/svgjs"><g transform="matrix(1,0,0,1,0,0)"><g><path d="m247.736 457.435c1.862 2.733 4.956 4.369 8.264 4.369s6.401-1.636 8.264-4.369l109.549-160.775 3.693-5.409c25.28-36.981 47.113-68.919 47.113-122.633 0-92.976-75.642-168.618-168.619-168.618s-168.619 75.642-168.619 168.619c0 53.488 20.734 83.913 46.985 122.433zm8.264-437.435c81.949 0 148.619 66.67 148.619 148.619 0 47.531-18.299 74.298-43.624 111.346l-3.71 5.433-101.285 148.647-104.793-153.796-.313-.46c-25.261-37.067-43.513-63.849-43.513-111.169 0-81.95 66.67-148.62 148.619-148.62z" fill="#304ba6" fill-opacity="1" data-original-color="#000000ff" stroke="none" stroke-opacity="1"/><path d="m256 234.574c36.368 0 65.956-29.587 65.956-65.956s-29.588-65.955-65.956-65.955-65.956 29.588-65.956 65.956 29.588 65.955 65.956 65.955zm0-111.911c25.34 0 45.956 20.616 45.956 45.956s-20.616 45.956-45.956 45.956-45.956-20.616-45.956-45.956 20.616-45.956 45.956-45.956z" fill="#304ba6" fill-opacity="1" data-original-color="#000000ff" stroke="none" stroke-opacity="1"/><path d="m448.466 411.76c-19.23-8.263-46.546-15.194-78.992-20.042-5.459-.817-10.552 2.95-11.368 8.412-.815 5.462 2.95 10.552 8.413 11.368 30.771 4.598 56.377 11.043 74.052 18.638 16.991 7.301 23.021 14.161 23.021 17.817 0 5.039-11.733 17.482-56.142 28.512-40.333 10.018-94.119 15.535-151.45 15.535-57.332 0-111.117-5.517-151.449-15.535-44.408-11.03-56.142-23.474-56.142-28.512 0-3.657 6.029-10.518 23.021-17.819 17.676-7.595 43.282-14.04 74.054-18.637 5.462-.816 9.229-5.906 8.413-11.368s-5.899-9.227-11.368-8.413c-32.447 4.848-59.763 11.778-78.994 20.042-23.308 10.015-35.125 22.192-35.125 36.194 0 20.044 23.995 36.167 71.32 47.922 41.863 10.4 97.361 16.126 156.27 16.126s114.407-5.727 156.271-16.125c47.324-11.755 71.32-27.878 71.32-47.922 0-14.001-11.818-26.178-35.125-36.193z" fill="#304ba6" fill-opacity="1" data-original-color="#000000ff" stroke="none" stroke-opacity="1"/></g></g></svg>