<svg width="139" height="139" viewBox="0 0 139 139" fill="none" xmlns="http://www.w3.org/2000/svg">
<g clip-path="url(#clip0_149_657)">
<path d="M20.9212 66.5271C20.9198 66.5285 20.9176 66.5305 20.9155 66.5325C20.5283 66.9088 20.5197 67.5277 20.896 67.9149C20.896 67.9149 21.2695 68.2994 21.9863 68.9645C22.383 69.3321 23.0081 69.3117 23.3682 68.9114C23.7358 68.5146 23.7125 67.8964 23.3151 67.5295C22.6559 66.9189 22.3074 66.562 22.2973 66.5514C21.9237 66.167 21.309 66.1557 20.9212 66.5271Z" fill="#F5AB54"/>
<path d="M21.9383 67.5881C21.57 67.9813 21.5913 68.5975 21.9845 68.9657C22.3849 69.3272 23.0077 69.313 23.3699 68.912C23.7382 68.5187 23.7169 67.9026 23.323 67.5351L23.3162 67.528C22.9372 67.1732 22.3483 67.1819 21.9739 67.5404C21.9598 67.5539 21.9456 67.5675 21.9383 67.5881Z" fill="#F5AB54"/>
<path d="M24.16 69.4697C24.1318 69.4968 24.1113 69.5164 24.083 69.5435C23.919 69.7412 23.8381 69.9947 23.86 70.2581C23.8813 70.5221 24.0084 70.7525 24.1977 70.9233C25.0131 71.605 25.7337 72.1879 26.455 72.7431C26.4685 72.7572 26.482 72.7713 26.4956 72.7855L26.5304 72.8063C26.9528 73.106 27.5559 73.016 27.8698 72.607C28.1679 72.2268 28.1456 71.6929 27.8137 71.3336C27.7799 71.2983 27.739 71.2698 27.7052 71.2344C26.9573 70.6641 26.2089 70.0537 25.4888 69.4432L25.4685 69.422C25.0811 69.1023 24.5196 69.1254 24.16 69.4697ZM28.7587 73.0559C28.7156 73.0971 28.6807 73.1441 28.6451 73.1918C28.3601 73.573 28.4041 74.0997 28.7288 74.4388C28.7761 74.4882 28.8238 74.5238 28.8647 74.5524C29.7159 75.1727 30.5141 75.7219 31.2845 76.2436C31.7203 76.5304 32.3385 76.4124 32.6385 75.9761C32.8958 75.5943 32.8584 75.0885 32.5404 74.7565C32.4863 74.7 32.4319 74.6573 32.3775 74.6146C31.5865 74.0856 30.789 73.5357 30.005 72.9729C29.6238 72.6879 29.0971 72.7318 28.7587 73.0559ZM33.6 76.3014C33.5435 76.3555 33.4937 76.4166 33.4437 76.4917C33.214 76.8741 33.2656 77.3663 33.57 77.6842C33.6309 77.7478 33.6991 77.7908 33.7674 77.8338C34.6002 78.3499 35.4471 78.8525 36.301 79.3483C36.7591 79.6003 37.3707 79.4344 37.6373 78.976C37.8461 78.6001 37.7939 78.1354 37.4962 77.8246C37.4286 77.754 37.3539 77.6901 37.2718 77.6468C36.4512 77.1732 35.6118 76.677 34.7926 76.175C34.4172 75.9386 33.9249 75.9902 33.6 76.3014ZM38.6706 79.1783C38.5929 79.2527 38.528 79.3419 38.4783 79.43C38.2834 79.8063 38.3427 80.2641 38.6406 80.5611C38.7015 80.6247 38.7762 80.6886 38.8515 80.7248L38.8924 80.7534C38.8992 80.7604 38.9198 80.7678 38.9265 80.7749L38.9471 80.7822C39.857 81.2516 40.6919 81.6709 41.4932 82.0411C41.5068 82.0552 41.5274 82.0625 41.5341 82.0696L41.5487 82.0692C42.0005 82.2866 42.6209 82.0717 42.8378 81.6067C43.0125 81.2362 42.9388 80.8057 42.6678 80.51C42.5799 80.4182 42.4839 80.3476 42.3681 80.296C41.5258 79.8973 40.6565 79.4703 39.7946 79.0227C39.4254 78.821 38.9673 78.8941 38.6706 79.1783ZM43.9293 81.6718C43.8368 81.7605 43.7653 81.8696 43.7073 81.9928C43.5541 82.3562 43.6356 82.7792 43.9125 83.0557C44.0005 83.1475 44.1025 83.2258 44.2328 83.2771C45.1239 83.6561 46.0498 84.029 46.9684 84.3816C47.4556 84.5651 48.0431 84.3004 48.2269 83.7994C48.3588 83.4564 48.2838 83.0542 48.02 82.7787C47.9253 82.6798 47.7956 82.6009 47.6585 82.5426C46.7939 82.2195 45.9221 81.8762 44.9905 81.4818C44.6286 81.3273 44.2119 81.4013 43.9293 81.6718ZM49.3838 83.7207C49.2715 83.8283 49.1785 83.9715 49.133 84.1234C49.0149 84.4667 49.1036 84.8422 49.3471 85.0965C49.408 85.1601 49.4699 85.2092 49.5442 85.2599L49.4197 85.2572L49.7978 85.3692C50.7251 85.6729 51.6665 85.9631 52.588 86.2182C53.0831 86.3535 53.6502 86.0406 53.7858 85.5316C53.8827 85.2086 53.7859 84.8544 53.5562 84.6004C53.4344 84.4732 53.2774 84.3799 53.1055 84.3278C52.1979 84.0729 51.2775 83.8032 50.3771 83.5008L50.3633 83.5005C50.0207 83.3817 49.6452 83.4704 49.3838 83.7207ZM54.9885 85.2872C54.855 85.4151 54.7607 85.5866 54.7153 85.7655C54.6389 86.0959 54.7353 86.437 54.9653 86.6772C55.1009 86.8046 55.2655 86.9043 55.4507 86.9436C56.3936 87.1647 57.3648 87.3586 58.3441 87.5313C58.854 87.6254 59.3875 87.2634 59.4816 86.7535C59.5438 86.4367 59.4401 86.1162 59.2236 85.8902C59.0745 85.7486 58.8968 85.6479 58.69 85.6157C57.76 85.4365 56.8164 85.2431 55.887 85.0362C55.5627 84.9676 55.228 85.0579 54.9885 85.2872ZM60.7211 86.3114C60.5523 86.473 60.4513 86.6646 60.4249 86.893C60.3846 87.1889 60.4812 87.4891 60.6979 87.7013C60.8535 87.8638 61.045 87.9648 61.2735 87.9898C62.2323 88.1143 63.2056 88.2115 64.1586 88.2875L64.2345 88.2961C64.7459 88.321 65.2183 87.9092 65.2641 87.3914C65.2839 87.1151 65.1853 86.8439 64.9959 86.6461C64.8268 86.4695 64.6009 86.3608 64.3661 86.3419C63.4269 86.2662 62.4682 86.1687 61.5161 86.0512C61.2188 86.0109 60.9338 86.1078 60.7211 86.3114ZM66.5153 86.762C66.3246 86.9446 66.2156 87.1844 66.2099 87.4472C66.2049 87.7092 66.3027 87.9542 66.4854 88.1449C66.6612 88.3286 66.9017 88.4368 67.1637 88.4432C68.18 88.4721 69.1692 88.4728 70.125 88.4513C70.6437 88.4286 71.0903 87.9603 71.0808 87.4413C71.0653 87.1988 70.9736 86.9616 70.8112 86.7921C70.6151 86.5872 70.3544 86.4847 70.0775 86.4926C69.1224 86.5134 68.1609 86.5133 67.2205 86.493C66.9578 86.4873 66.7068 86.5787 66.5153 86.762ZM72.3301 86.6105C72.1182 86.8135 72.0013 87.1015 72.0227 87.3925C72.0455 87.6144 72.1446 87.831 72.3002 87.9934C72.5031 88.2054 72.7914 88.3085 73.0824 88.2871C74.0873 88.2051 75.0786 88.109 76.0222 87.9772C76.5364 87.9046 76.9272 87.395 76.8624 86.8747C76.8392 86.6667 76.7389 86.4784 76.59 86.323C76.3803 86.104 76.0651 85.9997 75.7667 86.0416C74.8648 86.1605 73.9143 86.2582 72.9517 86.3404L72.924 86.3398C72.6954 86.3556 72.4926 86.455 72.3301 86.6105ZM78.0886 85.836C77.8484 86.066 77.7374 86.4025 77.8064 86.7292C77.8369 86.9166 77.9233 87.0776 78.0519 87.2118C78.2816 87.4658 78.6114 87.5698 78.9448 87.5078C79.9031 87.3349 80.8763 87.1208 81.8358 86.8925C82.3367 86.765 82.6738 86.212 82.5533 85.7044C82.5154 85.5376 82.4358 85.3836 82.3208 85.2635C82.0772 85.0092 81.7198 84.9046 81.379 84.9872C80.4542 85.2093 79.5228 85.4105 78.5851 85.5908C78.3969 85.622 78.2228 85.7074 78.0886 85.836ZM83.7345 84.4786C83.4731 84.7289 83.375 85.1072 83.471 85.4621C83.5163 85.6083 83.5963 85.7484 83.7045 85.8615C83.9616 86.1299 84.3399 86.228 84.688 86.1249C85.6141 85.8475 86.5407 85.5424 87.4468 85.23C87.4613 85.2296 87.4815 85.2238 87.5031 85.2167L87.5722 85.1912L87.5654 85.1841C88.0262 84.9866 88.2666 84.4315 88.1044 83.9638C88.0589 83.8314 87.9854 83.7122 87.8907 83.6133C87.6201 83.3307 87.2208 83.239 86.8515 83.3625C85.9586 83.6759 85.0457 83.9812 84.1338 84.2451C83.9883 84.2897 83.8482 84.3697 83.7345 84.4786ZM89.221 82.556C88.9314 82.8334 88.8391 83.2603 88.9902 83.6302C89.0431 83.742 89.1031 83.8471 89.191 83.9389C89.4684 84.2285 89.8885 84.3137 90.2652 84.1697C91.1586 83.8016 92.0665 83.4063 92.9679 82.99C93.4499 82.7721 93.6713 82.1675 93.4531 81.6993C93.407 81.5945 93.3467 81.5033 93.279 81.4326C92.9882 81.1289 92.5336 81.036 92.1563 81.2077C91.2765 81.6168 90.3889 82.0064 89.5304 82.3545C89.4111 82.401 89.3121 82.4687 89.221 82.556ZM94.4967 80.1177C94.1865 80.4146 94.1062 80.8978 94.3056 81.2757C94.3452 81.3596 94.3991 81.4299 94.4599 81.4935C94.7573 81.8181 95.2398 81.8978 95.6247 81.6916C96.4991 81.2471 97.3673 80.7678 98.2216 80.2883C98.6776 80.0277 98.8425 79.4093 98.5825 78.9541C98.5433 78.8833 98.4887 78.8137 98.4346 78.7572C98.1164 78.439 97.6336 78.3732 97.2416 78.586C96.4849 79.0262 95.7282 79.4394 94.9943 79.8171L94.7215 79.9565C94.6444 80.0033 94.5666 80.0507 94.4967 80.1177ZM99.5458 77.2462C99.2138 77.5641 99.1474 78.0746 99.3886 78.4665C99.4289 78.5227 99.4685 78.5796 99.5091 78.622C99.8338 78.9611 100.351 79.0207 100.745 78.7795C101.565 78.2646 102.393 77.7153 103.208 77.1657C103.65 76.864 103.767 76.2509 103.465 75.8092C103.431 75.76 103.398 75.7102 103.35 75.6753C103.025 75.3362 102.501 75.2833 102.107 75.5515C101.301 76.0937 100.494 76.6227 99.7077 77.1183C99.6454 77.1508 99.596 77.1982 99.5458 77.2462ZM104.356 73.9669C104.003 74.3052 103.956 74.8645 104.238 75.258C104.265 75.2862 104.299 75.3216 104.326 75.3498C104.657 75.7098 105.217 75.7565 105.61 75.4607C106.384 74.8963 107.172 74.2908 107.946 73.685C108.368 73.3482 108.444 72.7342 108.107 72.3118C108.094 72.2839 108.067 72.2556 108.046 72.2344C107.694 71.8671 107.135 71.8342 106.734 72.1507C105.988 72.7433 105.221 73.3285 104.455 73.8861C104.419 73.9199 104.384 73.9399 104.356 73.9669ZM108.917 70.3717C108.542 70.7302 108.516 71.3107 108.846 71.7122C108.853 71.7192 108.866 71.7334 108.88 71.7475C109.238 72.1219 109.833 72.1624 110.227 71.8251C110.959 71.2052 111.707 70.5573 112.441 69.8946L112.462 69.875C112.851 69.5023 112.877 68.9086 112.519 68.5204L112.498 68.4992C112.141 68.1103 111.525 68.0907 111.137 68.4351C110.39 69.11 109.656 69.745 108.966 70.3243C108.945 70.3446 108.931 70.3581 108.917 70.3717ZM113.283 66.4609L113.255 66.488C112.867 66.86 112.846 67.4753 113.218 67.8638C113.401 68.0545 113.641 68.1635 113.904 68.1692C114.166 68.1756 114.41 68.0771 114.601 67.9076L114.629 67.8805C115.018 67.5085 115.031 66.8862 114.659 66.4976C114.477 66.3069 114.236 66.1986 113.974 66.1923C113.711 66.1866 113.467 66.285 113.283 66.4609Z" fill="#F5AB54"/>
<path d="M114.335 65.4381C114.332 65.4402 114.33 65.4429 114.327 65.4456C113.978 65.7867 113.631 66.1223 113.281 66.4551L113.279 66.4571C112.89 66.8298 112.876 67.4473 113.247 67.8378C113.619 68.2291 114.238 68.2446 114.63 67.8719C114.985 67.5331 115.341 67.1914 115.695 66.8435C116.081 66.4659 116.088 65.8469 115.71 65.4603C115.335 65.0773 114.722 65.0674 114.335 65.4381Z" fill="#F5AB54"/>
<path d="M107.803 66.129C107.577 66.3454 107.458 66.668 107.515 66.9999C107.605 67.5324 108.111 67.89 108.644 67.7998L114.379 66.8241L113.246 72.627C113.142 73.1568 113.488 73.6713 114.019 73.7748C114.55 73.8783 115.064 73.5325 115.166 73.0021L116.842 64.4203L108.317 65.8703C108.115 65.9053 107.94 65.9977 107.803 66.129Z" fill="#F5AB54"/>
</g>
<defs>
<clipPath id="clip0_149_657">
<rect width="97.8078" height="97.8078" fill="white" transform="matrix(0.722253 -0.691629 -0.691629 -0.722253 68.3086 138.289)"/>
</clipPath>
</defs>
</svg>
