<svg width="64" height="64" viewBox="0 0 64 64" fill="none" xmlns="http://www.w3.org/2000/svg">
<path d="M55.5239 26.9893H49.6456C49.235 26.9893 48.8945 27.3298 48.8945 27.7404V28.7418H44.1978C43.0162 28.7418 41.8645 28.3412 40.9432 27.6102L37.3581 24.7661C34.9046 22.8234 31.7501 22.0923 28.6858 22.7733C26.4126 23.274 24.3596 24.5458 22.8875 26.3484L20.9348 28.7518H15.0865V27.7504C15.0865 27.3398 14.746 26.9993 14.3354 26.9993H8.45703V47.188H14.3354C14.746 47.188 15.0865 46.8475 15.0865 46.4369V45.1451H16.9491C17.0693 45.4656 17.2495 45.756 17.4999 46.0063C17.9505 46.457 18.5414 46.6973 19.1923 46.7374C19.1222 46.9577 19.0621 47.188 19.0421 47.4183C18.962 48.2495 19.2223 49.0206 19.7731 49.5714C20.2738 50.0721 20.9348 50.3124 21.6358 50.3124C21.8561 50.3124 22.0864 50.2824 22.3067 50.2323C22.2967 50.9433 22.527 51.6243 23.0378 52.135C23.5385 52.6357 24.1994 52.8761 24.9004 52.8761C25.0907 52.8761 25.291 52.8561 25.4912 52.816C25.4612 53.5571 25.7015 54.2681 26.2223 54.7888C26.723 55.2895 27.3839 55.5299 28.0849 55.5299C28.9261 55.5299 29.8174 55.1794 30.5084 54.4884L30.6586 54.3382L31.0692 54.7488C31.5699 55.2495 32.2408 55.5299 32.9519 55.5299C33.6629 55.5299 34.3338 55.2495 34.8345 54.7488C35.1249 54.4583 35.3352 54.1078 35.4654 53.7273L35.6056 53.8675C36.1564 54.4183 36.8774 54.6887 37.5985 54.6887C38.3195 54.6887 39.0405 54.4183 39.5913 53.8675C39.9919 53.4669 40.2322 52.9862 40.3424 52.4755C40.7229 52.6458 41.1435 52.7459 41.5741 52.7459C42.3752 52.7459 43.1263 52.4355 43.6971 51.8647C44.4582 51.1036 44.7186 50.032 44.4883 49.0507C45.1792 48.9906 45.8302 48.7102 46.3309 48.2095C46.8817 47.6587 47.1921 46.9176 47.1921 46.1265C47.1921 45.9863 47.1721 45.8461 47.152 45.7059H48.8945V46.9977C48.8945 47.4083 49.235 47.7488 49.6456 47.7488H55.5239V26.9893ZM18.8618 42.7817L20.9348 40.7088C21.2853 40.3583 21.7159 40.148 22.1465 40.1079C22.1966 40.1079 22.2466 40.0979 22.2867 40.0979C22.6071 40.0979 22.8875 40.2081 23.0878 40.4084C23.5885 40.9091 23.4483 41.9005 22.7874 42.5614L20.7145 44.6344C20.364 44.9849 19.9333 45.1952 19.5027 45.2352C19.1222 45.2753 18.7817 45.1651 18.5614 44.9348C18.0607 44.4341 18.2009 43.4527 18.8618 42.7817ZM20.8346 48.4899C20.6043 48.2595 20.5042 47.9291 20.5342 47.5485C20.5743 47.1179 20.7846 46.6873 21.1351 46.3368L24.4898 42.982C24.8904 42.5815 25.3911 42.3812 25.8518 42.3812C26.1622 42.3812 26.4426 42.4813 26.6529 42.6816C27.1536 43.1823 27.0134 44.1737 26.3525 44.8347L22.9977 48.1894C22.3267 48.8604 21.3353 48.9906 20.8346 48.4899ZM24.0993 51.0635C23.5986 50.5628 23.7388 49.5714 24.3997 48.9105L27.0535 46.2567C27.454 45.8561 27.9547 45.6458 28.4154 45.6458C28.7258 45.6458 29.0062 45.746 29.2165 45.9462C29.7173 46.447 29.5771 47.4384 28.9161 48.1093L28.6557 48.3697C28.6557 48.3697 28.6557 48.3697 28.6457 48.3697L26.5127 50.5027L26.2523 50.7631C25.5914 51.424 24.6 51.5642 24.0993 51.0635ZM27.2738 53.7173C26.7731 53.2166 26.9133 52.2252 27.5742 51.5642L29.7072 49.4312C30.0978 49.0406 30.6085 48.8303 31.0592 48.8303C31.3696 48.8303 31.65 48.9305 31.8603 49.1308C32.361 49.6315 32.2208 50.6229 31.5599 51.2938L29.4268 53.4269C28.7659 54.0778 27.7845 54.218 27.2738 53.7173ZM34.1135 52.836C34.1135 53.1465 33.9933 53.4369 33.773 53.6572C33.3324 54.0978 32.5613 54.0978 32.1207 53.6572L31.7101 53.2466L32.6314 52.3253C32.8918 52.0649 33.082 51.7745 33.2523 51.4841L33.763 52.0149C33.9833 52.2352 34.1135 52.5256 34.1135 52.836ZM45.2694 47.1279C44.7286 47.6687 43.7772 47.6687 43.2365 47.1279L35.6757 39.5972L34.6142 40.6587L35.1249 41.1694L42.6456 48.6501C43.2265 49.2309 43.2265 50.1823 42.6456 50.7731C42.0648 51.3539 41.1135 51.3539 40.5226 50.7731L32.0606 42.3111L30.9991 43.3726L38.5298 50.9033C39.0405 51.414 39.0405 52.2552 38.5298 52.7659C38.0191 53.2767 37.1779 53.2767 36.6671 52.7659L33.6629 49.7617C33.6328 49.1107 33.4025 48.4999 32.9418 48.0392C32.4211 47.5185 31.7001 47.2781 30.959 47.3082C31.1293 46.4069 30.919 45.4956 30.2881 44.8647C29.7773 44.354 29.0964 44.1237 28.3753 44.1337C28.5756 43.2023 28.3753 42.251 27.7144 41.6001C26.9834 40.869 25.9018 40.6988 24.8804 41.0192C24.8403 40.3783 24.61 39.7775 24.1594 39.3168C23.0678 38.2153 21.1451 38.3555 19.8733 39.6172L17.8003 41.6902C17.2495 42.241 16.9191 42.9219 16.8089 43.6129H15.0865V30.2439H19.8432C19.693 30.6245 19.6529 31.035 19.7431 31.4356C19.8833 32.0465 20.2838 32.5572 20.8547 32.8376C22.9677 33.8591 25.4211 33.7189 27.404 32.4671L29.4168 31.1953C30.1278 30.7446 31.0291 30.8548 31.62 31.4456L45.2694 45.095C45.5397 45.3654 45.69 45.7259 45.69 46.1165C45.69 46.497 45.5397 46.8575 45.2694 47.1279ZM46.451 44.1837C46.411 44.1337 46.3709 44.0736 46.3209 44.0335L32.6815 30.3841C31.5899 29.2926 29.9175 29.1123 28.6157 29.9235L26.6028 31.1953C25.0606 32.1667 23.1479 32.2768 21.5056 31.4857C21.2953 31.3855 21.2352 31.2053 21.2152 31.1152C21.1951 31.015 21.1751 30.8348 21.3253 30.6545L24.0592 27.2897C25.311 25.7475 27.0735 24.666 29.0163 24.2354C31.63 23.6546 34.3338 24.2754 36.4268 25.9478L40.0119 28.7919C41.1936 29.7332 42.6857 30.2539 44.1978 30.2539H48.8945V44.1937H46.451V44.1837Z" fill="white"/>
<path d="M20.2205 27.2429L21.7227 25.3903C23.4051 23.3273 25.7584 21.8753 28.3621 21.2944C29.2133 21.1042 30.0745 21.014 30.9358 21.014C33.5895 21.014 36.2033 21.9253 38.2862 23.5777L41.8713 26.4217C42.5322 26.9425 43.3534 27.2329 44.1946 27.2329H45.5666V10.8796C45.5666 9.54773 44.485 8.45618 43.1431 8.45618H20.9315C19.5996 8.45618 18.5081 9.53771 18.5081 10.8696L18.418 27.2429H20.2205ZM27.0102 13.5634H36.8442V15.0656H27.0102V13.5634ZM22.5038 17.8696H41.4808V19.3717H22.5038V17.8696Z" fill="white"/>
</svg>
