<svg version="1.1" id="Capa_1" xmlns="http://www.w3.org/2000/svg" xmlns:xlink="http://www.w3.org/1999/xlink" x="0px" y="0px" viewBox="0 0 512 512" style="enable-background:new 0 0 512 512;" xml:space="preserve" width="300" height="300" xmlns:svgjs="http://svgjs.dev/svgjs"><g transform="matrix(1,0,0,1,0,0)"><g>
	<g>
		<path d="M404.831,94.739c-6.853,0-12.43,5.577-12.43,12.43s5.577,12.43,12.43,12.43c6.854,0,12.43-5.576,12.43-12.43&#10;&#9;&#9;&#9;S411.685,94.739,404.831,94.739z" fill="#ffffff" fill-opacity="1" data-original-color="#000000ff" stroke="none" stroke-opacity="1"/>
	</g>
</g><g>
	<g>
		<path d="M256,145.804c-60.762,0-110.196,49.434-110.196,110.196c0,60.762,49.434,110.197,110.196,110.197&#10;&#9;&#9;&#9;c60.763,0,110.197-49.434,110.197-110.196C366.197,195.239,316.763,145.804,256,145.804z" fill="#ffffff" fill-opacity="1" data-original-color="#000000ff" stroke="none" stroke-opacity="1"/>
	</g>
</g><g>
	<g>
		<path d="M371.643,0H140.357C62.964,0,0,62.964,0,140.358v231.285C0,449.037,62.964,512,140.357,512h231.286&#10;&#9;&#9;&#9;C449.037,512,512,449.036,512,371.643V140.358C512,62.964,449.037,0,371.643,0z M256,396.432&#10;&#9;&#9;&#9;c-77.435,0-140.431-62.997-140.431-140.432S178.566,115.57,256,115.57S396.432,178.566,396.432,256S333.434,396.432,256,396.432z&#10;&#9;&#9;&#9; M404.831,149.836c-23.526,0-42.666-19.14-42.666-42.666c0-23.526,19.14-42.667,42.666-42.667&#10;&#9;&#9;&#9;c23.526,0,42.666,19.14,42.666,42.666S428.357,149.836,404.831,149.836z" fill="#ffffff" fill-opacity="1" data-original-color="#000000ff" stroke="none" stroke-opacity="1"/>
	</g>
</g><g>
</g><g>
</g><g>
</g><g>
</g><g>
</g><g>
</g><g>
</g><g>
</g><g>
</g><g>
</g><g>
</g><g>
</g><g>
</g><g>
</g><g>
</g></g></svg>