<svg width="32" height="32" viewBox="0 0 32 32" fill="none" xmlns="http://www.w3.org/2000/svg">
<path d="M2.66797 14.6273C2.67197 13.1273 2.67997 12.3659 2.69863 11.7086L2.70797 11.4499C2.71863 11.1513 2.73197 10.8566 2.74797 10.5006C2.81463 9.08193 3.03863 8.11393 3.36797 7.2646C3.70663 6.3846 4.1653 5.64326 4.9053 4.90193C5.57183 4.22394 6.37809 3.69932 7.26797 3.3646C8.1173 3.03526 9.0853 2.81126 10.5053 2.74459C10.86 2.7286 11.1546 2.71526 11.4546 2.7046L11.7133 2.6966C12.3693 2.6766 13.1306 2.66859 14.6306 2.66593L15.6253 2.6646L17.372 2.6646C18.3445 2.66132 19.317 2.67154 20.2893 2.69526L20.548 2.70326C20.848 2.71393 21.1426 2.72726 21.4973 2.74326C22.9173 2.80993 23.884 3.03659 24.7346 3.36459C25.625 3.69836 26.4315 4.2231 27.0973 4.90193C27.7751 5.56864 28.2996 6.37485 28.6346 7.2646C28.964 8.11393 29.188 9.08193 29.2546 10.5006C29.2695 10.817 29.2829 11.1334 29.2946 11.4499L29.3026 11.7086C29.3213 12.3659 29.3306 13.1273 29.3333 14.6273L29.3346 15.6219L29.3346 17.3673C29.338 18.3402 29.3278 19.3132 29.304 20.2859L29.296 20.5446C29.284 20.8611 29.2702 21.1776 29.2546 21.4939C29.188 22.9126 28.964 23.8806 28.6346 24.7313C28.3005 25.621 27.7758 26.427 27.0973 27.0926C26.431 27.7712 25.6247 28.2963 24.7346 28.6313C23.8853 28.9606 22.9173 29.1846 21.4973 29.2513C21.1809 29.2661 20.8645 29.2794 20.548 29.2913L20.2893 29.2979C19.3171 29.3225 18.3445 29.3336 17.372 29.3313L14.6306 29.3313C13.6581 29.335 12.6856 29.3252 11.7133 29.3019L11.4546 29.2926C11.1546 29.2819 10.86 29.2686 10.5053 29.2526C9.0853 29.1859 8.11863 28.9619 7.26797 28.6326C6.37717 28.2978 5.57067 27.7716 4.9053 27.0913C4.22727 26.4258 3.70262 25.6204 3.36797 24.7313C3.03864 23.8806 2.81464 22.9139 2.74797 21.4939C2.73197 21.1393 2.71864 20.8433 2.70797 20.5446L2.69997 20.2859C2.67628 19.3137 2.66606 18.3411 2.6693 17.3686L2.66797 14.6273ZM9.33463 15.9979C9.33463 17.766 10.037 19.4617 11.2873 20.712C12.5375 21.9622 14.2332 22.6646 16.0013 22.6646C17.7694 22.6646 19.4651 21.9622 20.7153 20.712C21.9656 19.4617 22.668 17.766 22.668 15.9979C22.668 14.2298 21.9656 12.5341 20.7153 11.2839C19.4651 10.0336 17.7694 9.33126 16.0013 9.33126C14.2332 9.33126 12.5375 10.0336 11.2873 11.2839C10.037 12.5341 9.33463 14.2298 9.33463 15.9979ZM12.0013 15.9979C12.0012 15.4726 12.1046 14.9525 12.3055 14.4671C12.5065 13.9818 12.801 13.5408 13.1724 13.1693C13.5438 12.7978 13.9847 12.5031 14.47 12.302C14.9552 12.1009 15.4753 11.9974 16.0006 11.9973C16.5259 11.9972 17.0461 12.1006 17.5314 12.3015C18.0168 12.5024 18.4578 12.797 18.8293 13.1684C19.2008 13.5397 19.4955 13.9806 19.6966 14.4659C19.8977 14.9512 20.0012 15.4713 20.0013 15.9966C20.0013 17.0575 19.5799 18.0749 18.8297 18.825C18.0796 19.5752 17.0622 19.9966 16.0013 19.9966C14.9404 19.9966 13.923 19.5752 13.1729 18.825C12.4227 18.0749 12.0013 17.0575 12.0013 15.9966M7.33463 8.9966C7.33463 9.43863 7.51023 9.86255 7.82279 10.1751C8.13535 10.4877 8.55927 10.6633 9.0013 10.6633C9.44333 10.6633 9.86725 10.4877 10.1798 10.1751C10.4924 9.86255 10.668 9.43862 10.668 8.9966C10.668 8.55457 10.4924 8.13064 10.1798 7.81808C9.86725 7.50552 9.44333 7.32993 9.0013 7.32993C8.55927 7.32993 8.13535 7.50552 7.82279 7.81808C7.51023 8.13064 7.33463 8.55457 7.33463 8.9966Z" fill="#464036"/>
</svg>
