<svg width="121" height="121" viewBox="0 0 121 121" fill="none" xmlns="http://www.w3.org/2000/svg">
<path d="M86.2734 30.9688C86.1172 30.9688 85.9805 30.9492 85.8633 30.9102C85.7461 30.8711 85.6094 30.8125 85.4531 30.7344C82.1719 27.375 78.4219 24.875 74.2031 23.2344C69.9844 21.5156 65.6875 20.6562 61.3125 20.6562C56.9375 20.6562 52.6406 21.5156 48.4219 23.2344C44.2031 24.875 40.4531 27.375 37.1719 30.7344C36.9375 30.8906 36.6836 30.9688 36.4102 30.9688C36.1367 30.9688 35.8828 30.8906 35.6484 30.7344C35.4922 30.5 35.4141 30.2461 35.4141 29.9727C35.4141 29.6992 35.4922 29.4453 35.6484 29.2109C39.1641 25.6953 43.1875 23.0781 47.7188 21.3594C52.1719 19.5625 56.7031 18.6641 61.3125 18.6641C65.9219 18.6641 70.4531 19.5625 74.9062 21.3594C79.4375 23.0781 83.4609 25.6953 86.9766 29.2109C87.1328 29.4453 87.2109 29.6992 87.2109 29.9727C87.2109 30.2461 87.1328 30.5 86.9766 30.7344C86.8203 30.8125 86.6836 30.8711 86.5664 30.9102C86.4492 30.9492 86.3516 30.9688 86.2734 30.9688ZM42.6797 37.2969C42.6016 37.2969 42.5039 37.2773 42.3867 37.2383C42.2695 37.1992 42.1328 37.1406 41.9766 37.0625C41.8203 36.8281 41.7422 36.5742 41.7422 36.3008C41.7422 36.0273 41.8203 35.7734 41.9766 35.5391C44.5547 32.9609 47.5234 30.9883 50.8828 29.6211C54.2422 28.2539 57.7188 27.5703 61.3125 27.5703C61.3125 27.5703 61.332 27.5703 61.3711 27.5703C61.4102 27.5703 61.4297 27.5703 61.4297 27.5703C65.0234 27.5703 68.5 28.2539 71.8594 29.6211C75.2187 30.9883 78.1875 32.9609 80.7656 35.5391C80.9219 35.7734 81 36.0273 81 36.3008C81 36.5742 80.9219 36.7891 80.7656 36.9453C80.5312 37.1797 80.2773 37.2969 80.0039 37.2969C79.7305 37.2969 79.4766 37.1797 79.2422 36.9453C76.8984 34.6016 74.1836 32.7852 71.0977 31.4961C68.0117 30.207 64.7891 29.5625 61.4297 29.5625C61.4297 29.5625 61.3906 29.5625 61.3125 29.5625C57.9531 29.5625 54.7305 30.207 51.6445 31.4961C48.5586 32.7852 45.8438 34.6406 43.5 37.0625C43.3437 37.1406 43.207 37.1992 43.0898 37.2383C42.9727 37.2773 42.8359 37.2969 42.6797 37.2969ZM48.5391 43.1562C48.3828 43.1562 48.2461 43.1367 48.1289 43.0977C48.0117 43.0586 47.9141 43 47.8359 42.9219C47.6016 42.6875 47.4844 42.4336 47.4844 42.1602C47.4844 41.8867 47.6016 41.6328 47.8359 41.3984C49.6328 39.6016 51.7031 38.2344 54.0469 37.2969C56.3906 36.3594 58.8125 35.8906 61.3125 35.8906C63.8906 35.8906 66.332 36.3594 68.6367 37.2969C70.9414 38.2344 73.0312 39.6016 74.9062 41.3984C75.0625 41.6328 75.1406 41.8867 75.1406 42.1602C75.1406 42.4336 75.0625 42.6875 74.9062 42.9219C74.6719 43.0781 74.418 43.1562 74.1445 43.1562C73.8711 43.1562 73.6172 43.0781 73.3828 42.9219C71.8203 41.2812 69.9844 40.0313 67.875 39.1719C65.7656 38.3125 63.5781 37.8828 61.3125 37.8828C59.0469 37.8828 56.8789 38.3125 54.8086 39.1719C52.7383 40.0313 50.8828 41.2812 49.2422 42.9219C49.1641 43 49.0664 43.0586 48.9492 43.0977C48.832 43.1367 48.6953 43.1562 48.5391 43.1562ZM105.609 102.336H15.6094C15.2969 102.336 15.043 102.238 14.8477 102.043C14.6523 101.848 14.5547 101.594 14.5547 101.281V54.0547C14.5547 53.7422 14.6523 53.4883 14.8477 53.293C15.043 53.0977 15.2969 53 15.6094 53H105.609C105.922 53 106.176 53.0977 106.371 53.293C106.566 53.4883 106.664 53.7422 106.664 54.0547V101.281C106.664 101.594 106.566 101.848 106.371 102.043C106.176 102.238 105.922 102.336 105.609 102.336ZM16.5469 100.344H104.672V54.9922H16.5469V100.344ZM26.2734 92.9609C25.9609 92.9609 25.707 92.8633 25.5117 92.668C25.3164 92.4727 25.2188 92.2188 25.2188 91.9062V63.5469C25.2188 63.2344 25.3164 62.9805 25.5117 62.7852C25.707 62.5898 25.9609 62.4922 26.2734 62.4922C26.5859 62.4922 26.8398 62.5898 27.0352 62.7852C27.2305 62.9805 27.3281 63.2344 27.3281 63.5469V91.9062C27.3281 92.2188 27.2305 92.4727 27.0352 92.668C26.8398 92.8633 26.5859 92.9609 26.2734 92.9609ZM39.9844 92.9609C39.75 92.9609 39.5352 92.8633 39.3398 92.668C39.1445 92.4727 39.0469 92.2188 39.0469 91.9062V63.5469C39.0469 63.2344 39.1445 62.9805 39.3398 62.7852C39.5352 62.5898 39.75 62.4922 39.9844 62.4922C40.2969 62.4922 40.5508 62.5898 40.7461 62.7852C40.9414 62.9805 41.0391 63.2344 41.0391 63.5469V91.9062C41.0391 92.2188 40.9414 92.4727 40.7461 92.668C40.5508 92.8633 40.2969 92.9609 39.9844 92.9609ZM53.6953 92.9609C53.4609 92.9609 53.2461 92.8633 53.0508 92.668C52.8555 92.4727 52.7578 92.2188 52.7578 91.9062V63.5469C52.7578 63.2344 52.8555 62.9805 53.0508 62.7852C53.2461 62.5898 53.4609 62.4922 53.6953 62.4922C54.0078 62.4922 54.2617 62.5898 54.457 62.7852C54.6523 62.9805 54.75 63.2344 54.75 63.5469V91.9062C54.75 92.2188 54.6523 92.4727 54.457 92.668C54.2617 92.8633 54.0078 92.9609 53.6953 92.9609ZM67.5234 92.9609C67.2109 92.9609 66.957 92.8633 66.7617 92.668C66.5664 92.4727 66.4688 92.2188 66.4688 91.9062V63.5469C66.4688 63.2344 66.5664 62.9805 66.7617 62.7852C66.957 62.5898 67.2109 62.4922 67.5234 62.4922C67.7578 62.4922 67.9727 62.5898 68.168 62.7852C68.3633 62.9805 68.4609 63.2344 68.4609 63.5469V91.9062C68.4609 92.2188 68.3633 92.4727 68.168 92.668C67.9727 92.8633 67.7578 92.9609 67.5234 92.9609ZM81.2344 92.9609C80.9219 92.9609 80.668 92.8633 80.4727 92.668C80.2773 92.4727 80.1797 92.2188 80.1797 91.9062V63.5469C80.1797 63.2344 80.2773 62.9805 80.4727 62.7852C80.668 62.5898 80.9219 62.4922 81.2344 62.4922C81.4688 62.4922 81.6836 62.5898 81.8789 62.7852C82.0742 62.9805 82.1719 63.2344 82.1719 63.5469V91.9062C82.1719 92.2188 82.0742 92.4727 81.8789 92.668C81.6836 92.8633 81.4688 92.9609 81.2344 92.9609ZM94.9453 92.9609C94.6328 92.9609 94.3789 92.8633 94.1836 92.668C93.9883 92.4727 93.8906 92.2188 93.8906 91.9062V63.5469C93.8906 63.2344 93.9883 62.9805 94.1836 62.7852C94.3789 62.5898 94.6328 62.4922 94.9453 62.4922C95.2578 62.4922 95.5117 62.5898 95.707 62.7852C95.9023 62.9805 96 63.2344 96 63.5469V91.9062C96 92.2188 95.9023 92.4727 95.707 92.668C95.5117 92.8633 95.2578 92.9609 94.9453 92.9609Z" fill="black"/>
</svg>
