<svg width="120" height="121" viewBox="0 0 120 121" fill="none" xmlns="http://www.w3.org/2000/svg">
<path d="M25.4297 58.9766C25.1953 58.9766 24.9805 58.8789 24.7852 58.6836C24.5898 58.4883 24.4922 58.2344 24.4922 57.9219V45.6172C24.4922 45.3047 24.5898 45.0508 24.7852 44.8555C24.9805 44.6602 25.1953 44.5625 25.4297 44.5625H34.8047C35.0391 44.5625 35.2539 44.6602 35.4492 44.8555C35.6445 45.0508 35.7422 45.3047 35.7422 45.6172C35.7422 45.9297 35.6445 46.1836 35.4492 46.3789C35.2539 46.5742 35.0391 46.6719 34.8047 46.6719H26.4844V57.9219C26.4844 58.2344 26.3867 58.4883 26.1914 58.6836C25.9961 58.8789 25.7422 58.9766 25.4297 58.9766ZM96.5625 58.7422C96.25 58.7422 95.9961 58.6445 95.8008 58.4492C95.6055 58.2539 95.5078 58 95.5078 57.6875V46.6719H52.7344C52.5 46.6719 52.2656 46.5742 52.0313 46.3789C51.7969 46.1836 51.6797 45.9297 51.6797 45.6172C51.6797 45.3047 51.7969 45.0508 52.0313 44.8555C52.2656 44.6602 52.5 44.5625 52.7344 44.5625H96.5625C96.7969 44.5625 97.0117 44.6602 97.207 44.8555C97.4023 45.0508 97.5 45.3047 97.5 45.6172V57.6875C97.5 58 97.4023 58.2539 97.207 58.4492C97.0117 58.6445 96.7969 58.7422 96.5625 58.7422ZM97.1484 77.375C97.0703 77.375 96.9727 77.3555 96.8555 77.3164C96.7383 77.2773 96.6406 77.2188 96.5625 77.1406C96.3281 76.9844 96.1914 76.7695 96.1523 76.4961C96.1133 76.2227 96.1719 75.9688 96.3281 75.7344C97.8125 73.625 99.3164 71.0859 100.84 68.1172C102.363 65.1484 103.164 63.1172 103.242 62.0234C102.461 62.0234 100.82 61.9844 98.3203 61.9062C95.8984 61.9062 92.8516 61.8867 89.1797 61.8477C85.5078 61.8086 81.4062 61.75 76.875 61.6719C72.2656 61.6719 67.4609 61.6719 62.4609 61.6719C57.0703 61.6719 52.0703 61.6719 47.4609 61.6719C42.8516 61.6719 38.7695 61.6914 35.2148 61.7305C31.6602 61.7695 28.7109 61.7891 26.3672 61.7891C24.0234 61.8672 22.3828 61.9453 21.4453 62.0234C21.4453 63.1953 21.4258 65.1289 21.3867 67.8242C21.3477 70.5195 21.4453 72.4141 21.6797 73.5078C21.7578 73.8203 21.7383 74.0938 21.6211 74.3281C21.5039 74.5625 21.2891 74.7187 20.9766 74.7969C20.7422 74.875 20.5078 74.8359 20.2734 74.6797C20.0391 74.5234 19.8828 74.3281 19.8047 74.0938C19.4922 73 19.3359 71.2617 19.3359 68.8789C19.3359 66.4961 19.375 64.1719 19.4531 61.9062C19.4531 61.6719 19.4531 61.4961 19.4531 61.3789C19.4531 61.2617 19.4531 61.1641 19.4531 61.0859C19.4531 60.9297 19.4922 60.7734 19.5703 60.6172C19.6484 60.4609 19.7656 60.3438 19.9219 60.2656C20.0781 60.1094 20.7617 59.9922 21.9727 59.9141C23.1836 59.8359 27.0703 59.7578 33.6328 59.6797C37.2266 59.6797 41.4453 59.6602 46.2891 59.6211C51.1328 59.582 56.3281 59.6016 61.875 59.6797C64.6875 59.6797 68.3984 59.6797 73.0078 59.6797C77.6953 59.6797 82.2852 59.6992 86.7773 59.7383C91.2695 59.7773 95.1953 59.8359 98.5547 59.9141C101.992 59.9141 103.867 59.9531 104.18 60.0312C104.414 60.1094 104.629 60.2266 104.824 60.3828C105.02 60.5391 105.156 60.7344 105.234 60.9688C105.312 61.2031 105.312 61.7695 105.234 62.668C105.156 63.5664 104.414 65.4609 103.008 68.3516C102.227 69.9141 101.387 71.457 100.488 72.9805C99.5898 74.5039 98.75 75.8125 97.9687 76.9062C97.8906 77.0625 97.7734 77.1797 97.6172 77.2578C97.4609 77.3359 97.3047 77.375 97.1484 77.375ZM78.1641 58.2734C77.9297 58.2734 77.7148 58.1758 77.5195 57.9805C77.3242 57.7852 77.2266 57.5313 77.2266 57.2188V46.0859C77.2266 45.8516 77.3242 45.6367 77.5195 45.4414C77.7148 45.2461 77.9297 45.1484 78.1641 45.1484C78.4766 45.1484 78.7305 45.2461 78.9258 45.4414C79.1211 45.6367 79.2187 45.8516 79.2187 46.0859V57.2188C79.2187 57.5313 79.1211 57.7852 78.9258 57.9805C78.7305 58.1758 78.4766 58.2734 78.1641 58.2734ZM87.0703 58.2734C86.7578 58.2734 86.5039 58.1758 86.3086 57.9805C86.1133 57.7852 86.0156 57.5313 86.0156 57.2188V46.0859C86.0156 45.8516 86.1133 45.6367 86.3086 45.4414C86.5039 45.2461 86.7578 45.1484 87.0703 45.1484C87.3828 45.1484 87.6367 45.2461 87.832 45.4414C88.0273 45.6367 88.125 45.8516 88.125 46.0859V57.2188C88.125 57.5313 88.0273 57.7852 87.832 57.9805C87.6367 58.1758 87.3828 58.2734 87.0703 58.2734ZM60.5859 58.2734C60.3516 58.2734 60.1367 58.1758 59.9414 57.9805C59.7461 57.7852 59.6484 57.5313 59.6484 57.2188V46.0859C59.6484 45.8516 59.7461 45.6367 59.9414 45.4414C60.1367 45.2461 60.3516 45.1484 60.5859 45.1484C60.8984 45.1484 61.1523 45.2461 61.3477 45.4414C61.543 45.6367 61.6406 45.8516 61.6406 46.0859V57.2188C61.6406 57.5313 61.543 57.7852 61.3477 57.9805C61.1523 58.1758 60.8984 58.2734 60.5859 58.2734ZM69.375 58.2734C69.1406 58.2734 68.9258 58.1758 68.7305 57.9805C68.5352 57.7852 68.4375 57.5313 68.4375 57.2188V46.0859C68.4375 45.8516 68.5352 45.6367 68.7305 45.4414C68.9258 45.2461 69.1406 45.1484 69.375 45.1484C69.6875 45.1484 69.9414 45.2461 70.1367 45.4414C70.332 45.6367 70.4297 45.8516 70.4297 46.0859V57.2188C70.4297 57.5313 70.332 57.7852 70.1367 57.9805C69.9414 58.1758 69.6875 58.2734 69.375 58.2734ZM38.7891 58.2734C38.4766 58.2734 38.2227 58.1758 38.0273 57.9805C37.832 57.7852 37.7344 57.5313 37.7344 57.2188V38.4688C37.7344 38.1562 37.832 37.9023 38.0273 37.707C38.2227 37.5117 38.4766 37.4141 38.7891 37.4141H48.6328C48.8672 37.4141 49.1016 37.5117 49.3359 37.707C49.5703 37.9023 49.6875 38.1562 49.6875 38.4688V57.1016C49.6875 57.4141 49.5703 57.668 49.3359 57.8633C49.1016 58.0586 48.8672 58.1562 48.6328 58.1562C48.3203 58.1562 48.0664 58.0586 47.8711 57.8633C47.6758 57.668 47.5781 57.4141 47.5781 57.1016V39.4062H39.8438V57.2188C39.8438 57.5313 39.7461 57.7852 39.5508 57.9805C39.3555 58.1758 39.1016 58.2734 38.7891 58.2734ZM40.3125 35.7734C40 35.7734 39.7461 35.6562 39.5508 35.4219C39.3555 35.1875 39.2578 34.9531 39.2578 34.7188V30.5C39.2578 30.2656 39.3555 30.0508 39.5508 29.8555C39.7461 29.6602 40 29.5625 40.3125 29.5625C40.625 29.5625 40.8789 29.6602 41.0742 29.8555C41.2695 30.0508 41.3672 30.2656 41.3672 30.5V34.7188C41.3672 34.9531 41.2695 35.1875 41.0742 35.4219C40.8789 35.6562 40.625 35.7734 40.3125 35.7734ZM98.2031 83.5859C96.7969 83.5859 95.4297 83.3125 94.1016 82.7656C92.7734 82.2188 91.6016 81.4766 90.5859 80.5391C89.5703 81.4766 88.3984 82.2188 87.0703 82.7656C85.7422 83.3125 84.375 83.5859 82.9687 83.5859C81.4844 83.5859 80.0977 83.3125 78.8086 82.7656C77.5195 82.2188 76.3281 81.4766 75.2344 80.5391C74.2187 81.4766 73.0664 82.2188 71.7773 82.7656C70.4883 83.3125 69.1016 83.5859 67.6172 83.5859C66.2109 83.5859 64.8438 83.3125 63.5156 82.7656C62.1875 82.2188 61.0156 81.4766 60 80.5391C58.9844 81.4766 57.8125 82.2188 56.4844 82.7656C55.1563 83.3125 53.7891 83.5859 52.3828 83.5859C50.9766 83.5859 49.6094 83.3125 48.2813 82.7656C46.9531 82.2188 45.7813 81.4766 44.7656 80.5391C43.75 81.4766 42.5781 82.2188 41.25 82.7656C39.9219 83.3125 38.5547 83.5859 37.1484 83.5859C35.6641 83.5859 34.2773 83.3125 32.9883 82.7656C31.6992 82.2188 30.5078 81.4766 29.4141 80.5391C28.3984 81.4766 27.2266 82.2188 25.8984 82.7656C24.5703 83.3125 23.2031 83.5859 21.7969 83.5859C20.1562 83.5859 18.6133 83.2539 17.168 82.5898C15.7227 81.9258 14.4531 80.9688 13.3594 79.7188C13.2031 79.4844 13.1445 79.2305 13.1836 78.957C13.2227 78.6836 13.3203 78.4297 13.4766 78.1953C13.7109 78.0391 13.9648 77.9805 14.2383 78.0195C14.5117 78.0586 14.7656 78.1562 15 78.3125C15.8594 79.3281 16.875 80.1289 18.0469 80.7148C19.2187 81.3008 20.4687 81.5938 21.7969 81.5938C23.125 81.5938 24.3945 81.3008 25.6055 80.7148C26.8164 80.1289 27.8516 79.3281 28.7109 78.3125C28.7891 78.2344 28.9063 78.1563 29.0625 78.0781C29.2188 78 29.3359 77.9609 29.4141 77.9609C29.5703 77.9609 29.7266 78 29.8828 78.0781C30.0391 78.1563 30.1563 78.2344 30.2344 78.3125C31.0938 79.3281 32.1289 80.1289 33.3398 80.7148C34.5508 81.3008 35.8203 81.5938 37.1484 81.5938C38.3984 81.5938 39.6289 81.3008 40.8398 80.7148C42.0508 80.1289 43.0859 79.3281 43.9453 78.3125C44.0234 78.2344 44.1211 78.1563 44.2383 78.0781C44.3555 78 44.4922 77.9609 44.6484 77.9609H44.7656C44.9219 77.9609 45.0586 78 45.1758 78.0781C45.293 78.1563 45.4297 78.2344 45.5859 78.3125C46.4453 79.3281 47.4609 80.1289 48.6328 80.7148C49.8047 81.3008 51.0547 81.5938 52.3828 81.5938C53.7109 81.5938 54.9805 81.3008 56.1914 80.7148C57.4023 80.1289 58.4375 79.3281 59.2969 78.3125C59.375 78.2344 59.4727 78.1563 59.5898 78.0781C59.707 78 59.8438 77.9609 60 77.9609C60.1563 77.9609 60.3125 78 60.4688 78.0781C60.625 78.1563 60.7422 78.2344 60.8203 78.3125C61.6797 79.3281 62.7148 80.1289 63.9258 80.7148C65.1367 81.3008 66.4063 81.5938 67.7344 81.5938C69.0625 81.5938 70.293 81.3203 71.4258 80.7734C72.5586 80.2266 73.5937 79.4062 74.5312 78.3125C74.6094 78.2344 74.707 78.1563 74.8242 78.0781C74.9414 78 75.0781 77.9609 75.2344 77.9609H75.3516C75.5078 77.9609 75.6445 78 75.7617 78.0781C75.8789 78.1563 75.9766 78.2344 76.0547 78.3125C76.9141 79.3281 77.9492 80.1289 79.1602 80.7148C80.3711 81.3008 81.6406 81.5938 82.9687 81.5938C84.2969 81.5938 85.5469 81.3008 86.7187 80.7148C87.8906 80.1289 88.9062 79.3281 89.7656 78.3125C89.8437 78.2344 89.9609 78.1563 90.1172 78.0781C90.2734 78 90.4297 77.9609 90.5859 77.9609C90.7422 77.9609 90.8789 78 90.9961 78.0781C91.1133 78.1563 91.25 78.2344 91.4062 78.3125C92.2656 79.3281 93.2812 80.1289 94.4531 80.7148C95.625 81.3008 96.875 81.5938 98.2031 81.5938C99.5312 81.5938 100.801 81.3008 102.012 80.7148C103.223 80.1289 104.219 79.3281 105 78.3125C105.234 78.1562 105.488 78.0586 105.762 78.0195C106.035 77.9805 106.289 78.0391 106.523 78.1953C106.758 78.4297 106.875 78.6836 106.875 78.957C106.875 79.2305 106.797 79.4844 106.641 79.7188C105.547 80.9688 104.277 81.9258 102.832 82.5898C101.387 83.2539 99.8437 83.5859 98.2031 83.5859ZM98.2031 91.4375C96.7969 91.4375 95.4297 91.1836 94.1016 90.6758C92.7734 90.168 91.6016 89.4063 90.5859 88.3906C89.5703 89.4063 88.3984 90.168 87.0703 90.6758C85.7422 91.1836 84.375 91.4375 82.9687 91.4375C81.4844 91.4375 80.0977 91.1641 78.8086 90.6172C77.5195 90.0703 76.3281 89.3281 75.2344 88.3906C74.2187 89.3281 73.0664 90.0703 71.7773 90.6172C70.4883 91.1641 69.1016 91.4375 67.6172 91.4375C66.2109 91.4375 64.8438 91.1836 63.5156 90.6758C62.1875 90.168 61.0156 89.4063 60 88.3906C58.9844 89.4063 57.8125 90.168 56.4844 90.6758C55.1563 91.1836 53.7891 91.4375 52.3828 91.4375C50.9766 91.4375 49.6094 91.1641 48.2813 90.6172C46.9531 90.0703 45.7813 89.3281 44.7656 88.3906C43.75 89.3281 42.5781 90.0703 41.25 90.6172C39.9219 91.1641 38.5547 91.4375 37.1484 91.4375C35.6641 91.4375 34.2773 91.1836 32.9883 90.6758C31.6992 90.168 30.5078 89.4063 29.4141 88.3906C28.3984 89.4063 27.2266 90.168 25.8984 90.6758C24.5703 91.1836 23.2031 91.4375 21.7969 91.4375C20.1562 91.4375 18.6133 91.1055 17.168 90.4414C15.7227 89.7773 14.4531 88.8203 13.3594 87.5703C13.2031 87.3359 13.1445 87.082 13.1836 86.8086C13.2227 86.5352 13.3203 86.3203 13.4766 86.1641C13.7109 85.9297 13.9648 85.832 14.2383 85.8711C14.5117 85.9102 14.7656 86.0469 15 86.2812C15.8594 87.2969 16.875 88.0781 18.0469 88.625C19.2187 89.1719 20.4687 89.4453 21.7969 89.4453C23.125 89.4453 24.3945 89.1719 25.6055 88.625C26.8164 88.0781 27.8516 87.2969 28.7109 86.2812C28.7891 86.125 28.9063 86.0273 29.0625 85.9883C29.2188 85.9492 29.3359 85.9297 29.4141 85.9297C29.5703 85.9297 29.7266 85.9492 29.8828 85.9883C30.0391 86.0273 30.1563 86.125 30.2344 86.2812C31.0938 87.2969 32.1289 88.0781 33.3398 88.625C34.5508 89.1719 35.8203 89.4453 37.1484 89.4453C38.3984 89.4453 39.6289 89.1719 40.8398 88.625C42.0508 88.0781 43.0859 87.2969 43.9453 86.2812C44.0234 86.125 44.1211 86.0273 44.2383 85.9883C44.3555 85.9492 44.4922 85.9297 44.6484 85.9297H44.7656C44.9219 85.9297 45.0586 85.9492 45.1758 85.9883C45.293 86.0273 45.4297 86.125 45.5859 86.2812C46.4453 87.2969 47.4609 88.0781 48.6328 88.625C49.8047 89.1719 51.0547 89.4453 52.3828 89.4453C53.7109 89.4453 54.9805 89.1719 56.1914 88.625C57.4023 88.0781 58.4375 87.2969 59.2969 86.2812C59.375 86.125 59.4727 86.0273 59.5898 85.9883C59.707 85.9492 59.8438 85.9297 60 85.9297C60.1563 85.9297 60.3125 85.9492 60.4688 85.9883C60.625 86.0273 60.7422 86.125 60.8203 86.2812C61.6797 87.2969 62.7148 88.0781 63.9258 88.625C65.1367 89.1719 66.4063 89.4453 67.7344 89.4453C69.0625 89.4453 70.293 89.1719 71.4258 88.625C72.5586 88.0781 73.5937 87.2969 74.5312 86.2812C74.6094 86.125 74.707 86.0273 74.8242 85.9883C74.9414 85.9492 75.0781 85.9297 75.2344 85.9297H75.3516C75.5078 85.9297 75.6445 85.9492 75.7617 85.9883C75.8789 86.0273 75.9766 86.125 76.0547 86.2812C76.9141 87.2969 77.9492 88.0781 79.1602 88.625C80.3711 89.1719 81.6406 89.4453 82.9687 89.4453C84.2969 89.4453 85.5469 89.1719 86.7187 88.625C87.8906 88.0781 88.9062 87.2969 89.7656 86.2812C89.8437 86.125 89.9609 86.0273 90.1172 85.9883C90.2734 85.9492 90.4297 85.9297 90.5859 85.9297C90.7422 85.9297 90.8789 85.9492 90.9961 85.9883C91.1133 86.0273 91.25 86.125 91.4062 86.2812C92.2656 87.2969 93.2812 88.0781 94.4531 88.625C95.625 89.1719 96.875 89.4453 98.2031 89.4453C99.5312 89.4453 100.801 89.1719 102.012 88.625C103.223 88.0781 104.219 87.2969 105 86.2812C105.234 86.0469 105.488 85.9102 105.762 85.8711C106.035 85.832 106.289 85.9297 106.523 86.1641C106.758 86.3203 106.875 86.5352 106.875 86.8086C106.875 87.082 106.797 87.3359 106.641 87.5703C105.547 88.8203 104.277 89.7773 102.832 90.4414C101.387 91.1055 99.8437 91.4375 98.2031 91.4375ZM96.5625 53.7031H52.7344C52.5 53.7031 52.2656 53.6055 52.0313 53.4102C51.7969 53.2148 51.6797 52.9609 51.6797 52.6484C51.6797 52.3359 51.7969 52.082 52.0313 51.8867C52.2656 51.6914 52.5 51.5938 52.7344 51.5938H96.5625C96.7969 51.5938 97.0117 51.6914 97.207 51.8867C97.4023 52.082 97.5 52.3359 97.5 52.6484C97.5 52.9609 97.4023 53.2148 97.207 53.4102C97.0117 53.6055 96.7969 53.7031 96.5625 53.7031ZM34.8047 53.7031H25.4297C25.1953 53.7031 24.9805 53.6055 24.7852 53.4102C24.5898 53.2148 24.4922 52.9609 24.4922 52.6484C24.4922 52.3359 24.5898 52.082 24.7852 51.8867C24.9805 51.6914 25.1953 51.5938 25.4297 51.5938H34.8047C35.0391 51.5938 35.2539 51.6914 35.4492 51.8867C35.6445 52.082 35.7422 52.3359 35.7422 52.6484C35.7422 52.9609 35.6445 53.2148 35.4492 53.4102C35.2539 53.6055 35.0391 53.7031 34.8047 53.7031ZM25.4297 66.2422H20.8594C20.5469 66.2422 20.293 66.125 20.0977 65.8906C19.9023 65.6562 19.8047 65.4219 19.8047 65.1875C19.8047 64.875 19.9023 64.6211 20.0977 64.4258C20.293 64.2305 20.5469 64.1328 20.8594 64.1328H25.4297C25.7422 64.1328 25.9961 64.2305 26.1914 64.4258C26.3867 64.6211 26.4844 64.875 26.4844 65.1875C26.4844 65.4219 26.3867 65.6562 26.1914 65.8906C25.9961 66.125 25.7422 66.2422 25.4297 66.2422ZM71.8359 68.2344H70.6641C70.5859 68.0781 70.5273 67.9609 70.4883 67.8828C70.4492 67.8047 70.3906 67.7266 70.3125 67.6484C70.2344 67.4922 70.1172 67.3945 69.9609 67.3555C69.8047 67.3164 69.6094 67.2969 69.375 67.2969C69.1406 67.2969 68.9453 67.3359 68.7891 67.4141C68.6328 67.4922 68.4766 67.6094 68.3203 67.7656C68.2422 67.9219 68.1641 68.1172 68.0859 68.3516C68.0078 68.5859 67.9688 68.8594 67.9688 69.1719C67.9688 69.4844 68.0078 69.7578 68.0859 69.9922C68.1641 70.2266 68.2813 70.4219 68.4375 70.5781C68.5156 70.7344 68.6328 70.8516 68.7891 70.9297C68.9453 71.0078 69.1406 71.0469 69.375 71.0469C69.6094 71.0469 69.8047 71.0273 69.9609 70.9883C70.1172 70.9492 70.2344 70.8516 70.3125 70.6953C70.3906 70.6172 70.4492 70.5195 70.4883 70.4023C70.5273 70.2852 70.5859 70.1484 70.6641 69.9922H71.8359C71.7578 70.3047 71.6602 70.5781 71.543 70.8125C71.4258 71.0469 71.25 71.2812 71.0156 71.5156C70.8594 71.6719 70.6445 71.8086 70.3711 71.9258C70.0977 72.043 69.7656 72.1016 69.375 72.1016C68.9844 72.1016 68.6328 72.0234 68.3203 71.8672C68.0078 71.7109 67.7344 71.5156 67.5 71.2812C67.2656 71.0469 67.0898 70.7539 66.9727 70.4023C66.8555 70.0508 66.7969 69.6406 66.7969 69.1719C66.7969 68.7031 66.8555 68.2734 66.9727 67.8828C67.0898 67.4922 67.2656 67.1797 67.5 66.9453C67.7344 66.7109 68.0078 66.5352 68.3203 66.418C68.6328 66.3008 68.9844 66.2422 69.375 66.2422C69.8438 66.2422 70.2539 66.3203 70.6055 66.4766C70.957 66.6328 71.25 66.8672 71.4844 67.1797C71.5625 67.3359 71.6406 67.5117 71.7188 67.707C71.7969 67.9023 71.8359 68.0781 71.8359 68.2344ZM59.5313 67.8828C59.5313 67.9609 59.5703 68.0391 59.6484 68.1172C59.7266 68.1953 59.8047 68.2734 59.8828 68.3516C59.9609 68.3516 60.0586 68.3711 60.1758 68.4102C60.293 68.4492 60.4297 68.5078 60.5859 68.5859L61.6406 68.8203C61.875 68.8203 62.0703 68.8594 62.2266 68.9375C62.3828 69.0156 62.5391 69.0937 62.6953 69.1719C62.8516 69.3281 62.9688 69.4844 63.0469 69.6406C63.125 69.7969 63.1641 70.0312 63.1641 70.3438C63.1641 70.5781 63.1055 70.793 62.9883 70.9883C62.8711 71.1836 62.7344 71.3594 62.5781 71.5156C62.3438 71.6719 62.0898 71.8086 61.8164 71.9258C61.543 72.043 61.2109 72.1016 60.8203 72.1016C60.4297 72.1016 60.0781 72.0625 59.7656 71.9844C59.4531 71.9062 59.2188 71.75 59.0625 71.5156C58.8281 71.3594 58.6523 71.1836 58.5352 70.9883C58.418 70.793 58.3594 70.5391 58.3594 70.2266H59.5313C59.5313 70.3047 59.5508 70.4023 59.5898 70.5195C59.6289 70.6367 59.6875 70.7344 59.7656 70.8125C59.8438 70.8906 59.9609 70.9687 60.1172 71.0469C60.2734 71.125 60.5078 71.1641 60.8203 71.1641C60.8984 71.1641 60.9961 71.1445 61.1133 71.1055C61.2305 71.0664 61.3672 71.0469 61.5234 71.0469C61.6797 70.9687 61.7969 70.8711 61.875 70.7539C61.9531 70.6367 61.9922 70.5 61.9922 70.3438C61.9922 70.2656 61.9727 70.1875 61.9336 70.1094C61.8945 70.0312 61.8359 69.9922 61.7578 69.9922C61.6797 69.9141 61.5625 69.8555 61.4063 69.8164C61.25 69.7773 61.0938 69.7188 60.9375 69.6406L60.3516 69.5234C60.0391 69.5234 59.7656 69.4844 59.5313 69.4062C59.2969 69.3281 59.1406 69.25 59.0625 69.1719C58.8281 69.0156 58.6719 68.8398 58.5938 68.6445C58.5156 68.4492 58.4766 68.2344 58.4766 68C58.4766 67.6875 58.5156 67.4336 58.5938 67.2383C58.6719 67.043 58.8281 66.8672 59.0625 66.7109C59.2188 66.5547 59.4336 66.4375 59.707 66.3594C59.9805 66.2812 60.3125 66.2422 60.7031 66.2422C61.0156 66.2422 61.3086 66.2812 61.582 66.3594C61.8555 66.4375 62.1094 66.5547 62.3438 66.7109C62.5 66.8672 62.6367 67.043 62.7539 67.2383C62.8711 67.4336 62.9688 67.6875 63.0469 68H61.875C61.7969 67.8437 61.7188 67.707 61.6406 67.5898C61.5625 67.4727 61.4844 67.375 61.4063 67.2969C61.25 67.2969 61.1133 67.2773 60.9961 67.2383C60.8789 67.1992 60.7422 67.1797 60.5859 67.1797C60.4297 67.1797 60.293 67.1992 60.1758 67.2383C60.0586 67.2773 59.9609 67.3359 59.8828 67.4141C59.8047 67.4141 59.7266 67.4531 59.6484 67.5312C59.5703 67.6094 59.5313 67.7266 59.5313 67.8828ZM54.7266 71.8672H53.6719V68.1172C53.6719 68.1172 53.6719 68.0781 53.6719 68C53.6719 67.9219 53.6719 67.8438 53.6719 67.7656C53.6719 67.6094 53.6719 67.4922 53.6719 67.4141C53.6719 67.3359 53.6719 67.2969 53.6719 67.2969L52.5 71.8672H51.3281L50.2734 67.2969C50.2734 67.2969 50.2734 67.3359 50.2734 67.4141C50.2734 67.4922 50.2734 67.6094 50.2734 67.7656C50.2734 67.8438 50.2734 67.9219 50.2734 68C50.2734 68.0781 50.2734 68.1172 50.2734 68.1172V71.8672H49.1016V66.3594H50.9766L52.0313 70.6953L53.0859 66.3594H54.7266V71.8672Z" fill="black"/>
</svg>
