<svg width="121" height="121" viewBox="0 0 121 121" fill="none" xmlns="http://www.w3.org/2000/svg">
<path d="M87.1289 84.2891H63.1055V60.2656C63.1055 60.0312 63.0273 59.8164 62.8711 59.6211C62.7148 59.4258 62.5195 59.3281 62.2852 59.3281H12.5977C12.3633 59.3281 12.168 59.4258 12.0117 59.6211C11.8555 59.8164 11.7773 60.0312 11.7773 60.2656V85.1094V109.953C11.7773 110.188 11.8555 110.383 12.0117 110.539C12.168 110.695 12.3633 110.773 12.5977 110.773H87.1289C87.3633 110.773 87.5586 110.695 87.7148 110.539C87.8711 110.383 87.9492 110.188 87.9492 109.953V85.1094C87.9492 84.875 87.8711 84.6797 87.7148 84.5234C87.5586 84.3672 87.3633 84.2891 87.1289 84.2891ZM36.6211 109.133H13.418V85.9297H36.6211V109.133ZM36.6211 84.2891H13.418V61.0859H36.6211V84.2891ZM61.4648 109.133H38.2617V85.9297H61.4648V109.133ZM61.4648 84.2891H38.2617V61.0859H61.4648V84.2891ZM86.3086 109.133H63.1055V85.9297H86.3086V109.133ZM20.8008 80.8906C21.0352 80.8906 21.2305 80.8125 21.3867 80.6562C21.543 80.5 21.6211 80.3047 21.6211 80.0703V65.5391C21.6211 65.3828 21.543 65.207 21.3867 65.0117C21.2305 64.8164 21.0352 64.7188 20.8008 64.7188C20.5664 64.7188 20.3711 64.8164 20.2148 65.0117C20.0586 65.207 19.9805 65.3828 19.9805 65.5391V80.0703C19.9805 80.3047 20.0586 80.5 20.2148 80.6562C20.3711 80.8125 20.5664 80.8906 20.8008 80.8906ZM29.1211 80.8906C29.3555 80.8906 29.5508 80.8125 29.707 80.6562C29.8633 80.5 29.9414 80.3047 29.9414 80.0703V65.5391C29.9414 65.3828 29.8633 65.207 29.707 65.0117C29.5508 64.8164 29.3555 64.7188 29.1211 64.7188C28.8867 64.7188 28.6914 64.8164 28.5352 65.0117C28.3789 65.207 28.3008 65.3828 28.3008 65.5391V80.0703C28.3008 80.3047 28.3789 80.5 28.5352 80.6562C28.6914 80.8125 28.8867 80.8906 29.1211 80.8906ZM45.6445 80.8906C45.8789 80.8906 46.0742 80.8125 46.2305 80.6562C46.3867 80.5 46.4648 80.3047 46.4648 80.0703V65.5391C46.4648 65.3828 46.3867 65.207 46.2305 65.0117C46.0742 64.8164 45.8789 64.7188 45.6445 64.7188C45.4102 64.7188 45.2148 64.8164 45.0586 65.0117C44.9023 65.207 44.8242 65.3828 44.8242 65.5391V80.0703C44.8242 80.3047 44.9023 80.5 45.0586 80.6562C45.2148 80.8125 45.4102 80.8906 45.6445 80.8906ZM53.9648 80.8906C54.1992 80.8906 54.3945 80.8125 54.5508 80.6562C54.707 80.5 54.7852 80.3047 54.7852 80.0703V65.5391C54.7852 65.3828 54.707 65.207 54.5508 65.0117C54.3945 64.8164 54.1992 64.7188 53.9648 64.7188C53.7305 64.7188 53.5352 64.8164 53.3789 65.0117C53.2227 65.207 53.1445 65.3828 53.1445 65.5391V80.0703C53.1445 80.3047 53.2227 80.5 53.3789 80.6562C53.5352 80.8125 53.7305 80.8906 53.9648 80.8906ZM20.8008 105.617C21.0352 105.617 21.2305 105.52 21.3867 105.324C21.543 105.129 21.6211 104.953 21.6211 104.797V90.2656C21.6211 90.0312 21.543 89.8359 21.3867 89.6797C21.2305 89.5234 21.0352 89.4453 20.8008 89.4453C20.5664 89.4453 20.3711 89.5234 20.2148 89.6797C20.0586 89.8359 19.9805 90.0312 19.9805 90.2656V104.797C19.9805 104.953 20.0586 105.129 20.2148 105.324C20.3711 105.52 20.5664 105.617 20.8008 105.617ZM45.6445 105.617C45.8789 105.617 46.0742 105.52 46.2305 105.324C46.3867 105.129 46.4648 104.953 46.4648 104.797V90.2656C46.4648 90.0312 46.3867 89.8359 46.2305 89.6797C46.0742 89.5234 45.8789 89.4453 45.6445 89.4453C45.4102 89.4453 45.2148 89.5234 45.0586 89.6797C44.9023 89.8359 44.8242 90.0312 44.8242 90.2656V104.797C44.8242 104.953 44.9023 105.129 45.0586 105.324C45.2148 105.52 45.4102 105.617 45.6445 105.617ZM70.4883 105.617C70.7227 105.617 70.918 105.52 71.0742 105.324C71.2305 105.129 71.3086 104.953 71.3086 104.797V90.2656C71.3086 90.0312 71.2305 89.8359 71.0742 89.6797C70.918 89.5234 70.7227 89.4453 70.4883 89.4453C70.2539 89.4453 70.0586 89.5234 69.9023 89.6797C69.7461 89.8359 69.668 90.0312 69.668 90.2656V104.797C69.668 104.953 69.7461 105.129 69.9023 105.324C70.0586 105.52 70.2539 105.617 70.4883 105.617ZM29.1211 105.617C29.3555 105.617 29.5508 105.52 29.707 105.324C29.8633 105.129 29.9414 104.953 29.9414 104.797V90.2656C29.9414 90.0312 29.8633 89.8359 29.707 89.6797C29.5508 89.5234 29.3555 89.4453 29.1211 89.4453C28.8867 89.4453 28.6914 89.5234 28.5352 89.6797C28.3789 89.8359 28.3008 90.0312 28.3008 90.2656V104.797C28.3008 104.953 28.3789 105.129 28.5352 105.324C28.6914 105.52 28.8867 105.617 29.1211 105.617ZM53.9648 105.617C54.1992 105.617 54.3945 105.52 54.5508 105.324C54.707 105.129 54.7852 104.953 54.7852 104.797V90.2656C54.7852 90.0312 54.707 89.8359 54.5508 89.6797C54.3945 89.5234 54.1992 89.4453 53.9648 89.4453C53.7305 89.4453 53.5352 89.5234 53.3789 89.6797C53.2227 89.8359 53.1445 90.0312 53.1445 90.2656V104.797C53.1445 104.953 53.2227 105.129 53.3789 105.324C53.5352 105.52 53.7305 105.617 53.9648 105.617ZM78.8086 105.617C79.043 105.617 79.2383 105.52 79.3945 105.324C79.5508 105.129 79.6289 104.953 79.6289 104.797V90.2656C79.6289 90.0312 79.5508 89.8359 79.3945 89.6797C79.2383 89.5234 79.043 89.4453 78.8086 89.4453C78.5742 89.4453 78.3789 89.5234 78.2227 89.6797C78.0664 89.8359 77.9883 90.0312 77.9883 90.2656V104.797C77.9883 104.953 78.0664 105.129 78.2227 105.324C78.3789 105.52 78.5742 105.617 78.8086 105.617ZM103.301 36.3594C103.301 35.5 103.027 34.8164 102.48 34.3086C101.934 33.8008 101.23 33.5469 100.371 33.5469C100.137 33.5469 99.8828 33.5469 99.6094 33.5469C99.3359 33.5469 99.0039 33.5469 98.6133 33.5469C98.457 33.5469 98.2617 33.5469 98.0273 33.5469C97.793 33.5469 97.5586 33.5469 97.3242 33.5469C97.0898 33.5469 96.875 33.5469 96.6797 33.5469C96.4844 33.5469 96.2695 33.5469 96.0352 33.5469H85.6055C83.3398 33.5469 80.8789 33.5469 78.2227 33.5469C75.5664 33.5469 72.8711 33.5469 70.1367 33.5469C69.8242 33.5469 69.4922 33.4688 69.1406 33.3125C68.7891 33.1562 68.5352 32.8047 68.3789 32.2578C68.3008 32.1797 68.2422 32.1016 68.2031 32.0234C68.1641 31.9453 68.1055 31.8281 68.0273 31.6719C68.0273 31.6719 68.0078 31.6328 67.9688 31.5547C67.9297 31.4766 67.8711 31.3984 67.793 31.3203L67.4414 30.5L68.2617 30.3828C68.2617 30.3828 68.2812 30.3828 68.3203 30.3828C68.3594 30.3828 68.3789 30.3828 68.3789 30.3828C69.082 30.3047 69.9414 30.207 70.957 30.0898C71.9727 29.9727 72.6758 29.9141 73.0664 29.9141C73.3008 29.8359 73.5547 29.7969 73.8281 29.7969C74.1016 29.7969 74.3945 29.7578 74.707 29.6797C75.4102 29.6016 76.1328 29.5234 76.875 29.4453C77.6172 29.3672 78.3398 29.2891 79.043 29.2109C79.1211 29.2109 79.1797 29.2109 79.2188 29.2109C79.2578 29.2109 79.2773 29.1719 79.2773 29.0938C79.5898 29.0938 79.8047 28.9961 79.9219 28.8008C80.0391 28.6055 80.0977 28.3516 80.0977 28.0391C80.0195 27.8047 79.9023 27.6289 79.7461 27.5117C79.5898 27.3945 79.3945 27.3359 79.1602 27.3359C79.082 27.3359 79.0234 27.3359 78.9844 27.3359C78.9453 27.3359 78.9258 27.3359 78.9258 27.3359C78.8477 27.3359 78.7891 27.3359 78.75 27.3359C78.7109 27.3359 78.6914 27.3359 78.6914 27.3359C78.6133 27.3359 78.5547 27.3359 78.5156 27.3359C78.4766 27.3359 78.457 27.3359 78.457 27.3359C78.3789 27.3359 78.2812 27.3555 78.1641 27.3945C78.0469 27.4336 77.9102 27.4531 77.7539 27.4531C76.8945 27.5313 76.0547 27.6094 75.2344 27.6875C74.4141 27.7656 73.6133 27.8828 72.832 28.0391L70.8398 28.2734C70.5273 28.2734 70.1953 28.293 69.8438 28.332C69.4922 28.3711 69.1602 28.4297 68.8477 28.5078C68.3789 28.5078 67.8906 28.5469 67.3828 28.625C66.875 28.7031 66.3867 28.7422 65.918 28.7422C65.918 28.7422 65.8984 28.7617 65.8594 28.8008C65.8203 28.8398 65.7617 28.8594 65.6836 28.8594C65.6055 28.8594 65.5078 28.8398 65.3906 28.8008C65.2734 28.7617 65.1758 28.7422 65.0977 28.7422C64.707 28.5078 64.2969 28.3125 63.8672 28.1562C63.4375 28 63.0273 27.8047 62.6367 27.5703L61.3477 27.1016V21.9453C61.3477 20.1484 61.3477 18.3711 61.3477 16.6133C61.3477 14.8555 61.3477 13.0781 61.3477 11.2812C61.3477 10.9687 61.2891 10.7344 61.1719 10.5781C61.0547 10.4219 60.8789 10.3047 60.6445 10.2266C60.5664 10.2266 60.5273 10.2266 60.5273 10.2266C60.5273 10.2266 60.4883 10.2266 60.4102 10.2266C60.332 10.2266 60.293 10.2266 60.293 10.2266C60.293 10.2266 60.2539 10.2266 60.1758 10.2266C59.9414 10.3047 59.7656 10.4219 59.6484 10.5781C59.5312 10.7344 59.4727 10.9687 59.4727 11.2812C59.4727 13.0781 59.4727 14.8555 59.4727 16.6133C59.4727 18.3711 59.4727 20.1484 59.4727 21.9453V27.1016L58.1836 27.5703C57.793 27.8047 57.3828 28 56.9531 28.1562C56.5234 28.3125 56.1133 28.5078 55.7227 28.7422C55.6445 28.7422 55.5469 28.7617 55.4297 28.8008C55.3125 28.8398 55.2148 28.8594 55.1367 28.8594C55.0586 28.8594 55 28.8398 54.9609 28.8008C54.9219 28.7617 54.9023 28.7422 54.9023 28.7422C54.4336 28.7422 53.9453 28.7031 53.4375 28.625C52.9297 28.5469 52.4414 28.5078 51.9727 28.5078C51.6602 28.4297 51.3281 28.3711 50.9766 28.332C50.625 28.293 50.293 28.2734 49.9805 28.2734L47.9883 28.0391C47.207 27.8828 46.4062 27.7656 45.5859 27.6875C44.7656 27.6094 43.9258 27.5313 43.0664 27.4531C42.9102 27.4531 42.7734 27.4336 42.6562 27.3945C42.5391 27.3555 42.4414 27.3359 42.3633 27.3359C42.3633 27.3359 42.3438 27.3359 42.3047 27.3359C42.2656 27.3359 42.2461 27.3359 42.2461 27.3359C42.168 27.3359 42.1094 27.3359 42.0703 27.3359C42.0312 27.3359 41.9727 27.3359 41.8945 27.3359C41.8945 27.3359 41.875 27.3359 41.8359 27.3359C41.7969 27.3359 41.7383 27.3359 41.6602 27.3359C41.4258 27.3359 41.2305 27.3945 41.0742 27.5117C40.918 27.6289 40.8008 27.8047 40.7227 28.0391C40.7227 28.3516 40.7812 28.6055 40.8984 28.8008C41.0156 28.9961 41.2305 29.0938 41.543 29.0938C41.543 29.1719 41.582 29.2109 41.6602 29.2109C41.7383 29.2109 41.7773 29.2109 41.7773 29.2109C42.4805 29.2891 43.2031 29.3672 43.9453 29.4453C44.6875 29.5234 45.4102 29.6016 46.1133 29.6797C46.4258 29.7578 46.7188 29.7969 46.9922 29.7969C47.2656 29.7969 47.5195 29.8359 47.7539 29.9141C48.1445 29.9141 48.8477 29.9727 49.8633 30.0898C50.8789 30.207 51.7383 30.3047 52.4414 30.3828C52.4414 30.3828 52.4609 30.3828 52.5 30.3828C52.5391 30.3828 52.5586 30.3828 52.5586 30.3828L53.3789 30.5L53.0273 31.3203C52.9492 31.3984 52.8906 31.4766 52.8516 31.5547C52.8125 31.6328 52.793 31.6719 52.793 31.6719C52.7148 31.8281 52.6563 31.9453 52.6172 32.0234C52.5781 32.1016 52.5195 32.1797 52.4414 32.2578C52.3633 32.8047 52.1289 33.1562 51.7383 33.3125C51.3477 33.4688 50.9961 33.5469 50.6836 33.5469C47.9492 33.5469 45.2539 33.5469 42.5977 33.5469C39.9414 33.5469 37.4805 33.5469 35.2148 33.5469H24.7852C24.5508 33.5469 24.3359 33.5469 24.1406 33.5469C23.9453 33.5469 23.7305 33.5469 23.4961 33.5469C23.2617 33.5469 23.0273 33.5469 22.793 33.5469C22.5586 33.5469 22.3633 33.5469 22.207 33.5469C21.8164 33.5469 21.4844 33.5469 21.2109 33.5469C20.9375 33.5469 20.6836 33.5469 20.4492 33.5469C19.5898 33.5469 18.8867 33.8008 18.3398 34.3086C17.793 34.8164 17.5195 35.5 17.5195 36.3594C17.5195 36.4375 17.5195 36.4766 17.5195 36.4766C17.5195 37.2578 17.7734 37.9023 18.2812 38.4102C18.7891 38.918 19.4727 39.2109 20.332 39.2891C21.2695 39.3672 22.207 39.4258 23.1445 39.4648C24.082 39.5039 25.0195 39.5625 25.957 39.6406C26.6602 39.6406 27.3438 39.6602 28.0078 39.6992C28.6719 39.7383 29.3555 39.7969 30.0586 39.875C30.6055 39.875 31.1328 39.8945 31.6406 39.9336C32.1484 39.9727 32.6367 40.0312 33.1055 40.1094L35.4492 40.2266L35.0977 41.0469C34.5508 42.2969 34.3945 43.4297 34.6289 44.4453C34.8633 45.4609 35.4883 46.3594 36.5039 47.1406C36.8945 47.4531 37.3242 47.707 37.793 47.9023C38.2617 48.0977 38.7695 48.1953 39.3164 48.1953C39.7852 48.1953 40.2148 48.1367 40.6055 48.0195C40.9961 47.9023 41.3867 47.7266 41.7773 47.4922C42.8711 46.8672 43.5938 46.0664 43.9453 45.0898C44.2969 44.1133 44.2773 42.9609 43.8867 41.6328L43.7695 40.9297L44.4727 40.8125C44.5508 40.8125 44.6094 40.8125 44.6484 40.8125C44.6875 40.8125 44.7461 40.8125 44.8242 40.8125L45.9961 40.9297C46.8555 40.9297 47.7344 40.9687 48.6328 41.0469C49.5312 41.125 50.4492 41.2031 51.3867 41.2812C51.6211 41.2812 51.8359 41.3789 52.0312 41.5742C52.2266 41.7695 52.3633 41.9453 52.4414 42.1016C53.1445 43.5859 54.1602 44.7578 55.4883 45.6172C56.8164 46.4766 58.3008 46.9453 59.9414 47.0234C59.9414 47.0234 59.9609 47.0234 60 47.0234C60.0391 47.0234 60.0586 47.0234 60.0586 47.0234C60.1367 47.0234 60.1953 47.043 60.2344 47.082C60.2734 47.1211 60.332 47.1406 60.4102 47.1406C60.4883 47.1406 60.5469 47.1211 60.5859 47.082C60.625 47.043 60.6836 47.0234 60.7617 47.0234C60.7617 47.0234 60.7812 47.0234 60.8203 47.0234C60.8594 47.0234 60.8789 47.0234 60.8789 47.0234C62.5195 46.9453 64.0039 46.4766 65.332 45.6172C66.6602 44.7578 67.6758 43.5859 68.3789 42.1016C68.457 41.9453 68.5938 41.7695 68.7891 41.5742C68.9844 41.3789 69.1992 41.2812 69.4336 41.2812C70.3711 41.2031 71.2891 41.125 72.1875 41.0469C73.0859 40.9687 74.0039 40.9297 74.9414 40.9297L75.9961 40.8125C76.0742 40.8125 76.1328 40.8125 76.1719 40.8125C76.2109 40.8125 76.2695 40.8125 76.3477 40.8125L77.0508 40.9297L76.9336 41.6328C76.543 42.9609 76.5234 44.1133 76.875 45.0898C77.2266 46.0664 77.9492 46.8672 79.043 47.4922C79.4336 47.7266 79.8242 47.9023 80.2148 48.0195C80.6055 48.1367 81.0352 48.1953 81.5039 48.1953C82.0508 48.1953 82.5781 48.0977 83.0859 47.9023C83.5938 47.707 84.043 47.4531 84.4336 47.1406C85.3711 46.3594 85.957 45.4609 86.1914 44.4453C86.4258 43.4297 86.2695 42.2969 85.7227 41.0469L85.3711 40.2266L87.7148 40.1094C88.1836 40.0312 88.6719 39.9727 89.1797 39.9336C89.6875 39.8945 90.2148 39.875 90.7617 39.875C91.4648 39.7969 92.1484 39.7383 92.8125 39.6992C93.4766 39.6602 94.1602 39.6406 94.8633 39.6406C95.8008 39.5625 96.7383 39.5039 97.6758 39.4648C98.6133 39.4258 99.5898 39.3672 100.605 39.2891C101.387 39.2109 102.031 38.918 102.539 38.4102C103.047 37.9023 103.301 37.2578 103.301 36.4766C103.301 36.4766 103.301 36.4375 103.301 36.3594ZM53.6133 39.0547C53.6133 38.5078 53.6133 37.9609 53.6133 37.4141C53.6133 36.8672 53.6133 36.3594 53.6133 35.8906C53.6914 34.1719 54.2969 32.6875 55.4297 31.4375C56.5625 30.1875 57.9883 29.4844 59.707 29.3281C59.7852 29.25 59.8828 29.2109 60 29.2109C60.1172 29.2109 60.2539 29.2109 60.4102 29.2109C60.5664 29.2109 60.7031 29.2109 60.8203 29.2109C60.9375 29.2109 61.0352 29.25 61.1133 29.3281C62.832 29.4844 64.2578 30.1875 65.3906 31.4375C66.5234 32.6875 67.1289 34.1719 67.207 35.8906C67.207 36.3594 67.207 36.8672 67.207 37.4141C67.207 37.9609 67.207 38.5078 67.207 39.0547C67.0508 40.6953 66.3086 42.1211 64.9805 43.332C63.6523 44.543 62.1289 45.1875 60.4102 45.2656C58.6914 45.1875 57.168 44.543 55.8398 43.332C54.5117 42.1211 53.7695 40.6953 53.6133 39.0547ZM39.5508 46.3203C38.5352 46.3203 37.7344 46.0469 37.1484 45.5C36.5625 44.9531 36.2695 44.25 36.2695 43.3906C36.2695 43 36.3281 42.6289 36.4453 42.2773C36.5625 41.9258 36.7773 41.6328 37.0898 41.3984C37.4023 41.0859 37.7539 40.8516 38.1445 40.6953C38.5352 40.5391 38.9648 40.4609 39.4336 40.4609C40.3711 40.4609 41.1328 40.7344 41.7188 41.2812C42.3047 41.8281 42.5977 42.5312 42.5977 43.3906C42.5977 44.1719 42.3047 44.8555 41.7188 45.4414C41.1328 46.0273 40.4102 46.3203 39.5508 46.3203ZM37.5586 38.4688C36.2305 38.3906 34.9023 38.3125 33.5742 38.2344C32.2461 38.1562 30.918 38.0781 29.5898 38C29.1211 37.9219 28.6719 37.8828 28.2422 37.8828C27.8125 37.8828 27.4023 37.8438 27.0117 37.7656C25.918 37.7656 24.8438 37.7266 23.7891 37.6484C22.7344 37.5703 21.6602 37.4922 20.5664 37.4141C20.4102 37.4141 20.2539 37.375 20.0977 37.2969C19.9414 37.2187 19.8242 37.1406 19.7461 37.0625C19.7461 36.9844 19.7266 36.9453 19.6875 36.9453C19.6484 36.9453 19.6289 36.9453 19.6289 36.9453L19.2773 36.7109C19.2773 36.7109 19.2773 36.6914 19.2773 36.6523C19.2773 36.6133 19.2773 36.5938 19.2773 36.5938C19.3555 36.4375 19.4141 36.2813 19.4531 36.125C19.4922 35.9687 19.5508 35.8516 19.6289 35.7734C19.707 35.7734 19.7461 35.7734 19.7461 35.7734C19.7461 35.7734 19.7852 35.7734 19.8633 35.7734C19.9414 35.6953 20.0391 35.6172 20.1562 35.5391C20.2734 35.4609 20.4102 35.4219 20.5664 35.4219C21.4258 35.4219 22.2461 35.4219 23.0273 35.4219C23.8086 35.4219 24.5508 35.4219 25.2539 35.4219H37.9102C38.8477 35.4219 39.7656 35.4219 40.6641 35.4219C41.5625 35.4219 42.4805 35.4219 43.418 35.4219H50.5664C50.6445 35.4219 50.7031 35.4219 50.7422 35.4219C50.7813 35.4219 50.8398 35.4219 50.918 35.4219C50.918 35.4219 50.9375 35.4414 50.9766 35.4805C51.0156 35.5195 51.0742 35.5391 51.1523 35.5391H51.6211V39.2891L49.8633 39.1719C49.7852 39.1719 49.7461 39.1719 49.7461 39.1719C49.668 39.1719 49.6094 39.1719 49.5703 39.1719C49.5312 39.1719 49.4727 39.1719 49.3945 39.1719C49.0039 39.1719 48.5938 39.1523 48.1641 39.1133C47.7344 39.0742 47.3242 39.0547 46.9336 39.0547C45.3711 38.9766 43.8086 38.8789 42.2461 38.7617C40.6836 38.6445 39.1211 38.5469 37.5586 38.4688ZM81.2695 46.3203C80.4102 46.3203 79.6875 46.0273 79.1016 45.4414C78.5156 44.8555 78.2227 44.1719 78.2227 43.3906C78.2227 42.5312 78.5156 41.8281 79.1016 41.2812C79.6875 40.7344 80.4492 40.4609 81.3867 40.4609C81.8555 40.4609 82.2852 40.5391 82.6758 40.6953C83.0664 40.8516 83.418 41.0859 83.7305 41.3984C84.043 41.6328 84.2578 41.9258 84.375 42.2773C84.4922 42.6289 84.5508 43 84.5508 43.3906C84.5508 44.25 84.2578 44.9531 83.6719 45.5C83.0859 46.0469 82.2852 46.3203 81.2695 46.3203ZM101.074 37.0625C100.996 37.1406 100.879 37.2187 100.723 37.2969C100.566 37.375 100.41 37.4141 100.254 37.4141C99.1602 37.4922 98.0859 37.5703 97.0312 37.6484C95.9766 37.7266 94.9023 37.7656 93.8086 37.7656C93.418 37.8438 93.0078 37.8828 92.5781 37.8828C92.1484 37.8828 91.6992 37.9219 91.2305 38C89.9023 38.0781 88.5742 38.1562 87.2461 38.2344C85.918 38.3125 84.5898 38.3906 83.2617 38.4688C81.6992 38.5469 80.1367 38.6445 78.5742 38.7617C77.0117 38.8789 75.4492 38.9766 73.8867 39.0547C73.4961 39.0547 73.0859 39.0742 72.6562 39.1133C72.2266 39.1523 71.8164 39.1719 71.4258 39.1719C71.3477 39.1719 71.2891 39.1719 71.25 39.1719C71.2109 39.1719 71.1523 39.1719 71.0742 39.1719C71.0742 39.1719 71.0352 39.1719 70.957 39.1719L69.1992 39.2891V35.5391H69.668C69.7461 35.5391 69.8047 35.5195 69.8438 35.4805C69.8828 35.4414 69.9023 35.4219 69.9023 35.4219C69.9805 35.4219 70.0391 35.4219 70.0781 35.4219C70.1172 35.4219 70.1758 35.4219 70.2539 35.4219H77.4023C78.3398 35.4219 79.2578 35.4219 80.1562 35.4219C81.0547 35.4219 81.9727 35.4219 82.9102 35.4219H95.5664C96.2695 35.4219 97.0117 35.4219 97.793 35.4219C98.5742 35.4219 99.3945 35.4219 100.254 35.4219C100.41 35.4219 100.547 35.4609 100.664 35.5391C100.781 35.6172 100.879 35.6953 100.957 35.7734C101.035 35.7734 101.074 35.7734 101.074 35.7734C101.074 35.7734 101.113 35.7734 101.191 35.7734C101.27 35.8516 101.328 35.9687 101.367 36.125C101.406 36.2813 101.465 36.4375 101.543 36.5938C101.543 36.5938 101.543 36.6133 101.543 36.6523C101.543 36.6914 101.543 36.7109 101.543 36.7109L101.191 36.9453C101.191 36.9453 101.172 36.9453 101.133 36.9453C101.094 36.9453 101.074 36.9844 101.074 37.0625ZM60.293 32.6094C59.5117 32.6875 58.7891 32.8828 58.125 33.1953C57.4609 33.5078 56.9336 33.9766 56.543 34.6016C56.3867 34.8359 56.3086 35.0703 56.3086 35.3047C56.3086 35.5391 56.4258 35.7344 56.6602 35.8906C56.7383 35.9688 56.8359 36.0273 56.9531 36.0664C57.0703 36.1055 57.168 36.125 57.2461 36.125C57.3242 36.125 57.4219 36.1055 57.5391 36.0664C57.6562 36.0273 57.793 35.9297 57.9492 35.7734C58.1836 35.3828 58.5156 35.0898 58.9453 34.8945C59.375 34.6992 59.8633 34.6016 60.4102 34.6016C60.8789 34.6016 61.3281 34.6992 61.7578 34.8945C62.1875 35.0898 62.5586 35.3828 62.8711 35.7734C62.9492 35.9297 63.0469 36.0273 63.1641 36.0664C63.2812 36.1055 63.3789 36.125 63.457 36.125C63.6133 36.125 63.7695 36.0664 63.9258 35.9492C64.082 35.832 64.2383 35.6953 64.3945 35.5391C64.3945 35.3828 64.3945 35.207 64.3945 35.0117C64.3945 34.8164 64.2773 34.5625 64.043 34.25C63.4961 33.7031 62.9297 33.3125 62.3438 33.0781C61.7578 32.8438 61.0742 32.6875 60.293 32.6094Z" fill="black"/>
</svg>
