<svg width="121" height="121" viewBox="0 0 121 121" fill="none" xmlns="http://www.w3.org/2000/svg">
<path d="M20.6016 43.3906C20.9141 43.3906 21.168 43.293 21.3633 43.0977C21.5586 42.9023 21.6562 42.6484 21.6562 42.3359L21.7734 32.8438C21.7734 32.7656 21.8125 32.668 21.8906 32.5508C21.9688 32.4336 22.0859 32.3359 22.2422 32.2578L35.6016 27.8047C35.8359 27.7266 36.0312 27.5898 36.1875 27.3945C36.3438 27.1992 36.3828 26.9453 36.3047 26.6328V26.2812C36.3047 26.2031 36.3242 26.1445 36.3633 26.1055C36.4023 26.0664 36.4219 26.0469 36.4219 26.0469H43.3359C43.4141 26.0469 43.4727 26.0664 43.5117 26.1055C43.5508 26.1445 43.5703 26.2031 43.5703 26.2812V26.6328C43.4922 26.9453 43.5117 27.1992 43.6289 27.3945C43.7461 27.5898 43.9219 27.7266 44.1562 27.8047L57.6328 32.2578C57.7109 32.3359 57.8086 32.4336 57.9258 32.5508C58.043 32.668 58.1016 32.7656 58.1016 32.8438L58.2188 42.3359C58.2188 42.6484 58.3164 42.9023 58.5117 43.0977C58.707 43.293 58.9219 43.3906 59.1562 43.3906C59.4688 43.3906 59.7227 43.293 59.918 43.0977C60.1133 42.9023 60.2109 42.6484 60.2109 42.3359L60.0938 32.8438C60.0938 32.2969 59.918 31.7891 59.5664 31.3203C59.2148 30.8516 58.7656 30.5391 58.2188 30.3828L45.5625 26.1641C45.4844 25.6172 45.25 25.1289 44.8594 24.6992C44.4688 24.2695 43.9609 24.0547 43.3359 24.0547H36.4219C35.875 24.0547 35.3867 24.2695 34.957 24.6992C34.5273 25.1289 34.3125 25.6172 34.3125 26.1641L21.6562 30.3828C21.1094 30.5391 20.6602 30.8516 20.3086 31.3203C19.957 31.7891 19.7812 32.2969 19.7812 32.8438L19.6641 42.3359C19.6641 42.4922 19.6836 42.6289 19.7227 42.7461C19.7617 42.8633 19.8203 42.9609 19.8984 43.0391C20.0547 43.1953 20.1914 43.293 20.3086 43.332C20.4258 43.3711 20.5234 43.3906 20.6016 43.3906ZM45.5625 30.5C45.25 30.4219 44.9375 30.4023 44.625 30.4414C44.3125 30.4805 44.0391 30.5781 43.8047 30.7344C43.6484 30.8906 43.4922 31.0859 43.3359 31.3203C43.1797 31.5547 43.1016 31.8281 43.1016 32.1406V34.7188C43.1016 35.2656 43.2773 35.7539 43.6289 36.1836C43.9805 36.6133 44.3906 36.9062 44.8594 37.0625L53.7656 39.9922C53.9219 40.0703 54.0391 40.1094 54.1172 40.1094C54.1953 40.1094 54.3125 40.1094 54.4688 40.1094C54.625 40.1094 54.8008 40.0898 54.9961 40.0508C55.1914 40.0117 55.3281 39.9141 55.4062 39.7578C55.6406 39.6016 55.8164 39.4062 55.9336 39.1719C56.0508 38.9375 56.1094 38.6641 56.1094 38.3516V35.7734C56.1094 35.3047 55.9531 34.8359 55.6406 34.3672C55.3281 33.8984 54.8984 33.5859 54.3516 33.4297L45.5625 30.5ZM54.2344 35.7734V38L45.5625 35.1875C45.4062 35.1875 45.2891 35.1289 45.2109 35.0117C45.1328 34.8945 45.0938 34.7969 45.0938 34.7188V32.4922L53.7656 35.3047C53.9219 35.3047 54.0391 35.3633 54.1172 35.4805C54.1953 35.5977 54.2344 35.6953 54.2344 35.7734ZM35.9531 30.7344C35.7188 30.5781 35.4648 30.4805 35.1914 30.4414C34.918 30.4023 34.625 30.4219 34.3125 30.5L25.4062 33.4297C24.9375 33.5859 24.5273 33.8984 24.1758 34.3672C23.8242 34.8359 23.6484 35.3047 23.6484 35.7734V38.3516C23.6484 38.6641 23.707 38.9375 23.8242 39.1719C23.9414 39.4062 24.1172 39.6016 24.3516 39.7578C24.5078 39.9141 24.6641 40.0117 24.8203 40.0508C24.9766 40.0898 25.1719 40.1094 25.4062 40.1094C25.4844 40.1094 25.582 40.1094 25.6992 40.1094C25.8164 40.1094 25.9141 40.0703 25.9922 39.9922L34.8984 37.0625C35.4453 36.9062 35.875 36.6133 36.1875 36.1836C36.5 35.7539 36.6562 35.2656 36.6562 34.7188V32.1406C36.6562 31.8281 36.5977 31.5547 36.4805 31.3203C36.3633 31.0859 36.1875 30.8906 35.9531 30.7344ZM34.6641 32.4922V34.7188C34.6641 34.7969 34.625 34.8945 34.5469 35.0117C34.4687 35.1289 34.3906 35.1875 34.3125 35.1875L25.6406 38V35.7734C25.6406 35.6953 25.6797 35.5977 25.7578 35.4805C25.8359 35.3633 25.9141 35.3047 25.9922 35.3047L34.6641 32.4922ZM39.9375 57.6875C41.7344 57.6875 43.2773 57.0625 44.5664 55.8125C45.8555 54.5625 46.5 53 46.5 51.125C46.5 49.3281 45.8555 47.7852 44.5664 46.4961C43.2773 45.207 41.7344 44.5625 39.9375 44.5625C38.1406 44.5625 36.5977 45.207 35.3086 46.4961C34.0195 47.7852 33.375 49.3281 33.375 51.125C33.375 53 34.0195 54.5625 35.3086 55.8125C36.5977 57.0625 38.1406 57.6875 39.9375 57.6875ZM35.25 51.125C35.25 49.875 35.6992 48.8008 36.5977 47.9023C37.4961 47.0039 38.6094 46.5547 39.9375 46.5547C41.1875 46.5547 42.2617 47.0039 43.1602 47.9023C44.0586 48.8008 44.5078 49.875 44.5078 51.125C44.5078 52.4531 44.0586 53.5664 43.1602 54.4648C42.2617 55.3633 41.1875 55.8125 39.9375 55.8125C38.6875 55.8125 37.5938 55.3633 36.6562 54.4648C35.7188 53.5664 35.25 52.4531 35.25 51.125ZM18.7266 66.4766C18.7266 67.1016 18.9414 67.6289 19.3711 68.0586C19.8008 68.4883 20.2891 68.7031 20.8359 68.7031H59.0391C59.5859 68.7031 60.0742 68.4883 60.5039 68.0586C60.9336 67.6289 61.1484 67.1016 61.1484 66.4766V57.4531C61.1484 57.4531 61.1484 57.4336 61.1484 57.3945C61.1484 57.3555 61.1484 57.3359 61.1484 57.3359V47.2578C61.1484 46.7109 60.9727 46.2031 60.6211 45.7344C60.2695 45.2656 59.8203 44.9531 59.2734 44.7969L48.0234 41.0469C47.6328 40.8906 46.7344 40.6758 45.3281 40.4023C43.9219 40.1289 42.125 39.9922 39.9375 39.9922C37.8281 39.9922 36.0898 40.1289 34.7227 40.4023C33.3555 40.6758 32.4766 40.8906 32.0859 41.0469L20.6016 44.7969C20.0547 44.9531 19.6055 45.2656 19.2539 45.7344C18.9023 46.2031 18.7266 46.7109 18.7266 47.2578L18.6094 56.75C18.6094 56.8281 18.6289 56.9062 18.668 56.9844C18.707 57.0625 18.7266 57.1406 18.7266 57.2188V66.4766ZM20.6016 56.8672L20.7188 47.2578C20.7188 47.1797 20.7773 47.082 20.8945 46.9648C21.0117 46.8477 21.1094 46.75 21.1875 46.6719L32.5547 42.9219C32.6328 42.9219 33.3359 42.7656 34.6641 42.4531C35.9922 42.1406 37.75 41.9844 39.9375 41.9844C42.2812 41.9844 44.0781 42.1406 45.3281 42.4531C46.5781 42.7656 47.2031 42.9219 47.2031 42.9219C47.2813 42.9219 47.3203 42.9219 47.3203 42.9219L58.6875 46.6719C58.7656 46.75 58.8633 46.8477 58.9805 46.9648C59.0977 47.082 59.1562 47.1797 59.1562 47.2578V57.2188C59.1562 57.2969 59.1562 57.3359 59.1562 57.3359C59.1562 57.3359 59.1562 57.375 59.1562 57.4531V66.4766C59.1562 66.5547 59.1367 66.6133 59.0977 66.6523C59.0586 66.6914 59.0391 66.7109 59.0391 66.7109H20.8359C20.8359 66.7109 20.8164 66.6914 20.7773 66.6523C20.7383 66.6133 20.7188 66.5547 20.7188 66.4766V57.1016C20.7188 57.0234 20.6992 56.9648 20.6602 56.9258C20.6211 56.8867 20.6016 56.8672 20.6016 56.8672ZM66.6562 96.0078L58.5703 85.6953C58.5703 85.6953 58.5508 85.6758 58.5117 85.6367C58.4727 85.5977 58.4531 85.5781 58.4531 85.5781L54.1172 80.0703C54.3516 80.0703 54.5664 80.0313 54.7617 79.9531C54.957 79.875 55.1328 79.7969 55.2891 79.7188C55.9922 79.5625 56.5977 79.1328 57.1055 78.4297C57.6133 77.7266 57.8672 76.8672 57.8672 75.8516V70.4609C57.8672 70.1484 57.7695 69.8945 57.5742 69.6992C57.3789 69.5039 57.1641 69.4062 56.9297 69.4062C56.6953 69.4062 56.4805 69.5039 56.2852 69.6992C56.0898 69.8945 55.9922 70.1484 55.9922 70.4609V75.8516C55.9922 76.4766 55.8359 76.9453 55.5234 77.2578C55.2109 77.5703 54.9766 77.7656 54.8203 77.8438C54.7422 77.8438 54.7031 77.8438 54.7031 77.8438C54.3906 78 54.0391 78.1367 53.6484 78.2539C53.2578 78.3711 52.8281 78.4687 52.3594 78.5469C52.2812 78.5469 52.2227 78.5469 52.1836 78.5469C52.1445 78.5469 52.125 78.5469 52.125 78.5469C49 79.0937 44.9375 79.3477 39.9375 79.3086C34.9375 79.2695 30.9922 79.0156 28.1016 78.5469C28.0234 78.5469 27.9648 78.5469 27.9258 78.5469C27.8867 78.5469 27.8672 78.5469 27.8672 78.5469C27.3203 78.4687 26.8516 78.3711 26.4609 78.2539C26.0703 78.1367 25.7578 78 25.5234 77.8438C25.4453 77.8438 25.4062 77.8438 25.4062 77.8438C24.8594 77.6875 24.5273 77.3164 24.4102 76.7305C24.293 76.1445 24.2344 75.8516 24.2344 75.8516V70.4609C24.2344 70.1484 24.1367 69.8945 23.9414 69.6992C23.7461 69.5039 23.5312 69.4062 23.2969 69.4062C22.9844 69.4062 22.7305 69.5039 22.5352 69.6992C22.3398 69.8945 22.2422 70.1484 22.2422 70.4609V75.7344C22.2422 75.8125 22.3594 76.3984 22.5938 77.4922C22.8281 78.5859 23.5312 79.3281 24.7031 79.7188C24.8594 79.7969 25.0547 79.875 25.2891 79.9531C25.5234 80.0313 25.7578 80.1094 25.9922 80.1875L13.5703 96.0078C13.4141 96.2422 13.3359 96.4766 13.3359 96.7109C13.3359 96.9453 13.4531 97.1797 13.6875 97.4141C13.7656 97.4922 13.8633 97.5312 13.9805 97.5312C14.0977 97.5312 14.1953 97.5312 14.2734 97.5312C14.4297 97.5312 14.5859 97.5117 14.7422 97.4727C14.8984 97.4336 15.0156 97.3359 15.0938 97.1797L17.5547 94.0156H62.5547L65.1328 97.1797C65.2109 97.3359 65.3086 97.4336 65.4258 97.4727C65.543 97.5117 65.6797 97.5312 65.8359 97.5312C65.9922 97.5312 66.1094 97.5312 66.1875 97.5312C66.2656 97.5312 66.3828 97.4922 66.5391 97.4141C66.6953 97.1797 66.793 96.9453 66.832 96.7109C66.8711 96.4766 66.8125 96.2422 66.6562 96.0078ZM39.5859 81.3594C39.7422 81.3594 39.8594 81.3594 39.9375 81.3594C40.0156 81.3594 40.1328 81.3594 40.2891 81.3594C41.2266 81.3594 42.8867 81.3203 45.2695 81.2422C47.6523 81.1641 49.8984 80.9297 52.0078 80.5391L55.6406 85.2266H24.5859L28.2188 80.5391C29.8594 80.7734 31.7148 80.9492 33.7852 81.0664C35.8555 81.1836 37.7891 81.2812 39.5859 81.3594ZM22.9453 87.2188H57.1641L61.0312 92.0234H19.1953L22.9453 87.2188ZM97.7109 69.9922C98.4922 69.9922 99.1563 70.2656 99.7031 70.8125C100.25 71.3594 100.523 72.0234 100.523 72.8047C100.523 73.5859 100.25 74.2695 99.7031 74.8555C99.1563 75.4414 98.4922 75.7344 97.7109 75.7344C96.9297 75.7344 96.2461 75.4414 95.6602 74.8555C95.0742 74.2695 94.7812 73.5859 94.7812 72.8047C94.7812 72.0234 95.0742 71.3594 95.6602 70.8125C96.2461 70.2656 96.9297 69.9922 97.7109 69.9922ZM61.1484 73.7422H72.9844C73.2188 74.9141 73.7852 75.8711 74.6836 76.6133C75.582 77.3555 76.6172 77.7266 77.7891 77.7266C79.0391 77.7266 80.1133 77.3555 81.0117 76.6133C81.9102 75.8711 82.4766 74.9141 82.7109 73.7422H92.7891C93.0234 74.9141 93.5898 75.8711 94.4883 76.6133C95.3867 77.3555 96.4609 77.7266 97.7109 77.7266C98.8828 77.7266 99.918 77.3555 100.816 76.6133C101.715 75.8711 102.281 74.9141 102.516 73.7422H105.328C105.406 73.7422 105.523 73.7227 105.68 73.6836C105.836 73.6445 105.953 73.5859 106.031 73.5078C106.109 73.3516 106.187 73.2148 106.266 73.0977C106.344 72.9805 106.383 72.8438 106.383 72.6875L106.266 72.1016V52.2969C106.266 51.9844 106.168 51.7305 105.973 51.5352C105.777 51.3398 105.562 51.2422 105.328 51.2422H90.9141C90.6016 51.2422 90.3477 51.3398 90.1523 51.5352C89.957 51.7305 89.8594 51.9844 89.8594 52.2969L89.5078 64.0156H63.6094V66.0078H90.5625C90.7969 66.0078 91.0312 65.9102 91.2656 65.7148C91.5 65.5195 91.6172 65.3047 91.6172 65.0703L91.8516 53.3516H104.273V71.75H102.516C102.281 70.6563 101.715 69.7383 100.816 68.9961C99.918 68.2539 98.8828 67.8828 97.7109 67.8828C96.5391 67.8828 95.5039 68.2539 94.6055 68.9961C93.707 69.7383 93.1406 70.6563 92.9062 71.75H82.5938C82.3594 70.6563 81.793 69.7383 80.8945 68.9961C79.9961 68.2539 78.9609 67.8828 77.7891 67.8828C76.6172 67.8828 75.582 68.2539 74.6836 68.9961C73.7852 69.7383 73.2188 70.6563 72.9844 71.75H61.1484V73.7422ZM77.7891 69.9922C78.5703 69.9922 79.2539 70.2656 79.8398 70.8125C80.4258 71.3594 80.7188 72.0234 80.7188 72.8047C80.7188 73.5859 80.4258 74.2695 79.8398 74.8555C79.2539 75.4414 78.5703 75.7344 77.7891 75.7344C77.0078 75.7344 76.3437 75.4414 75.7969 74.8555C75.25 74.2695 74.9766 73.5859 74.9766 72.8047C74.9766 72.0234 75.25 71.3594 75.7969 70.8125C76.3437 70.2656 77.0078 69.9922 77.7891 69.9922ZM102.164 60.8516H99.2344V56.0469C99.2344 55.8125 99.1367 55.5977 98.9414 55.4023C98.7461 55.207 98.4922 55.1094 98.1797 55.1094C97.8672 55.1094 97.6133 55.207 97.418 55.4023C97.2227 55.5977 97.125 55.8125 97.125 56.0469V61.9062C97.125 62.1406 97.2227 62.3555 97.418 62.5508C97.6133 62.7461 97.8672 62.8438 98.1797 62.8438H102.164C102.398 62.8438 102.633 62.7461 102.867 62.5508C103.102 62.3555 103.219 62.1406 103.219 61.9062C103.219 61.5937 103.102 61.3398 102.867 61.1445C102.633 60.9492 102.398 60.8516 102.164 60.8516ZM63.6094 46.3203H85.9922V60.6172H63.6094V62.2578H86.9297C87.1641 62.2578 87.3594 62.1797 87.5156 62.0234C87.6719 61.8672 87.75 61.6719 87.75 61.4375V45.5C87.75 45.2656 87.6719 45.0703 87.5156 44.9141C87.3594 44.7578 87.1641 44.6797 86.9297 44.6797H63.6094V46.3203ZM64.6641 48.7812C64.4297 48.7812 64.2148 48.8594 64.0195 49.0156C63.8242 49.1719 63.7266 49.3672 63.7266 49.6016V57.2188C63.7266 57.4531 63.8242 57.6484 64.0195 57.8047C64.2148 57.9609 64.4297 58.0391 64.6641 58.0391C64.8984 58.0391 65.0937 57.9609 65.25 57.8047C65.4063 57.6484 65.4844 57.4531 65.4844 57.2188V49.6016C65.4844 49.3672 65.4063 49.1719 65.25 49.0156C65.0937 48.8594 64.8984 48.7812 64.6641 48.7812ZM70.5234 48.7812C70.2891 48.7812 70.0742 48.8594 69.8789 49.0156C69.6836 49.1719 69.5859 49.3672 69.5859 49.6016V57.2188C69.5859 57.4531 69.6836 57.6484 69.8789 57.8047C70.0742 57.9609 70.2891 58.0391 70.5234 58.0391C70.7578 58.0391 70.9531 57.9609 71.1094 57.8047C71.2656 57.6484 71.3438 57.4531 71.3438 57.2188V49.6016C71.3438 49.3672 71.2656 49.1719 71.1094 49.0156C70.9531 48.8594 70.7578 48.7812 70.5234 48.7812ZM76.3828 48.7812C76.1484 48.7812 75.9336 48.8594 75.7383 49.0156C75.543 49.1719 75.4453 49.3672 75.4453 49.6016V57.2188C75.4453 57.4531 75.543 57.6484 75.7383 57.8047C75.9336 57.9609 76.1484 58.0391 76.3828 58.0391C76.6172 58.0391 76.8125 57.9609 76.9688 57.8047C77.125 57.6484 77.2031 57.4531 77.2031 57.2188V49.6016C77.2031 49.3672 77.125 49.1719 76.9688 49.0156C76.8125 48.8594 76.6172 48.7812 76.3828 48.7812ZM81.4219 48.7812C81.1875 48.7812 80.9922 48.8594 80.8359 49.0156C80.6797 49.1719 80.6016 49.3672 80.6016 49.6016V57.2188C80.6016 57.4531 80.6797 57.6484 80.8359 57.8047C80.9922 57.9609 81.1875 58.0391 81.4219 58.0391C81.6562 58.0391 81.8711 57.9609 82.0664 57.8047C82.2617 57.6484 82.3594 57.4531 82.3594 57.2188V49.6016C82.3594 49.3672 82.2617 49.1719 82.0664 49.0156C81.8711 48.8594 81.6562 48.7812 81.4219 48.7812Z" fill="black"/>
</svg>
