<svg width="121" height="121" viewBox="0 0 121 121" fill="none" xmlns="http://www.w3.org/2000/svg">
<path d="M97.0312 63.1953H24.6094C24.375 63.1953 24.1406 63.0977 23.9062 62.9023C23.6719 62.707 23.5547 62.4922 23.5547 62.2578V17.2578C23.5547 17.0234 23.6719 16.8086 23.9062 16.6133C24.1406 16.418 24.375 16.3203 24.6094 16.3203H97.0312C97.2656 16.3203 97.4805 16.418 97.6758 16.6133C97.8711 16.8086 97.9688 17.0234 97.9688 17.2578V62.2578C97.9688 62.4922 97.8711 62.707 97.6758 62.9023C97.4805 63.0977 97.2656 63.1953 97.0312 63.1953ZM25.6641 61.2031H95.9766V18.3125H25.6641V61.2031ZM35.7422 50.7734C35.4297 50.7734 35.1758 50.6758 34.9805 50.4805C34.7852 50.2852 34.6875 50.0313 34.6875 49.7188V29.7969C34.6875 29.4844 34.7852 29.2305 34.9805 29.0352C35.1758 28.8398 35.4297 28.7422 35.7422 28.7422C35.9766 28.7422 36.1914 28.8398 36.3867 29.0352C36.582 29.2305 36.6797 29.4844 36.6797 29.7969V49.7188C36.6797 50.0313 36.582 50.2852 36.3867 50.4805C36.1914 50.6758 35.9766 50.7734 35.7422 50.7734ZM44.4141 50.7734C44.1016 50.7734 43.8477 50.6758 43.6523 50.4805C43.457 50.2852 43.3594 50.0313 43.3594 49.7188V29.7969C43.3594 29.4844 43.457 29.2305 43.6523 29.0352C43.8477 28.8398 44.1016 28.7422 44.4141 28.7422C44.6484 28.7422 44.8633 28.8398 45.0586 29.0352C45.2539 29.2305 45.3516 29.4844 45.3516 29.7969V49.7188C45.3516 50.0313 45.2539 50.2852 45.0586 50.4805C44.8633 50.6758 44.6484 50.7734 44.4141 50.7734ZM77.3438 50.7734C77.0312 50.7734 76.7773 50.6758 76.582 50.4805C76.3867 50.2852 76.2891 50.0313 76.2891 49.7188V29.7969C76.2891 29.4844 76.3867 29.2305 76.582 29.0352C76.7773 28.8398 77.0312 28.7422 77.3438 28.7422C77.5781 28.7422 77.8125 28.8398 78.0469 29.0352C78.2812 29.2305 78.3984 29.4844 78.3984 29.7969V49.7188C78.3984 50.0313 78.2812 50.2852 78.0469 50.4805C77.8125 50.6758 77.5781 50.7734 77.3438 50.7734ZM86.0156 50.7734C85.7031 50.7734 85.4492 50.6758 85.2539 50.4805C85.0586 50.2852 84.9609 50.0313 84.9609 49.7188V29.7969C84.9609 29.4844 85.0586 29.2305 85.2539 29.0352C85.4492 28.8398 85.7031 28.7422 86.0156 28.7422C86.25 28.7422 86.4844 28.8398 86.7188 29.0352C86.9531 29.2305 87.0703 29.4844 87.0703 29.7969V49.7188C87.0703 50.0313 86.9531 50.2852 86.7188 50.4805C86.4844 50.6758 86.25 50.7734 86.0156 50.7734ZM72.5391 39.5234C72.5391 39.5234 72.2852 39.6406 71.7773 39.875C71.2695 40.1094 70.625 40.2266 69.8438 40.2266V33.3125C69.8438 32.0625 69.4336 31.0273 68.6133 30.207C67.793 29.3867 66.7969 28.9766 65.625 28.9766C65 28.9766 64.3945 29.1133 63.8086 29.3867C63.2227 29.6602 62.7344 30.0312 62.3438 30.5C61.9531 30.0312 61.4844 29.6602 60.9375 29.3867C60.3906 29.1133 59.8047 28.9766 59.1797 28.9766C58.5547 28.9766 57.9883 29.0938 57.4805 29.3281C56.9727 29.5625 56.5234 29.875 56.1328 30.2656V29.2109H51.7969V40.2266C51.0156 40.2266 50.3711 40.1094 49.8633 39.875C49.3555 39.6406 49.1016 39.5234 49.1016 39.5234L48.6328 40.4609C48.6328 40.4609 48.9258 40.5781 49.5117 40.8125C50.0977 41.0469 50.8594 41.1641 51.7969 41.1641C52.7344 41.1641 53.4961 41.0273 54.082 40.7539C54.668 40.4805 55.4297 40.3438 56.3672 40.3438C57.2266 40.3438 57.9297 40.4805 58.4766 40.7539C59.0234 41.0273 59.8047 41.1641 60.8203 41.1641C61.9141 41.1641 62.7148 41.0273 63.2227 40.7539C63.7305 40.4805 64.4531 40.3438 65.3906 40.3438C66.25 40.3438 66.9727 40.4805 67.5586 40.7539C68.1445 41.0273 68.9062 41.1641 69.8438 41.1641C70.7031 41.1641 71.4453 41.0469 72.0703 40.8125C72.6953 40.5781 73.0078 40.4609 73.0078 40.4609L72.5391 39.5234ZM56.3672 39.2891C56.2891 39.2891 56.25 39.2891 56.25 39.2891V33.7812C56.25 33.4687 56.3672 33.1953 56.6016 32.9609C56.8359 32.7266 57.1094 32.6094 57.4219 32.6094C57.7344 32.6094 58.0078 32.7266 58.2422 32.9609C58.4766 33.1953 58.5938 33.4687 58.5938 33.7812V39.7578C58.2812 39.6797 57.9492 39.582 57.5977 39.4648C57.2461 39.3477 56.8359 39.2891 56.3672 39.2891ZM63.0469 39.7578V33.7812C63.0469 33.4687 63.1641 33.1953 63.3984 32.9609C63.6328 32.7266 63.9062 32.6094 64.2188 32.6094C64.5313 32.6094 64.8047 32.7266 65.0391 32.9609C65.2734 33.1953 65.3906 33.4687 65.3906 33.7812V39.2891C64.9219 39.2891 64.4922 39.3477 64.1016 39.4648C63.7109 39.582 63.3594 39.6797 63.0469 39.7578ZM58.4766 44.6797C58.2422 44.6016 57.9688 44.5234 57.6562 44.4453C57.3437 44.3672 57.0703 44.2891 56.8359 44.2109C56.6016 44.2109 56.3867 44.1914 56.1914 44.1523C55.9961 44.1133 55.8594 44.0547 55.7812 43.9766C55.625 43.9766 55.5273 43.9375 55.4883 43.8594C55.4492 43.7812 55.4297 43.7031 55.4297 43.625C55.4297 43.3125 55.5469 43.1367 55.7812 43.0977C56.0156 43.0586 56.1719 43.0391 56.25 43.0391C56.5625 43.0391 56.8164 43.1172 57.0117 43.2734C57.207 43.4297 57.3047 43.625 57.3047 43.8594H60.3516C60.3516 42.8437 59.9219 42.1016 59.0625 41.6328C58.2031 41.1641 57.2656 40.9297 56.25 40.9297C55.7031 40.9297 55.1953 41.0078 54.7266 41.1641C54.2578 41.3203 53.8672 41.5156 53.5547 41.75C53.1641 41.9844 52.8516 42.2969 52.6172 42.6875C52.3828 43.0781 52.2656 43.5078 52.2656 43.9766C52.2656 44.6016 52.5195 45.1289 53.0273 45.5586C53.5352 45.9883 54.375 46.3594 55.5469 46.6719C56.25 46.8281 56.6992 46.9453 56.8945 47.0234C57.0898 47.1016 57.1875 47.2578 57.1875 47.4922C57.1875 47.5703 57.1875 47.6289 57.1875 47.668C57.1875 47.707 57.1484 47.7266 57.0703 47.7266C56.9922 47.8828 56.875 47.9805 56.7188 48.0195C56.5625 48.0586 56.4063 48.0781 56.25 48.0781C56.25 48.0781 56.1719 48.0586 56.0156 48.0195C55.8594 47.9805 55.7031 47.9219 55.5469 47.8438C55.4687 47.7656 55.3906 47.668 55.3125 47.5508C55.2344 47.4336 55.1563 47.2969 55.0781 47.1406L52.0312 47.2578C52.0312 47.6484 52.1484 48.0586 52.3828 48.4883C52.6172 48.918 52.9688 49.2891 53.4375 49.6016C53.8281 49.8359 54.2773 50.0312 54.7852 50.1875C55.293 50.3438 55.7812 50.4219 56.25 50.4219C57.2656 50.4219 58.2422 50.168 59.1797 49.6602C60.1172 49.1523 60.5859 48.3516 60.5859 47.2578C60.5859 46.3984 60.293 45.7734 59.707 45.3828C59.1211 44.9922 58.7109 44.7578 58.4766 44.6797ZM65.3906 43.625C65.625 43.625 65.8594 43.7031 66.0938 43.8594C66.3281 44.0156 66.4844 44.3281 66.5625 44.7969V44.9141H69.7266V44.6797C69.6484 44.1328 69.5117 43.6445 69.3164 43.2148C69.1211 42.7852 68.8672 42.4141 68.5547 42.1016C68.1641 41.7109 67.6953 41.418 67.1484 41.2227C66.6016 41.0273 66.0156 40.9297 65.3906 40.9297C64.6875 40.9297 64.0625 41.0469 63.5156 41.2812C62.9688 41.5156 62.5 41.8672 62.1094 42.3359C61.7188 42.8047 61.4062 43.3125 61.1719 43.8594C60.9375 44.4062 60.8203 45.0312 60.8203 45.7344C60.8203 46.3594 60.9375 46.9648 61.1719 47.5508C61.4062 48.1367 61.7188 48.625 62.1094 49.0156C62.5 49.4844 62.9492 49.8359 63.457 50.0703C63.9648 50.3047 64.5703 50.4219 65.2734 50.4219C65.9766 50.4219 66.6016 50.3438 67.1484 50.1875C67.6953 50.0312 68.1641 49.7578 68.5547 49.3672C68.8672 49.0547 69.1211 48.6836 69.3164 48.2539C69.5117 47.8242 69.6484 47.2969 69.7266 46.6719V46.5547H66.5625V46.6719C66.4844 47.0625 66.3281 47.3359 66.0938 47.4922C65.8594 47.6484 65.625 47.7266 65.3906 47.7266C64.9219 47.7266 64.6094 47.4727 64.4531 46.9648C64.2969 46.457 64.2188 46.0469 64.2188 45.7344C64.2188 45.4219 64.2969 44.9922 64.4531 44.4453C64.6094 43.8984 64.9219 43.625 65.3906 43.625ZM42.1875 104.211C41.875 104.211 41.6211 104.113 41.4258 103.918C41.2305 103.723 41.1328 103.508 41.1328 103.273V92.7266C41.1328 91.3984 40.9766 90.0703 40.6641 88.7422C40.3516 87.4141 39.8828 86.1641 39.2578 84.9922L38.7891 84.2891C38.0859 82.9609 37.207 81.7695 36.1523 80.7148C35.0977 79.6602 33.8672 78.8203 32.4609 78.1953C31.9922 77.9609 31.5039 77.668 30.9961 77.3164C30.4883 76.9648 30.0391 76.5937 29.6484 76.2031L19.8047 67.1797C19.3359 66.7891 18.7891 66.5938 18.1641 66.5938C17.5391 66.5938 16.9922 66.8281 16.5234 67.2969C16.1328 67.7656 15.918 68.3125 15.8789 68.9375C15.8398 69.5625 16.0547 70.0703 16.5234 70.4609L27.7734 82.6484C28.0078 82.8828 28.125 83.1367 28.125 83.4102C28.125 83.6836 28.0078 83.9375 27.7734 84.1719C27.5391 84.3281 27.2852 84.4062 27.0117 84.4062C26.7383 84.4062 26.5234 84.2891 26.3672 84.0547L15 71.8672C14.2188 71.0078 13.8281 69.9922 13.8281 68.8203C13.8281 67.6484 14.2578 66.6719 15.1172 65.8906C15.9766 65.0312 16.9727 64.582 18.1055 64.543C19.2383 64.5039 20.2734 64.875 21.2109 65.6562L31.0547 74.6797C31.3672 75.0703 31.7188 75.4023 32.1094 75.6758C32.5 75.9492 32.9297 76.1641 33.3984 76.3203C34.9609 77.1016 36.3477 78.0781 37.5586 79.25C38.7695 80.4219 39.8047 81.75 40.6641 83.2344L41.0156 84.0547C41.7188 85.3828 42.2656 86.7891 42.6562 88.2734C43.0469 89.7578 43.2422 91.2422 43.2422 92.7266V103.273C43.2422 103.508 43.125 103.723 42.8906 103.918C42.6562 104.113 42.4219 104.211 42.1875 104.211ZM26.3672 104.68C26.1328 104.68 25.918 104.602 25.7227 104.445C25.5273 104.289 25.4297 104.094 25.4297 103.859L24.6094 97.6484C24.5312 96.7891 24.3164 95.9883 23.9648 95.2461C23.6133 94.5039 23.125 93.8203 22.5 93.1953L11.6016 81.3594C10.9766 80.7344 10.5078 80.0117 10.1953 79.1914C9.88281 78.3711 9.72656 77.4922 9.72656 76.5547V53.1172C9.72656 51.8672 10.1562 50.8125 11.0156 49.9531C11.875 49.0937 12.9297 48.6641 14.1797 48.6641C15.4297 48.6641 16.4844 49.0937 17.3438 49.9531C18.2031 50.8125 18.6328 51.8672 18.6328 53.1172V64.6016C18.6328 64.9141 18.5352 65.168 18.3398 65.3633C18.1445 65.5586 17.9297 65.6562 17.6953 65.6562C17.3828 65.6562 17.1289 65.5586 16.9336 65.3633C16.7383 65.168 16.6406 64.9141 16.6406 64.6016V53.1172C16.6406 52.4922 16.4062 51.9258 15.9375 51.418C15.4688 50.9102 14.8828 50.6562 14.1797 50.6562C13.4766 50.6562 12.8906 50.9102 12.4219 51.418C11.9531 51.9258 11.7188 52.4922 11.7188 53.1172V76.5547C11.7188 77.1797 11.8359 77.7852 12.0703 78.3711C12.3047 78.957 12.6562 79.4844 13.125 79.9531L24.0234 91.7891C24.7266 92.5703 25.3125 93.4297 25.7812 94.3672C26.25 95.3047 26.5234 96.3203 26.6016 97.4141L27.4219 103.625C27.4219 103.859 27.3438 104.094 27.1875 104.328C27.0312 104.562 26.7969 104.68 26.4844 104.68C26.4844 104.68 26.4648 104.68 26.4258 104.68C26.3867 104.68 26.3672 104.68 26.3672 104.68ZM79.4531 104.211C79.2188 104.211 78.9844 104.113 78.75 103.918C78.5156 103.723 78.3984 103.508 78.3984 103.273V92.7266C78.3984 91.2422 78.5938 89.7578 78.9844 88.2734C79.375 86.7891 79.9219 85.3828 80.625 84.0547L80.9766 83.2344C81.8359 81.75 82.8711 80.4219 84.082 79.25C85.293 78.0781 86.6797 77.1016 88.2422 76.3203C88.7109 76.1641 89.1406 75.9492 89.5312 75.6758C89.9219 75.4023 90.2734 75.0703 90.5859 74.6797L100.547 65.7734C101.406 64.9141 102.402 64.5039 103.535 64.543C104.668 64.582 105.664 65.0312 106.523 65.8906C107.383 66.6719 107.812 67.6484 107.812 68.8203C107.812 69.9922 107.422 71.0078 106.641 71.8672L95.2734 84.0547C95.1172 84.2891 94.9023 84.4062 94.6289 84.4062C94.3555 84.4062 94.1016 84.3281 93.8672 84.1719C93.6328 83.9375 93.5156 83.6836 93.5156 83.4102C93.5156 83.1367 93.6328 82.8828 93.8672 82.6484L105.117 70.5781C105.586 70.1094 105.801 69.5625 105.762 68.9375C105.723 68.3125 105.508 67.7656 105.117 67.2969C104.648 66.8281 104.102 66.5938 103.477 66.5938C102.852 66.5938 102.305 66.7891 101.836 67.1797L91.9922 76.2031C91.6016 76.5937 91.1523 76.9648 90.6445 77.3164C90.1367 77.668 89.6484 77.9609 89.1797 78.1953C87.7734 78.8203 86.543 79.6602 85.4883 80.7148C84.4336 81.7695 83.5547 82.9609 82.8516 84.2891L82.3828 84.9922C81.7578 86.1641 81.2891 87.4141 80.9766 88.7422C80.6641 90.0703 80.5078 91.3984 80.5078 92.7266V103.273C80.5078 103.508 80.4102 103.723 80.2148 103.918C80.0195 104.113 79.7656 104.211 79.4531 104.211ZM95.2734 104.68C95.2734 104.68 95.2539 104.68 95.2148 104.68C95.1758 104.68 95.1562 104.68 95.1562 104.68C94.8437 104.68 94.6094 104.562 94.4531 104.328C94.2969 104.094 94.2188 103.859 94.2188 103.625L95.0391 97.4141C95.1172 96.3203 95.3906 95.3047 95.8594 94.3672C96.3281 93.4297 96.9141 92.5703 97.6172 91.7891L108.516 79.9531C108.984 79.4844 109.336 78.957 109.57 78.3711C109.805 77.7852 109.922 77.1797 109.922 76.5547V53.1172C109.922 52.4922 109.688 51.9258 109.219 51.418C108.75 50.9102 108.164 50.6562 107.461 50.6562C106.758 50.6562 106.172 50.9102 105.703 51.418C105.234 51.9258 105 52.4922 105 53.1172V64.6016C105 64.9141 104.902 65.168 104.707 65.3633C104.512 65.5586 104.258 65.6562 103.945 65.6562C103.711 65.6562 103.496 65.5586 103.301 65.3633C103.105 65.168 103.008 64.9141 103.008 64.6016V53.1172C103.008 51.8672 103.437 50.8125 104.297 49.9531C105.156 49.0937 106.211 48.6641 107.461 48.6641C108.711 48.6641 109.766 49.0937 110.625 49.9531C111.484 50.8125 111.914 51.8672 111.914 53.1172V76.5547C111.914 77.4922 111.758 78.3711 111.445 79.1914C111.133 80.0117 110.664 80.7344 110.039 81.3594L99.1406 93.1953C98.5156 93.8203 98.0273 94.5039 97.6758 95.2461C97.3242 95.9883 97.1094 96.7891 97.0312 97.6484L96.2109 103.859C96.2109 104.094 96.1133 104.289 95.918 104.445C95.7227 104.602 95.5078 104.68 95.2734 104.68Z" fill="black"/>
</svg>
