<svg width="80" height="80" viewBox="0 0 80 80" fill="none" xmlns="http://www.w3.org/2000/svg">
<circle cx="40" cy="40" r="40" fill="url(#paint0_linear_218_195)"/>
<path d="M44.9694 40.3713C44.9694 43.2188 42.6509 45.5353 39.8042 45.5353C36.9547 45.5353 34.6367 43.2184 34.6367 40.3713C34.6367 37.5242 36.9552 35.2068 39.8042 35.2068C42.6509 35.2068 44.9694 37.5237 44.9694 40.3713Z" fill="#EF9316"/>
<path d="M53.0154 34.5524L50.7246 35.1175C51.4943 36.7094 51.9257 38.4907 51.9257 40.372C51.9257 47.0516 46.4891 52.4869 39.8051 52.4869C33.1188 52.4869 27.6822 47.0516 27.6822 40.372C27.6822 33.6924 33.1188 28.2571 39.8051 28.2571C41.6044 28.2571 43.3105 28.651 44.8476 29.3552L45.4131 27.0732C43.6883 26.3436 41.7917 25.9402 39.8046 25.9402C31.8409 25.9402 25.3633 32.4158 25.3633 40.372C25.3633 48.3282 31.8409 54.8038 39.8046 54.8038C47.7661 54.8038 54.2437 48.3282 54.2437 40.372C54.2442 38.3031 53.8059 36.3337 53.0154 34.5524Z" fill="white"/>
<path d="M48.6805 36.2225L46.9026 38.0021C47.1531 38.7458 47.2876 39.5449 47.2876 40.3722C47.2876 44.4963 43.9304 47.8531 39.804 47.8531C35.6748 47.8531 32.318 44.4959 32.318 40.3722C32.318 36.248 35.6753 32.8912 39.804 32.8912C40.525 32.8912 41.2228 32.9929 41.8838 33.1855L43.6922 31.3783C42.5007 30.8618 41.1859 30.5742 39.8044 30.5742C34.3978 30.5742 30 34.9691 30 40.3722C30 45.7752 34.3978 50.1701 39.8044 50.1701C45.2087 50.1701 49.6066 45.7752 49.6066 40.3722C49.6056 38.8889 49.2738 37.4828 48.6805 36.2225Z" fill="white"/>
<path d="M65.0003 23.4518L57.3544 31.0927L56.5779 31.2849L54.2317 31.8641L51.8669 32.4479L49.4511 33.0458L48.2941 33.3306L45.767 35.8561L40.6223 40.9997C40.395 41.2246 40.0986 41.3381 39.804 41.3381C39.5071 41.3381 39.2103 41.2246 38.9834 40.9997C38.5316 40.5454 38.5316 39.8135 38.9834 39.3592L44.1 34.2483L46.6571 31.6929L46.9331 30.5807L47.524 28.1829L48.1082 25.8292L48.6833 23.4982L48.8965 22.6386L56.5425 15V23.4518H65.0003Z" fill="white"/>
<path d="M58.8337 39.0539C58.6991 37.0799 58.2632 35.1869 57.5726 33.4237L55.2937 33.9866C55.9497 35.5689 56.3693 37.2721 56.5107 39.0534C56.5457 39.4891 56.5616 39.9271 56.5616 40.3718C56.5616 40.708 56.5525 41.0392 56.5316 41.3704C56.0356 49.7572 49.3352 56.5064 40.9637 57.0811C40.5814 57.1065 40.1941 57.1206 39.8045 57.1206C39.4149 57.1206 39.028 57.1065 38.6452 57.0811C30.2737 56.5064 23.5711 49.76 23.0751 41.3704C23.0542 41.0392 23.0451 40.708 23.0451 40.3718C23.0451 39.9271 23.0615 39.4891 23.096 39.0534C23.7429 30.8147 30.3806 24.23 38.6457 23.6626C39.028 23.6372 39.4154 23.6231 39.8049 23.6231C40.1945 23.6231 40.5814 23.6372 40.9642 23.6626C42.7217 23.783 44.4069 24.1769 45.9743 24.8002L46.5376 22.5296C44.7874 21.8717 42.9162 21.4615 40.9642 21.3434V15.7437H38.6457V21.3434C29.0868 21.9135 21.4222 29.5195 20.773 39.0534H15V41.3704H20.7521C21.2503 51.0525 28.9777 58.8233 38.6457 59.4003V65H40.9642V59.4003C50.6295 58.8233 58.3568 51.0502 58.8551 41.3704H64.2894V39.0534L58.8337 39.0539Z" fill="white"/>
<defs>
<linearGradient id="paint0_linear_218_195" x1="-1.89455e-07" y1="15.4798" x2="80" y2="64.5202" gradientUnits="userSpaceOnUse">
<stop stop-color="#83C0F9"/>
<stop offset="1" stop-color="#1F61DB"/>
</linearGradient>
</defs>
</svg>
