<svg width="48" height="48" viewBox="0 0 48 48" fill="none" xmlns="http://www.w3.org/2000/svg">
<path d="M6 10.5C7.24264 10.5 8.25 9.49264 8.25 8.25C8.25 7.00736 7.24264 6 6 6C4.75736 6 3.75 7.00736 3.75 8.25C3.75 9.49264 4.75736 10.5 6 10.5Z" fill="white"/>
<path d="M13.5 10.5C14.7426 10.5 15.75 9.49264 15.75 8.25C15.75 7.00736 14.7426 6 13.5 6C12.2574 6 11.25 7.00736 11.25 8.25C11.25 9.49264 12.2574 10.5 13.5 10.5Z" fill="white"/>
<path d="M26.0039 33.7893L21.5039 35.3493C21.2564 35.4318 21.0689 35.6418 21.0164 35.8968C20.9564 36.1518 21.0389 36.4143 21.2264 36.6018L22.1039 37.4418L15.5564 43.3143L10.1489 39.8718C9.89391 39.7068 9.56391 39.7143 9.31641 39.8868L1.81641 45.1368L2.67891 46.3668L9.76641 41.4018L15.2264 44.8818C15.5114 45.0618 15.8789 45.0318 16.1339 44.8068L23.1914 38.4843L24.2939 39.5418C24.4364 39.6768 24.6239 39.7518 24.8114 39.7518C24.8714 39.7518 24.9314 39.7518 24.9989 39.7293C25.2464 39.6693 25.4489 39.4743 25.5314 39.2268L26.9714 34.7268C27.0614 34.4568 26.9864 34.1568 26.7839 33.9618C26.5814 33.7668 26.2814 33.6993 26.0114 33.7893H26.0039Z" fill="white"/>
<path d="M30.75 1.5C24.345 1.5 18.84 5.3475 16.38 10.845C15.9675 10.6275 15.5025 10.5 15 10.5H12C11.1 10.5 10.2975 10.905 9.75 11.535C9.2025 10.905 8.4 10.5 7.5 10.5H4.5C2.8425 10.5 1.5 11.8425 1.5 13.5V19.5H3.0525L3.555 28.5H5.25V22.5C5.25 22.0875 5.5875 21.75 6 21.75C6.4125 21.75 6.75 22.0875 6.75 22.5V28.5H8.445L8.9475 19.5H10.5525L11.055 28.5H12.75V22.5C12.75 22.0875 13.0875 21.75 13.5 21.75C13.9125 21.75 14.25 22.0875 14.25 22.5V28.5H15.945L16.23 23.355C18.525 28.8 23.805 32.67 30 32.9625V36H28.5C28.0875 36 27.75 36.3375 27.75 36.75V43.5C27.75 45.1575 29.0925 46.5 30.75 46.5C32.4075 46.5 33.75 45.1575 33.75 43.5V36.75C33.75 36.3375 33.4125 36 33 36H31.5V32.9625C39.8325 32.565 46.5 25.68 46.5 17.25C46.5 8.82 39.435 1.5 30.75 1.5ZM30.75 31.5C22.89 31.5 16.5 25.11 16.5 17.25C16.5 9.39 22.89 3 30.75 3C38.61 3 45 9.39 45 17.25C45 25.11 38.61 31.5 30.75 31.5Z" fill="white"/>
<path d="M30.75 6C24.5475 6 19.5 11.0475 19.5 17.25C19.5 23.4525 24.5475 28.5 30.75 28.5C36.9525 28.5 42 23.4525 42 17.25C42 11.0475 36.9525 6 30.75 6ZM30 24.03C29.505 24.48 28.845 24.75 28.125 24.75C26.565 24.75 25.3125 23.4975 25.3125 21.9375C25.3125 21.585 25.3875 21.2475 25.5075 20.925C23.79 20.58 22.5 19.065 22.5 17.25C22.5 15.435 23.79 13.92 25.5075 13.575C25.3875 13.2525 25.3125 12.915 25.3125 12.5625C25.3125 11.0025 26.565 9.75 28.125 9.75C28.845 9.75 29.505 10.02 30 10.47V24.03ZM35.9925 20.925C36.1125 21.2475 36.1875 21.585 36.1875 21.9375C36.1875 23.4975 34.935 24.75 33.375 24.75C32.655 24.75 31.995 24.48 31.5 24.03V10.47C31.995 10.02 32.655 9.75 33.375 9.75C34.935 9.75 36.1875 11.0025 36.1875 12.5625C36.1875 12.915 36.1125 13.2525 35.9925 13.575C37.71 13.92 39 15.435 39 17.25C39 19.065 37.71 20.58 35.9925 20.925Z" fill="white"/>
<path d="M33 13.5V15C33.825 15 34.5 15.675 34.5 16.5H36C36 14.8425 34.6575 13.5 33 13.5Z" fill="white"/>
<path d="M27 18H25.5C25.5 19.6575 26.8425 21 28.5 21V19.5C27.675 19.5 27 18.825 27 18Z" fill="white"/>
</svg>
