<svg width="48" height="48" viewBox="0 0 48 48" fill="none" xmlns="http://www.w3.org/2000/svg">
<path d="M41.0559 15.3823L38.7627 15.2139L37.551 17.1683C37.4129 17.391 37.1704 17.523 36.9138 17.5231C36.8748 17.5231 36.8356 17.52 36.7963 17.5138C36.4981 17.4666 36.2573 17.2451 36.1852 16.952L35.6367 14.7189L33.4037 14.1704C33.1105 14.0984 32.8891 13.8576 32.8418 13.5593C32.7946 13.2611 32.9308 12.9637 33.1874 12.8047L35.1417 11.5929L34.9733 9.29963C34.9512 8.9985 35.1118 8.7135 35.3809 8.57644C35.6499 8.43947 35.9749 8.47697 36.2054 8.67188L37.9617 10.1561L40.0908 9.28725C40.3703 9.17306 40.691 9.23794 40.9044 9.45131C41.1179 9.66478 41.1826 9.9855 41.0685 10.265L40.1997 12.3939L41.6839 14.1503C41.8788 14.3809 41.9163 14.7058 41.7793 14.9748C41.642 15.2438 41.3572 15.4038 41.0559 15.3823ZM21.4395 8.03841L20.9144 10.2772C20.8455 10.5711 20.9595 10.8777 21.2037 11.0552C21.3347 11.1503 21.4894 11.1984 21.6446 11.1984C21.7788 11.1984 21.9133 11.1624 22.0331 11.09L24 9.89878L25.9669 11.09C26.2251 11.2464 26.552 11.2328 26.7962 11.0552C27.0404 10.8777 27.1545 10.5711 27.0855 10.2772L26.5604 8.03841L28.3011 6.53588C28.5296 6.33863 28.6176 6.02353 28.5243 5.73638C28.431 5.44922 28.1746 5.24606 27.8738 5.22075L25.5824 5.02838L24.6913 2.90859C24.5743 2.63025 24.3019 2.44922 23.9999 2.44922C23.698 2.44922 23.4255 2.63025 23.3085 2.90859L22.4174 5.02838L20.126 5.22075C19.8251 5.24597 19.5687 5.44922 19.4754 5.73638C19.3822 6.02353 19.4701 6.33863 19.6987 6.53588L21.4395 8.03841ZM8.69972 23.5593C8.52216 23.315 8.21559 23.2012 7.92169 23.27L5.68294 23.7951L4.1805 22.0544C3.98316 21.8259 3.66816 21.7378 3.381 21.8312C3.09394 21.9245 2.89069 22.1809 2.86538 22.4817L2.67291 24.7731L0.553125 25.6642C0.274781 25.7812 0.09375 26.0537 0.09375 26.3556C0.09375 26.6574 0.274781 26.93 0.553125 27.047L2.67291 27.9381L2.86538 30.2294C2.89069 30.5303 3.09384 30.7867 3.381 30.8799C3.45712 30.9047 3.53531 30.9167 3.61266 30.9167C3.82697 30.9167 4.03556 30.8246 4.1805 30.6567L5.68303 28.9161L7.92178 29.4411C8.21559 29.5102 8.52244 29.3961 8.69981 29.1518C8.87728 28.9075 8.89097 28.5806 8.73459 28.3224L7.54341 26.3556L8.73459 24.3887C8.89087 24.1304 8.87719 23.8035 8.69972 23.5593ZM23.9999 35.1655C19.4193 35.1655 15.6926 31.4389 15.6926 26.8582C15.6926 22.2776 19.4192 18.551 23.9999 18.551C28.5806 18.551 32.3072 22.2775 32.3072 26.8582C32.3072 31.439 28.5806 35.1655 23.9999 35.1655ZM27.9159 32.4212C27.0022 31.1821 25.5527 30.4341 24 30.4341C22.4473 30.4341 20.9978 31.1821 20.084 32.4213C21.1924 33.2039 22.5428 33.6655 23.9999 33.6655C25.4571 33.6655 26.8075 33.2038 27.9159 32.4212ZM29.0431 31.4256C30.1388 30.2169 30.8073 28.6142 30.8073 26.8582C30.8073 23.1046 27.7536 20.0509 24 20.0509C20.2464 20.0509 17.1927 23.1046 17.1927 26.8582C17.1927 28.6142 17.8612 30.2169 18.9569 31.4256C19.6747 30.4931 20.6289 29.7832 21.7068 29.3644C20.8007 28.6721 20.2147 27.5812 20.2147 26.3556C20.2147 24.2683 21.9128 22.5702 24.0001 22.5702C26.0874 22.5702 27.7855 24.2683 27.7855 26.3556C27.7855 27.5813 27.1995 28.6722 26.2934 29.3644C27.3711 29.7833 28.3253 30.4931 29.0431 31.4256ZM47.4469 25.6642L45.3271 24.7731L45.1346 22.4816C45.1093 22.1808 44.9062 21.9244 44.619 21.8311C44.3318 21.7377 44.0168 21.8257 43.8195 22.0543L42.317 23.795L40.0782 23.2699C39.7842 23.201 39.4777 23.315 39.3002 23.5592C39.1227 23.8034 39.109 24.1303 39.2654 24.3885L40.4566 26.3554L39.2654 28.3223C39.109 28.5804 39.1227 28.9073 39.3002 29.1516C39.4777 29.3959 39.7845 29.51 40.0782 29.4409L42.317 28.9158L43.8195 30.6564C43.9644 30.8243 44.173 30.9164 44.3873 30.9164C44.4647 30.9164 44.5429 30.9044 44.619 30.8797C44.9062 30.7864 45.1093 30.53 45.1346 30.2291L45.3271 27.9378L47.4469 27.0467C47.7252 26.9297 47.9062 26.6572 47.9062 26.3553C47.9062 26.0534 47.7252 25.7812 47.4469 25.6642ZM11.2039 17.5138C11.5021 17.4666 11.7429 17.2451 11.8149 16.952L12.3635 14.7189L14.5965 14.1704C14.8897 14.0984 15.1111 13.8576 15.1583 13.5593C15.2056 13.2611 15.0694 12.9637 14.8128 12.8047L12.8585 11.5929L13.0268 9.29972C13.049 8.99859 12.8884 8.71359 12.6193 8.57653C12.3503 8.43947 12.0254 8.47697 11.7948 8.67197L10.0385 10.1562L7.90941 9.28734C7.62994 9.17334 7.30931 9.23794 7.09575 9.45141C6.88228 9.66488 6.81759 9.98559 6.93169 10.2651L7.80047 12.3941L6.31622 14.1504C6.12131 14.3811 6.08381 14.706 6.22078 14.975C6.35784 15.244 6.64275 15.404 6.94397 15.3825L9.23728 15.2141L10.4491 17.1684C10.5872 17.3912 10.8296 17.5233 11.0863 17.5233C11.1253 17.523 11.1646 17.52 11.2039 17.5138ZM37.2027 40.3149C37.4099 40.6738 37.3908 41.1073 37.1527 41.4463C36.9147 41.7853 36.5135 41.9503 36.1054 41.8774L32.2747 41.1904L30.9543 44.8512C30.8137 45.2411 30.47 45.5062 30.0575 45.5428C30.0251 45.5457 29.9929 45.5471 29.9609 45.5471C29.5855 45.5471 29.2435 45.3512 29.0527 45.0203L25.6356 39.1018C25.1381 39.3219 24.5801 39.4424 24 39.4424C23.4199 39.4424 22.862 39.3219 22.3645 39.1018L18.9474 45.0203C18.7565 45.3511 18.4145 45.5471 18.0391 45.5471C18.0071 45.5471 17.975 45.5457 17.9425 45.5428C17.5299 45.5061 17.1863 45.2411 17.0457 44.8512L15.7253 41.1903L11.8947 41.8773C11.4866 41.9502 11.0855 41.7853 10.8473 41.4463C10.6092 41.1073 10.5901 40.6738 10.7973 40.3149L14.7479 33.4722C14.6291 33.3353 14.4728 33.2287 14.2868 33.1643C13.2498 32.8052 12.4066 31.9014 12.0314 30.7467C11.6562 29.592 11.8072 28.3653 12.4352 27.4653C12.6966 27.0907 12.6965 26.6253 12.4351 26.2506C11.8072 25.3505 11.6562 24.1238 12.0315 22.969C12.4067 21.8144 13.2499 20.9107 14.287 20.5517C14.7187 20.4023 14.9921 20.0258 15.0008 19.569C15.0219 18.4717 15.6209 17.3905 16.6031 16.6769C17.5853 15.9633 18.7986 15.7278 19.8488 16.0469C20.2857 16.1797 20.7283 16.0358 21.0039 15.6714C21.6659 14.7961 22.7859 14.2735 24 14.2735H24.0001C25.2142 14.2735 26.3342 14.7962 26.9961 15.6715C27.2715 16.0358 27.7142 16.1794 28.1513 16.0468C29.2014 15.7277 30.4147 15.9633 31.3971 16.677C32.3793 17.3906 32.9782 18.4718 32.9991 19.569C33.0078 20.0257 33.2813 20.4023 33.7131 20.5517C34.7501 20.9108 35.5933 21.8145 35.9685 22.9692C36.3436 24.1239 36.1927 25.3507 35.5647 26.2507C35.3032 26.6253 35.3033 27.0907 35.5647 27.4654C36.1927 28.3655 36.3436 29.5922 35.9684 30.7468C35.5932 31.9015 34.75 32.8052 33.713 33.1643C33.5271 33.2286 33.3707 33.3353 33.252 33.4721L37.2027 40.3149ZM28.5875 36.234C29.1903 36.4174 29.911 36.2647 30.5153 35.8256C31.1194 35.3867 31.4873 34.7484 31.4993 34.1184C31.5202 33.0329 32.1965 32.1021 33.2224 31.7469C33.8179 31.5408 34.3111 30.9937 34.5419 30.2834C34.7726 29.5732 34.6952 28.8406 34.3346 28.3238C33.7133 27.4333 33.7133 26.2827 34.3346 25.3925C34.6952 24.8757 34.7727 24.1432 34.5419 23.4329C34.3112 22.7227 33.8179 22.1754 33.2224 21.9693C32.1965 21.6141 31.5201 20.6833 31.4993 19.5979C31.4873 18.9679 31.1195 18.3297 30.5153 17.8907C29.911 17.4517 29.1904 17.299 28.5875 17.4822C27.5486 17.7978 26.4543 17.4423 25.7996 16.5764C25.4196 16.0738 24.7469 15.7737 24.0001 15.7737C23.2533 15.7737 22.5804 16.0738 22.2003 16.5764C21.5454 17.4424 20.4514 17.7979 19.4124 17.4823C18.8095 17.299 18.0889 17.4517 17.4847 17.8906C16.8804 18.3295 16.5126 18.9678 16.5005 19.5978C16.4797 20.6833 15.8034 21.6142 14.7776 21.9693C14.1821 22.1754 13.6888 22.7226 13.458 23.4327C13.2272 24.143 13.3046 24.8756 13.6652 25.3924C14.2864 26.2829 14.2864 27.4334 13.6652 28.3238C13.3046 28.8405 13.2271 29.5731 13.4579 30.2834C13.6886 30.9937 14.1819 31.5408 14.7774 31.7469C15.8034 32.1022 16.4797 33.033 16.5005 34.1183C16.5125 34.7483 16.8803 35.3866 17.4846 35.8255C18.0887 36.2646 18.8094 36.4173 19.4123 36.2339C19.6639 36.1575 19.9188 36.1204 20.1698 36.1204C20.9554 36.1204 21.704 36.4835 22.2002 37.1397C22.5803 37.6424 23.2531 37.9424 23.9999 37.9425C24.7467 37.9425 25.4196 37.6424 25.7996 37.1398C26.4545 36.2738 27.5486 35.9183 28.5875 36.234Z" fill="white"/>
</svg>
