<svg width="80" height="80" viewBox="0 0 80 80" fill="none" xmlns="http://www.w3.org/2000/svg">
<circle cx="40" cy="40" r="40" fill="url(#paint0_linear_218_203)"/>
<path d="M22.5391 23.1801L15.0303 32.0314C14.972 32.1002 15.0016 32.2061 15.0871 32.2346L23.6818 35.1028C23.769 35.132 23.8574 35.0619 23.8489 34.9703L22.763 23.2507C22.7525 23.1384 22.6121 23.0941 22.5391 23.1801Z" fill="white"/>
<path d="M47.0334 21H32.9673C32.8224 21 32.79 21.2035 32.9278 21.2484L39.9608 23.542C39.9865 23.5504 40.0141 23.5504 40.0398 23.542L47.0728 21.2484C47.2106 21.2035 47.1783 21 47.0334 21Z" fill="white"/>
<path d="M64.9715 32.0314L57.4628 23.1801C57.3898 23.0941 57.2492 23.1384 57.2388 23.2507L56.1529 34.9703C56.1444 35.0618 56.2328 35.1319 56.32 35.1028L64.9146 32.2346C65.0002 32.2061 65.0298 32.1002 64.9715 32.0314Z" fill="white"/>
<path d="M27.8183 38.6036L39.8901 59.309C39.9393 59.3933 40.061 59.3933 40.1102 59.309L52.182 38.6036C52.2315 38.5187 52.1703 38.4121 52.072 38.4121H27.9283C27.83 38.4121 27.7688 38.5187 27.8183 38.6036Z" fill="white"/>
<path d="M17.5155 36.111L32.0762 51.706C32.1797 51.817 32.3557 51.6861 32.2793 51.555L24.5079 38.2258C24.4923 38.1991 24.4676 38.1789 24.4382 38.1691L17.6488 35.9033C17.5236 35.8615 17.4253 36.0145 17.5155 36.111Z" fill="white"/>
<path d="M47.9249 51.7059L62.4856 36.111C62.5757 36.0145 62.4774 35.8615 62.3522 35.9033L55.5628 38.1691C55.5335 38.1789 55.5087 38.1991 55.4931 38.2258L47.7218 51.5548C47.6454 51.686 47.8213 51.8168 47.9249 51.7059Z" fill="white"/>
<path d="M25.3053 21.7564L26.4579 34.1959C26.4674 34.2979 26.5872 34.3476 26.666 34.2822L37.1079 25.6238C37.1851 25.5597 37.1614 25.4358 37.0661 25.4047L25.4715 21.6236C25.3845 21.5952 25.2968 21.6652 25.3053 21.7564Z" fill="white"/>
<path d="M54.5302 21.6236L42.9356 25.4047C42.8402 25.4358 42.8165 25.5598 42.8938 25.6238L53.3357 34.2822C53.4145 34.3476 53.5344 34.2979 53.5438 34.1959L54.6965 21.7564C54.705 21.6652 54.6173 21.5952 54.5302 21.6236Z" fill="white"/>
<path d="M29.4362 35.7435H50.5628C50.6821 35.7435 50.7359 35.5942 50.6441 35.5181L40.0808 26.7591C40.0336 26.72 39.9654 26.72 39.9182 26.7591L29.3549 35.5181C29.2631 35.5942 29.3169 35.7435 29.4362 35.7435Z" fill="white"/>
<defs>
<linearGradient id="paint0_linear_218_203" x1="-1.89455e-07" y1="15.4798" x2="80" y2="64.5202" gradientUnits="userSpaceOnUse">
<stop stop-color="#F9C283"/>
<stop offset="1" stop-color="#DB851F"/>
</linearGradient>
</defs>
</svg>
