<svg width="80" height="80" viewBox="0 0 80 80" fill="none" xmlns="http://www.w3.org/2000/svg">
<circle cx="40" cy="40" r="40" fill="url(#paint0_linear_218_175)"/>
<g clip-path="url(#clip0_218_175)">
<path d="M40 54.4588C34.8972 54.4588 29.8894 53.0969 25.5175 50.5198C21.274 48.0187 17.727 44.4428 15.2601 40.179L15 39.7296L15.2601 39.2802C17.727 35.0163 21.274 31.4405 25.5175 28.939C29.8894 26.3619 34.8972 25 40 25C45.1028 25 50.1106 26.3619 54.4825 28.939C58.726 31.4401 62.273 35.016 64.7399 39.2802L65 39.7296L64.7399 40.179C62.273 44.4428 58.726 48.0187 54.4825 50.5198C50.1106 53.0969 45.1028 54.4588 40 54.4588ZM17.0795 39.7296C21.9149 47.7217 30.6484 52.664 40 52.664C49.3519 52.664 58.0855 47.7217 62.9205 39.7296C58.0851 31.7371 49.3516 26.7948 40 26.7948C30.6481 26.7948 21.9149 31.7375 17.0795 39.7296Z" fill="white"/>
<path d="M43.1278 51.3568H36.876V47.7172C36.7711 47.6761 36.6669 47.6328 36.5638 47.5877L33.9899 50.1617L29.5701 45.7394L32.143 43.1665C32.098 43.0638 32.0554 42.96 32.0142 42.8555H28.375V36.6036H32.0142C32.055 36.4991 32.098 36.3953 32.143 36.2925L29.5701 33.7196L33.9899 29.2974L36.5638 31.8714C36.6669 31.8263 36.7711 31.783 36.876 31.7418V28.1023H43.1278V31.7415C43.2323 31.7823 43.3361 31.8252 43.4389 31.8703L46.0121 29.2971L50.4319 33.7193L47.8601 36.2911C47.9055 36.3942 47.9484 36.4984 47.9896 36.6033H51.6288V42.8551H47.9896C47.9484 42.96 47.9051 43.0641 47.8601 43.1673L50.4319 45.7391L46.0121 50.1613L43.4389 47.5881C43.3361 47.6331 43.2323 47.6761 43.1278 47.7169V51.3568ZM38.6708 49.562H41.3334V46.413L41.9711 46.2202C42.3944 46.0921 42.8083 45.921 43.2007 45.7116L43.7873 45.3988L46.0118 47.6233L47.8939 45.7398L45.6669 43.5132L45.9829 42.9255C46.192 42.5366 46.3634 42.1238 46.4918 41.6983L46.6847 41.0607H49.8336V38.3984H46.6847L46.4918 37.7607C46.363 37.3353 46.192 36.9225 45.9829 36.5336L45.6669 35.9459L47.8939 33.7193L46.0118 31.8358L43.7873 34.0603L43.2007 33.7474C42.8079 33.538 42.3944 33.367 41.9711 33.2389L41.3334 33.046V29.8971H38.6708V33.046L38.0331 33.2389C37.608 33.3674 37.1952 33.5388 36.8059 33.7481L36.2182 34.0642L33.9902 31.8362L32.1078 33.7196L34.333 35.9445L34.0201 36.5311C33.8108 36.9239 33.6397 37.3374 33.5116 37.7611L33.3188 38.3988H30.1698V41.061H33.3188L33.5116 41.6987C33.6397 42.1221 33.8108 42.5359 34.0201 42.9287L34.333 43.5153L32.1078 45.7401L33.9902 47.6236L36.2182 45.3956L36.8059 45.7116C37.1952 45.921 37.608 46.0921 38.0331 46.2205L38.6708 46.4134V49.562Z" fill="white"/>
<path d="M40.0001 44.1008C42.4142 44.1008 44.3713 42.1437 44.3713 39.7296C44.3713 37.3154 42.4142 35.3584 40.0001 35.3584C37.586 35.3584 35.6289 37.3154 35.6289 39.7296C35.6289 42.1437 37.586 44.1008 40.0001 44.1008Z" fill="white"/>
</g>
<defs>
<linearGradient id="paint0_linear_218_175" x1="-1.89455e-07" y1="15.4798" x2="80" y2="64.5202" gradientUnits="userSpaceOnUse">
<stop stop-color="#F9C283"/>
<stop offset="1" stop-color="#DB851F"/>
</linearGradient>
<clipPath id="clip0_218_175">
<rect width="48" height="48" fill="white" transform="translate(16 16)"/>
</clipPath>
</defs>
</svg>
