<svg width="32" height="32" viewBox="0 0 32 32" fill="none" xmlns="http://www.w3.org/2000/svg">
<path fill-rule="evenodd" clip-rule="evenodd" d="M5.33203 15.9987C5.33203 14.8587 5.36136 13.6894 5.40936 12.556L5.47336 11.2174L5.54936 9.93603L5.6307 8.73603L5.71603 7.64003C5.80655 6.45045 6.31394 5.33097 7.14883 4.47876C7.98372 3.62655 9.09256 3.09629 10.28 2.98136L10.8467 2.92803L12.06 2.82803C13.3174 2.7347 14.688 2.66537 15.9987 2.66537C17.3094 2.66537 18.68 2.7347 19.9374 2.82803L21.1507 2.92803L21.7174 2.98136C22.905 3.09633 24.014 3.62678 24.849 4.47926C25.6839 5.33174 26.1911 6.45155 26.2814 7.64137L26.3654 8.7347L26.448 9.9347L26.524 11.2174L26.588 12.556C26.6377 13.7029 26.6635 14.8507 26.6654 15.9987C26.6635 17.1467 26.6377 18.2945 26.588 19.4414L26.524 20.78L26.448 22.0614L26.3654 23.2614L26.2814 24.3574C26.1908 25.5469 25.6835 26.6664 24.8486 27.5186C24.0137 28.3708 22.9048 28.9011 21.7174 29.016L21.1507 29.0694L19.9374 29.1694C18.6269 29.2709 17.3131 29.3252 15.9987 29.332C14.688 29.332 13.3174 29.2627 12.06 29.1694L10.8467 29.0694L10.28 29.016C9.09277 28.9012 7.9841 28.3711 7.14924 27.5191C6.31438 26.6672 5.80685 25.548 5.71603 24.3587L5.6307 23.264L5.54936 22.064L5.47336 20.7814L5.40936 19.4427C5.35967 18.2954 5.33388 17.1471 5.33203 15.9987ZM12.7654 18.6654L19.232 18.6654C19.848 18.6654 20.232 17.9987 19.9254 17.4654L16.692 11.8654C16.6219 11.7435 16.5209 11.6423 16.3991 11.5719C16.2774 11.5015 16.1393 11.4645 15.9987 11.4645C15.8581 11.4645 15.72 11.5015 15.5983 11.5719C15.4765 11.6423 15.3755 11.7435 15.3054 11.8654L12.0734 17.4654C12.0031 17.587 11.9662 17.725 11.9662 17.8655C11.9662 18.006 12.0032 18.144 12.0735 18.2656C12.1438 18.3872 12.2448 18.4882 12.3665 18.5584C12.4882 18.6286 12.6262 18.6655 12.7667 18.6654L12.7654 18.6654Z" fill="#464036"/>
</svg>
